SplineFontDB: 3.0
FontName: LiberationSansNarrow-BoldItalic
FullName: Liberation Sans Narrow Bold Italic
FamilyName: Liberation Sans Narrow
Weight: Bold
Copyright: Copyright 2010 Oracle and/or its affiliates
Version: 1.07.2
ItalicAngle: -12
UnderlinePosition: -110
UnderlineWidth: 215
Ascent: 1638
Descent: 410
LayerCount: 2
Layer: 0 1 "Back"  1
Layer: 1 1 "Fore"  0
NeedsXUIDChange: 1
FSType: 0
OS2Version: 1
OS2_WeightWidthSlopeOnly: 0
OS2_UseTypoMetrics: 1
CreationTime: 1123372800
ModificationTime: 1328009085
PfmFamily: 17
TTFWeight: 700
TTFWidth: 3
LineGap: 0
VLineGap: 0
Panose: 2 11 7 6 2 2 2 10 2 4
OS2TypoAscent: 1491
OS2TypoAOffset: 0
OS2TypoDescent: -431
OS2TypoDOffset: 0
OS2TypoLinegap: 269
OS2WinAscent: 1888
OS2WinAOffset: 0
OS2WinDescent: 431
OS2WinDOffset: 0
HheadAscent: 1916
HheadAOffset: 0
HheadDescent: -434
HheadDOffset: 0
OS2SubXSize: 1434
OS2SubYSize: 1331
OS2SubXOff: 0
OS2SubYOff: 147
OS2SupXSize: 1434
OS2SupYSize: 1331
OS2SupXOff: 0
OS2SupYOff: 523
OS2StrikeYSize: 102
OS2StrikeYPos: 530
OS2FamilyClass: 2053
OS2Vendor: 'OOoH'
OS2CodePages: 6000009f.dfd70000
OS2UnicodeRanges: a00002af.500078fb.00000000.00000000
Lookup: 1 0 0 "'locl' Localized Forms lookup 0"  {"'locl' Localized Forms lookup 0-1"  } ['locl' ('cyrl' <'SRB ' > 'cyrl' <'MKD ' > ) ]
Lookup: 258 0 0 "'kern' Horizontal Kerning lookup 0"  {"'kern' Horizontal Kerning lookup 0 subtable"  } ['kern' ('DFLT' <'dflt' > 'cyrl' <'dflt' > 'cyrl' <'SRB ' > 'cyrl' <'MKD ' > 'grek' <'dflt' > 'latn' <'dflt' > ) ]
MarkAttachClasses: 1
DEI: 91125
TtTable: prep
PUSHW_1
 511
SCANCTRL
PUSHB_1
 1
SCANTYPE
SVTCA[y-axis]
MPPEM
PUSHB_1
 8
LT
IF
PUSHB_2
 1
 1
INSTCTRL
EIF
PUSHB_2
 70
 6
CALL
IF
POP
PUSHB_1
 16
EIF
MPPEM
PUSHB_1
 20
GT
IF
POP
PUSHB_1
 128
EIF
SCVTCI
PUSHB_1
 6
CALL
NOT
IF
EIF
PUSHB_1
 20
CALL
EndTTInstrs
TtTable: fpgm
PUSHB_1
 0
FDEF
PUSHB_1
 0
SZP0
MPPEM
PUSHB_1
 42
LT
IF
PUSHB_1
 74
SROUND
EIF
PUSHB_1
 0
SWAP
MIAP[rnd]
RTG
PUSHB_1
 6
CALL
IF
RTDG
EIF
MPPEM
PUSHB_1
 42
LT
IF
RDTG
EIF
DUP

StartChar: .notdef
Encoding: 65536 -1 0
Width: 1593
Flags: W
LayerCount: 2
Fore
SplineSet
145 0 m 1,0,-1
 145 1365 l 1,1,-1
 1303 1365 l 1,2,-1
 1303 0 l 1,3,-1
 145 0 l 1,0,-1
290 68 m 1,4,-1
 1159 68 l 1,5,-1
 1159 1297 l 1,6,-1
 290 1297 l 1,7,-1
 290 68 l 1,4,-1
EndSplineSet
EndChar

StartChar: exclam
Encoding: 33 33 4
Width: 559
GlyphClass: 2
Flags: W
LayerCount: 2
Fore
SplineSet
347 426 m 1,0,-1
 158 426 l 1,1,-1
 289 1409 l 1,2,-1
 530 1409 l 1,3,-1
 347 426 l 1,0,-1
65 0 m 1,4,-1
 107 270 l 1,5,-1
 343 270 l 1,6,-1
 301 0 l 1,7,-1
 65 0 l 1,4,-1
EndSplineSet
EndChar

StartChar: quotedbl
Encoding: 34 34 5
Width: 797
GlyphClass: 2
Flags: W
LayerCount: 2
Fore
SplineSet
709 898 m 1,0,-1
 529 898 l 1,1,-1
 589 1409 l 1,2,-1
 814 1409 l 1,3,-1
 709 898 l 1,0,-1
360 898 m 1,4,-1
 180 898 l 1,5,-1
 239 1409 l 1,6,-1
 463 1409 l 1,7,-1
 360 898 l 1,4,-1
EndSplineSet
EndChar

StartChar: numbersign
Encoding: 35 35 6
Width: 934
GlyphClass: 2
Flags: W
LayerCount: 2
Fore
SplineSet
770 862 m 1,0,-1
 713 530 l 1,1,-1
 890 530 l 1,2,-1
 890 381 l 1,3,-1
 688 381 l 1,4,-1
 621 0 l 1,5,-1
 493 0 l 1,6,-1
 558 381 l 1,7,-1
 307 381 l 1,8,-1
 241 0 l 1,9,-1
 116 0 l 1,10,-1
 180 381 l 1,11,-1
 53 381 l 1,12,-1
 53 530 l 1,13,-1
 207 530 l 1,14,-1
 265 862 l 1,15,-1
 95 862 l 1,16,-1
 95 1010 l 1,17,-1
 290 1010 l 1,18,-1
 359 1395 l 1,19,-1
 485 1395 l 1,20,-1
 417 1010 l 1,21,-1
 669 1010 l 1,22,-1
 738 1395 l 1,23,-1
 866 1395 l 1,24,-1
 797 1010 l 1,25,-1
 932 1010 l 1,26,-1
 932 862 l 1,27,-1
 770 862 l 1,0,-1
393 862 m 1,28,-1
 334 530 l 1,29,-1
 587 530 l 1,30,-1
 645 862 l 1,31,-1
 393 862 l 1,28,-1
EndSplineSet
EndChar

StartChar: dollar
Encoding: 36 36 7
Width: 934
GlyphClass: 2
Flags: W
LayerCount: 2
Fore
SplineSet
886 474 m 0,0,1
 886 363 886 363 854.5 280 c 128,-1,2
 823 197 823 197 764 141 c 128,-1,3
 705 85 705 85 619 55.5 c 128,-1,4
 533 26 533 26 423 21 c 1,5,-1
 396 -152 l 1,6,-1
 304 -152 l 1,7,-1
 330 23 l 1,8,9
 263 23 263 23 203.5 45.5 c 128,-1,10
 144 68 144 68 98 112 c 128,-1,11
 52 156 52 156 24 220 c 128,-1,12
 -4 284 -4 284 -9 366 c 1,13,-1
 206 408 l 1,14,15
 212 320 212 320 251 275.5 c 128,-1,16
 290 231 290 231 365 231 c 1,17,-1
 425 619 l 1,18,19
 362 638 362 638 306 669.5 c 128,-1,20
 250 701 250 701 208 746.5 c 128,-1,21
 166 792 166 792 142 852 c 128,-1,22
 118 912 118 912 118 988 c 256,23,24
 118 1064 118 1064 136.5 1124 c 128,-1,25
 155 1184 155 1184 187 1229 c 128,-1,26
 219 1274 219 1274 261.5 1305.5 c 128,-1,27
 304 1337 304 1337 352 1356.5 c 128,-1,28
 400 1376 400 1376 451.5 1385 c 128,-1,29
 503 1394 503 1394 551 1394 c 1,30,-1
 571 1520 l 1,31,-1
 661 1516 l 1,32,-1
 639 1386 l 1,33,34
 712 1386 712 1386 767.5 1363 c 128,-1,35
 823 1340 823 1340 862 1300 c 128,-1,36
 901 1260 901 1260 922.5 1205.5 c 128,-1,37
 944 1151 944 1151 949 1089 c 1,38,-1
 735 1032 l 1,39,40
 728 1076 728 1076 715 1106.5 c 128,-1,41
 702 1137 702 1137 684.5 1155.5 c 128,-1,42
 667 1174 667 1174 647 1182 c 128,-1,43
 627 1190 627 1190 608 1190 c 1,44,-1
 553 837 l 1,45,46
 628 815 628 815 689 784 c 128,-1,47
 750 753 750 753 794 709.5 c 128,-1,48
 838 666 838 666 862 608 c 128,-1,49
 886 550 886 550 886 474 c 0,0,1
664 413 m 0,50,51
 664 490 664 490 628 530.5 c 128,-1,52
 592 571 592 571 514 593 c 1,53,-1
 454 231 l 1,54,55
 495 231 495 231 533.5 242 c 128,-1,56
 572 253 572 253 601 275.5 c 128,-1,57
 630 298 630 298 647 332.5 c 128,-1,58
 664 367 664 367 664 413 c 0,50,51
338 1006 m 0,59,60
 338 976 338 976 346.5 954.5 c 128,-1,61
 355 933 355 933 371 916.5 c 128,-1,62
 387 900 387 900 410.5 887.5 c 128,-1,63
 434 875 434 875 464 863 c 1,64,-1
 519 1194 l 1,65,66
 477 1194 477 1194 443.5 1179.5 c 128,-1,67
 410 1165 410 1165 386.5 1139.5 c 128,-1,68
 363 1114 363 1114 350.5 1079.5 c 128,-1,69
 338 1045 338 1045 338 1006 c 0,59,60
EndSplineSet
EndChar

StartChar: percent
Encoding: 37 37 8
Width: 1493
GlyphClass: 2
Flags: W
LayerCount: 2
Fore
SplineSet
448 1421 m 0,0,1
 500 1421 500 1421 545.5 1405 c 128,-1,2
 591 1389 591 1389 626 1352.5 c 128,-1,3
 661 1316 661 1316 681 1257 c 128,-1,4
 701 1198 701 1198 701 1113 c 0,5,6
 701 1076 701 1076 695.5 1029.5 c 128,-1,7
 690 983 690 983 680 935 c 1,8,9
 658 809 658 809 617 729 c 128,-1,10
 576 649 576 649 527.5 603.5 c 128,-1,11
 479 558 479 558 428 541 c 128,-1,12
 377 524 377 524 334 524 c 0,13,14
 283 524 283 524 238.5 542 c 128,-1,15
 194 560 194 560 162 598.5 c 128,-1,16
 130 637 130 637 111 697 c 128,-1,17
 92 757 92 757 92 841 c 0,18,19
 92 878 92 878 96 924 c 1,20,21
 102 969 102 969 112 1015 c 1,22,23
 134 1146 134 1146 173 1226 c 128,-1,24
 212 1306 212 1306 258.5 1349.5 c 128,-1,25
 305 1393 305 1393 355 1407 c 128,-1,26
 405 1421 405 1421 448 1421 c 0,0,1
447 1270 m 0,27,28
 422 1270 422 1270 398.5 1260 c 128,-1,29
 375 1250 375 1250 354 1221.5 c 128,-1,30
 333 1193 333 1193 315.5 1141.5 c 128,-1,31
 298 1090 298 1090 284 1006 c 0,32,33
 275 953 275 953 270.5 908.5 c 128,-1,34
 266 864 266 864 266 827 c 0,35,36
 266 754 266 754 284.5 719.5 c 128,-1,37
 303 685 303 685 337 685 c 0,38,39
 362 685 362 685 385.5 695.5 c 128,-1,40
 409 706 409 706 431 734.5 c 128,-1,41
 453 763 453 763 471 814 c 128,-1,42
 489 865 489 865 503 945 c 1,43,44
 526 1054 526 1054 526 1131 c 0,45,46
 526 1205 526 1205 505.5 1237.5 c 128,-1,47
 485 1270 485 1270 447 1270 c 0,27,28
1193 882 m 0,48,49
 1245 882 1245 882 1290.5 866 c 128,-1,50
 1336 850 1336 850 1371 813.5 c 128,-1,51
 1406 777 1406 777 1426 718 c 128,-1,52
 1446 659 1446 659 1446 574 c 0,53,54
 1446 537 1446 537 1441 490.5 c 128,-1,55
 1436 444 1436 444 1425 396 c 1,56,57
 1403 270 1403 270 1362.5 190 c 128,-1,58
 1322 110 1322 110 1273 64.5 c 128,-1,59
 1224 19 1224 19 1173 2 c 128,-1,60
 1122 -15 1122 -15 1079 -15 c 0,61,62
 1028 -15 1028 -15 984 3 c 128,-1,63
 940 21 940 21 907.5 59.5 c 128,-1,64
 875 98 875 98 856 158 c 128,-1,65
 837 218 837 218 837 302 c 0,66,67
 837 339 837 339 841.5 384.5 c 128,-1,68
 846 430 846 430 857 476 c 1,69,70
 879 607 879 607 918 687 c 128,-1,71
 957 767 957 767 1003.5 810.5 c 128,-1,72
 1050 854 1050 854 1100 868 c 128,-1,73
 1150 882 1150 882 1193 882 c 0,48,49
1192 731 m 0,74,75
 1167 731 1167 731 1143.5 721 c 128,-1,76
 1120 711 1120 711 1099 682.5 c 128,-1,77
 1078 654 1078 654 1060.5 602.5 c 128,-1,78
 1043 551 1043 551 1030 467 c 0,79,80
 1021 414 1021 414 1016.5 369.5 c 128,-1,81
 1012 325 1012 325 1012 288 c 0,82,83
 1012 215 1012 215 1030 180.5 c 128,-1,84
 1048 146 1048 146 1082 146 c 0,85,86
 1107 146 1107 146 1130.5 156.5 c 128,-1,87
 1154 167 1154 167 1176 195.5 c 128,-1,88
 1198 224 1198 224 1216.5 275 c 128,-1,89
 1235 326 1235 326 1248 406 c 1,90,91
 1271 515 1271 515 1271 592 c 0,92,93
 1271 666 1271 666 1250.5 698.5 c 128,-1,94
 1230 731 1230 731 1192 731 c 0,74,75
398 0 m 1,95,-1
 237 0 l 1,96,-1
 1127 1409 l 1,97,-1
 1290 1409 l 1,98,-1
 398 0 l 1,95,-1
EndSplineSet
EndChar

StartChar: ampersand
Encoding: 38 38 9
Width: 1212
GlyphClass: 2
Flags: W
LayerCount: 2
Fore
SplineSet
40 354 m 0,0,1
 40 441 40 441 66.5 511 c 128,-1,2
 93 581 93 581 139.5 637 c 128,-1,3
 186 693 186 693 250 736 c 128,-1,4
 314 779 314 779 389 811 c 1,5,6
 384 830 384 830 379 855 c 128,-1,7
 374 880 374 880 370 909.5 c 128,-1,8
 366 939 366 939 363.5 971.5 c 128,-1,9
 361 1004 361 1004 361 1037 c 0,10,11
 361 1119 361 1119 383.5 1188.5 c 128,-1,12
 406 1258 406 1258 450.5 1309 c 128,-1,13
 495 1360 495 1360 560.5 1388.5 c 128,-1,14
 626 1417 626 1417 711 1417 c 0,15,16
 772 1417 772 1417 823 1401 c 128,-1,17
 874 1385 874 1385 910.5 1352.5 c 128,-1,18
 947 1320 947 1320 967 1272 c 128,-1,19
 987 1224 987 1224 987 1160 c 0,20,21
 987 1075 987 1075 955.5 1010.5 c 128,-1,22
 924 946 924 946 871.5 895.5 c 128,-1,23
 819 845 819 845 749 805 c 128,-1,24
 679 765 679 765 603 727 c 1,25,26
 615 685 615 685 628.5 644 c 128,-1,27
 642 603 642 603 658.5 562.5 c 128,-1,28
 675 522 675 522 696 480.5 c 128,-1,29
 717 439 717 439 744 395 c 1,30,31
 804 473 804 473 850 563.5 c 128,-1,32
 896 654 896 654 936 760 c 1,33,-1
 1089 677 l 1,34,35
 1069 621 1069 621 1044 565.5 c 128,-1,36
 1019 510 1019 510 989.5 456.5 c 128,-1,37
 960 403 960 403 928 353.5 c 128,-1,38
 896 304 896 304 861 261 c 1,39,40
 894 227 894 227 932 212 c 128,-1,41
 970 197 970 197 1012 197 c 0,42,43
 1037 197 1037 197 1060 201 c 128,-1,44
 1083 205 1083 205 1103 213 c 1,45,-1
 1071 10 l 1,46,47
 1044 -1 1044 -1 1018 -6.5 c 128,-1,48
 992 -12 992 -12 957 -12 c 0,49,50
 882 -12 882 -12 821 18 c 128,-1,51
 760 48 760 48 707 105 c 1,52,53
 682 81 682 81 653 58 c 128,-1,54
 624 35 624 35 587 18 c 128,-1,55
 550 1 550 1 499.5 -9.5 c 128,-1,56
 449 -20 449 -20 380 -20 c 0,57,58
 215 -20 215 -20 127.5 76.5 c 128,-1,59
 40 173 40 173 40 354 c 0,0,1
404 170 m 0,60,61
 432 170 432 170 459 176.5 c 128,-1,62
 486 183 486 183 510.5 194.5 c 128,-1,63
 535 206 535 206 556.5 220 c 128,-1,64
 578 234 578 234 594 249 c 1,65,66
 566 294 566 294 541.5 343.5 c 128,-1,67
 517 393 517 393 496 442.5 c 128,-1,68
 475 492 475 492 459 540 c 128,-1,69
 443 588 443 588 430 631 c 1,70,71
 397 613 397 613 364.5 590 c 128,-1,72
 332 567 332 567 306.5 535 c 128,-1,73
 281 503 281 503 265 460 c 128,-1,74
 249 417 249 417 249 360 c 0,75,76
 249 317 249 317 260.5 281.5 c 128,-1,77
 272 246 272 246 292 221.5 c 128,-1,78
 312 197 312 197 341 183.5 c 128,-1,79
 370 170 370 170 404 170 c 0,60,61
547 1041 m 0,80,81
 547 997 547 997 551 962.5 c 128,-1,82
 555 928 555 928 563 896 c 1,83,84
 615 920 615 920 659 943 c 128,-1,85
 703 966 703 966 735 994 c 128,-1,86
 767 1022 767 1022 785 1058 c 128,-1,87
 803 1094 803 1094 803 1142 c 0,88,89
 803 1193 803 1193 775.5 1220 c 128,-1,90
 748 1247 748 1247 701 1247 c 0,91,92
 669 1247 669 1247 640.5 1234 c 128,-1,93
 612 1221 612 1221 591 1195.5 c 128,-1,94
 570 1170 570 1170 558.5 1131 c 128,-1,95
 547 1092 547 1092 547 1041 c 0,80,81
EndSplineSet
EndChar

StartChar: quotesingle
Encoding: 39 39 10
Width: 399
GlyphClass: 2
Flags: W
LayerCount: 2
Fore
SplineSet
342 898 m 1,0,-1
 162 898 l 1,1,-1
 222 1409 l 1,2,-1
 445 1409 l 1,3,-1
 342 898 l 1,0,-1
EndSplineSet
EndChar

StartChar: parenleft
Encoding: 40 40 11
Width: 559
GlyphClass: 2
Flags: W
LayerCount: 2
Fore
SplineSet
716 1484 m 1,0,1
 505 1238 505 1238 396 939.5 c 128,-1,2
 287 641 287 641 287 280 c 0,3,4
 287 85 287 85 316.5 -92 c 128,-1,5
 346 -269 346 -269 407 -425 c 1,6,-1
 182 -425 l 1,7,8
 122 -269 122 -269 91.5 -87 c 128,-1,9
 61 95 61 95 61 296 c 0,10,11
 61 475 61 475 87.5 641 c 128,-1,12
 114 807 114 807 167 957.5 c 128,-1,13
 220 1108 220 1108 300 1240.5 c 128,-1,14
 380 1373 380 1373 486 1484 c 1,15,-1
 716 1484 l 1,0,1
EndSplineSet
EndChar

StartChar: parenright
Encoding: 41 41 12
Width: 559
GlyphClass: 2
Flags: W
LayerCount: 2
Fore
SplineSet
-148 -425 m 1,0,1
 63 -173 63 -173 173 133 c 128,-1,2
 283 439 283 439 283 809 c 0,3,4
 283 888 283 888 275 975.5 c 128,-1,5
 267 1063 267 1063 251.5 1151.5 c 128,-1,6
 236 1240 236 1240 213 1325 c 128,-1,7
 190 1410 190 1410 161 1484 c 1,8,-1
 378 1484 l 1,9,10
 439 1335 439 1335 474.5 1160 c 128,-1,11
 510 985 510 985 510 793 c 0,12,13
 510 610 510 610 483.5 440 c 128,-1,14
 457 270 457 270 403 115.5 c 128,-1,15
 349 -39 349 -39 269 -175 c 128,-1,16
 189 -311 189 -311 83 -425 c 1,17,-1
 -148 -425 l 1,0,1
EndSplineSet
EndChar

StartChar: asterisk
Encoding: 42 42 13
Width: 653
GlyphClass: 2
Flags: W
LayerCount: 2
Fore
SplineSet
470 1135 m 1,0,-1
 663 1239 l 1,1,-1
 719 1042 l 1,2,-1
 514 981 l 1,3,-1
 666 768 l 1,4,-1
 515 647 l 1,5,-1
 396 899 l 1,6,-1
 274 647 l 1,7,-1
 121 770 l 1,8,-1
 277 981 l 1,9,-1
 72 1042 l 1,10,-1
 128 1239 l 1,11,-1
 324 1135 l 1,12,-1
 309 1409 l 1,13,-1
 485 1409 l 1,14,-1
 470 1135 l 1,0,-1
EndSplineSet
EndChar

StartChar: plus
Encoding: 43 43 14
Width: 981
GlyphClass: 2
Flags: W
LayerCount: 2
Fore
SplineSet
615 569 m 1,0,-1
 615 161 l 1,1,-1
 430 161 l 1,2,-1
 430 569 l 1,3,-1
 103 569 l 1,4,-1
 103 793 l 1,5,-1
 430 793 l 1,6,-1
 430 1201 l 1,7,-1
 615 1201 l 1,8,-1
 615 793 l 1,9,-1
 945 793 l 1,10,-1
 945 569 l 1,11,-1
 615 569 l 1,0,-1
EndSplineSet
EndChar

StartChar: comma
Encoding: 44 44 15
Width: 467
GlyphClass: 2
Flags: W
LayerCount: 2
Fore
SplineSet
285 66 m 2,0,1
 274 -1 274 -1 259.5 -56 c 128,-1,2
 245 -111 245 -111 226 -157.5 c 128,-1,3
 207 -204 207 -204 184.5 -243 c 128,-1,4
 162 -282 162 -282 135 -317 c 1,5,-1
 -16 -317 l 1,6,7
 13 -282 13 -282 39 -243 c 128,-1,8
 65 -204 65 -204 86.5 -163 c 128,-1,9
 108 -122 108 -122 122.5 -81 c 128,-1,10
 137 -40 137 -40 144 0 c 1,11,-1
 38 0 l 1,12,-1
 86 305 l 1,13,-1
 323 305 l 1,14,-1
 285 66 l 2,0,1
EndSplineSet
EndChar

StartChar: hyphen
Encoding: 45 45 16
AltUni2: 0000ad.ffffffff.0 0000ad.ffffffff.0 0000ad.ffffffff.0 0000ad.ffffffff.0
Width: 559
GlyphClass: 2
Flags: W
LayerCount: 2
Fore
SplineSet
46 409 m 1,0,-1
 84 653 l 1,1,-1
 511 653 l 1,2,-1
 472 409 l 1,3,-1
 46 409 l 1,0,-1
EndSplineSet
EndChar

StartChar: period
Encoding: 46 46 17
Width: 467
GlyphClass: 2
Flags: W
LayerCount: 2
Fore
SplineSet
38 0 m 1,0,-1
 86 305 l 1,1,-1
 323 305 l 1,2,-1
 275 0 l 1,3,-1
 38 0 l 1,0,-1
EndSplineSet
EndChar

StartChar: slash
Encoding: 47 47 18
Width: 467
GlyphClass: 2
Flags: W
LayerCount: 2
Fore
SplineSet
-62 -41 m 1,0,-1
 419 1484 l 1,1,-1
 615 1484 l 1,2,-1
 136 -41 l 1,3,-1
 -62 -41 l 1,0,-1
EndSplineSet
EndChar

StartChar: zero
Encoding: 48 48 19
Width: 934
GlyphClass: 2
Flags: W
LayerCount: 2
Fore
SplineSet
594 1430 m 0,0,1
 662 1430 662 1430 721 1407.5 c 128,-1,2
 780 1385 780 1385 823.5 1331 c 128,-1,3
 867 1277 867 1277 892.5 1187.5 c 128,-1,4
 918 1098 918 1098 918 964 c 0,5,6
 918 901 918 901 910 829 c 128,-1,7
 902 757 902 757 886 665 c 0,8,9
 863 532 863 532 832 429 c 128,-1,10
 801 326 801 326 763 250 c 128,-1,11
 725 174 725 174 681.5 122.5 c 128,-1,12
 638 71 638 71 590.5 39 c 128,-1,13
 543 7 543 7 493 -6.5 c 128,-1,14
 443 -20 443 -20 392 -20 c 0,15,16
 315 -20 315 -20 255 6.5 c 128,-1,17
 195 33 195 33 153.5 90.5 c 128,-1,18
 112 148 112 148 91 238 c 128,-1,19
 70 328 70 328 70 454 c 0,20,21
 70 515 70 515 77 585 c 128,-1,22
 84 655 84 655 98 746 c 0,23,24
 120 887 120 887 152 993 c 128,-1,25
 184 1099 184 1099 223 1175 c 128,-1,26
 262 1251 262 1251 306.5 1300.5 c 128,-1,27
 351 1350 351 1350 398.5 1378.5 c 128,-1,28
 446 1407 446 1407 496 1418.5 c 128,-1,29
 546 1430 546 1430 594 1430 c 0,0,1
408 201 m 0,30,31
 453 201 453 201 490 224.5 c 128,-1,32
 527 248 527 248 558.5 304 c 128,-1,33
 590 360 590 360 615 453 c 128,-1,34
 640 546 640 546 661 685 c 0,35,36
 675 779 675 779 684.5 848.5 c 128,-1,37
 694 918 694 918 694 977 c 0,38,39
 694 1087 694 1087 664 1148.5 c 128,-1,40
 634 1210 634 1210 569 1210 c 0,41,42
 520 1210 520 1210 483 1186.5 c 128,-1,43
 446 1163 446 1163 417.5 1107.5 c 128,-1,44
 389 1052 389 1052 366.5 959 c 128,-1,45
 344 866 344 866 325 726 c 0,46,47
 313 639 313 639 303.5 556.5 c 128,-1,48
 294 474 294 474 294 415 c 0,49,50
 294 370 294 370 299 330.5 c 128,-1,51
 304 291 304 291 317 262.5 c 128,-1,52
 330 234 330 234 352.5 217.5 c 128,-1,53
 375 201 375 201 408 201 c 0,30,31
EndSplineSet
EndChar

StartChar: one
Encoding: 49 49 20
Width: 934
GlyphClass: 2
Flags: W
LayerCount: 2
Fore
SplineSet
27 0 m 1,0,-1
 62 231 l 1,1,-1
 349 231 l 1,2,-1
 495 1152 l 1,3,-1
 183 938 l 1,4,-1
 221 1180 l 1,5,-1
 546 1409 l 1,6,-1
 768 1409 l 1,7,-1
 579 231 l 1,8,-1
 844 231 l 1,9,-1
 808 0 l 1,10,-1
 27 0 l 1,0,-1
EndSplineSet
EndChar

StartChar: two
Encoding: 50 50 21
Width: 934
GlyphClass: 2
Flags: W
LayerCount: 2
Fore
SplineSet
-26 0 m 1,0,-1
 4 195 l 1,1,2
 43 278 43 278 93.5 346.5 c 128,-1,3
 144 415 144 415 198.5 473 c 128,-1,4
 253 531 253 531 310 581 c 2,5,-1
 421 677 l 1,6,-1
 522 766 l 1,7,8
 569 810 569 810 604 856.5 c 128,-1,9
 639 903 639 903 659.5 953.5 c 128,-1,10
 680 1004 680 1004 680 1063 c 0,11,12
 680 1103 680 1103 670 1130.5 c 128,-1,13
 660 1158 660 1158 642.5 1174.5 c 128,-1,14
 625 1191 625 1191 600.5 1198.5 c 128,-1,15
 576 1206 576 1206 547 1206 c 0,16,17
 515 1206 515 1206 487 1197 c 128,-1,18
 459 1188 459 1188 435.5 1167 c 128,-1,19
 412 1146 412 1146 394 1110.5 c 128,-1,20
 376 1075 376 1075 364 1022 c 1,21,-1
 146 1081 l 1,22,23
 166 1162 166 1162 199.5 1226.5 c 128,-1,24
 233 1291 233 1291 284 1336 c 128,-1,25
 335 1381 335 1381 404 1405.5 c 128,-1,26
 473 1430 473 1430 563 1430 c 0,27,28
 656 1430 656 1430 722.5 1405.5 c 128,-1,29
 789 1381 789 1381 832.5 1336 c 128,-1,30
 876 1291 876 1291 896.5 1227 c 128,-1,31
 917 1163 917 1163 917 1083 c 0,32,33
 917 1005 917 1005 896.5 939 c 128,-1,34
 876 873 876 873 840.5 816 c 128,-1,35
 805 759 805 759 759 709 c 128,-1,36
 713 659 713 659 660 613 c 2,37,-1
 554 522 l 1,38,39
 500 478 500 478 449.5 432 c 128,-1,40
 399 386 399 386 355.5 336.5 c 128,-1,41
 312 287 312 287 281 231 c 1,42,-1
 818 231 l 1,43,-1
 781 0 l 1,44,-1
 -26 0 l 1,0,-1
EndSplineSet
EndChar

StartChar: three
Encoding: 51 51 22
Width: 934
GlyphClass: 2
Flags: W
LayerCount: 2
Fore
SplineSet
439 829 m 2,0,1
 478 829 478 829 520.5 837 c 128,-1,2
 563 845 563 845 599 869 c 128,-1,3
 635 893 635 893 658 936.5 c 128,-1,4
 681 980 681 980 681 1051 c 0,5,6
 681 1123 681 1123 649.5 1164.5 c 128,-1,7
 618 1206 618 1206 553 1206 c 0,8,9
 478 1206 478 1206 429 1161 c 128,-1,10
 380 1116 380 1116 358 1022 c 1,11,-1
 139 1074 l 1,12,13
 161 1168 161 1168 200 1235.5 c 128,-1,14
 239 1303 239 1303 292 1346 c 128,-1,15
 345 1389 345 1389 413 1409.5 c 128,-1,16
 481 1430 481 1430 562 1430 c 0,17,18
 646 1430 646 1430 711.5 1406.5 c 128,-1,19
 777 1383 777 1383 822.5 1338.5 c 128,-1,20
 868 1294 868 1294 891.5 1230.5 c 128,-1,21
 915 1167 915 1167 915 1086 c 0,22,23
 915 1010 915 1010 895.5 947 c 128,-1,24
 876 884 876 884 838 837.5 c 128,-1,25
 800 791 800 791 745 762 c 128,-1,26
 690 733 690 733 619 725 c 1,27,-1
 618 721 l 1,28,29
 670 711 670 711 712 687.5 c 128,-1,30
 754 664 754 664 783.5 626 c 128,-1,31
 813 588 813 588 829 536 c 128,-1,32
 845 484 845 484 845 418 c 0,33,34
 845 331 845 331 817 251.5 c 128,-1,35
 789 172 789 172 735 111.5 c 128,-1,36
 681 51 681 51 601.5 15.5 c 128,-1,37
 522 -20 522 -20 419 -20 c 0,38,39
 317 -20 317 -20 243 7 c 128,-1,40
 169 34 169 34 120 82.5 c 128,-1,41
 71 131 71 131 45 197.5 c 128,-1,42
 19 264 19 264 13 343 c 1,43,-1
 244 381 l 1,44,45
 249 331 249 331 263.5 297.5 c 128,-1,46
 278 264 278 264 301.5 243.5 c 128,-1,47
 325 223 325 223 357.5 214.5 c 128,-1,48
 390 206 390 206 430 206 c 0,49,50
 476 206 476 206 510 222 c 128,-1,51
 544 238 544 238 566.5 266 c 128,-1,52
 589 294 589 294 600 332.5 c 128,-1,53
 611 371 611 371 611 416 c 0,54,55
 611 509 611 509 566.5 555.5 c 128,-1,56
 522 602 522 602 431 602 c 2,57,-1
 343 602 l 1,58,-1
 379 829 l 1,59,-1
 439 829 l 2,0,1
EndSplineSet
EndChar

StartChar: four
Encoding: 52 52 23
Width: 934
GlyphClass: 2
Flags: W
LayerCount: 2
Fore
SplineSet
717 286 m 1,0,-1
 672 0 l 1,1,-1
 453 0 l 1,2,-1
 497 286 l 1,3,-1
 -28 286 l 1,4,-1
 6 493 l 1,5,-1
 594 1409 l 1,6,-1
 897 1409 l 1,7,-1
 751 496 l 1,8,-1
 905 496 l 1,9,-1
 871 286 l 1,10,-1
 717 286 l 1,0,-1
615 1020 m 2,11,12
 617 1035 617 1035 622 1060 c 128,-1,13
 627 1085 627 1085 634 1112 c 2,14,-1
 646 1166 l 2,15,16
 652 1191 652 1191 656 1206 c 1,17,-1
 638 1172 l 1,18,-1
 614 1126 l 1,19,-1
 586 1078 l 2,20,21
 572 1054 572 1054 560 1036 c 2,22,-1
 212 496 l 1,23,-1
 531 496 l 1,24,-1
 615 1020 l 2,11,12
EndSplineSet
EndChar

StartChar: five
Encoding: 53 53 24
Width: 934
GlyphClass: 2
Flags: W
LayerCount: 2
Fore
SplineSet
259 1409 m 1,0,-1
 954 1409 l 1,1,-1
 918 1178 l 1,2,-1
 431 1178 l 1,3,-1
 360 844 l 1,4,5
 375 860 375 860 395 876 c 128,-1,6
 415 892 415 892 440.5 905 c 128,-1,7
 466 918 466 918 498 926 c 128,-1,8
 530 934 530 934 569 934 c 0,9,10
 633 934 633 934 688.5 907 c 128,-1,11
 744 880 744 880 785 827 c 128,-1,12
 826 774 826 774 849 696.5 c 128,-1,13
 872 619 872 619 872 518 c 0,14,15
 872 399 872 399 840.5 300 c 128,-1,16
 809 201 809 201 748 130 c 128,-1,17
 687 59 687 59 599 19.5 c 128,-1,18
 511 -20 511 -20 399 -20 c 0,19,20
 307 -20 307 -20 239.5 6.5 c 128,-1,21
 172 33 172 33 126 79.5 c 128,-1,22
 80 126 80 126 53 190 c 128,-1,23
 26 254 26 254 16 329 c 1,24,-1
 248 374 l 1,25,26
 255 332 255 332 266.5 300.5 c 128,-1,27
 278 269 278 269 297.5 248 c 128,-1,28
 317 227 317 227 346.5 216.5 c 128,-1,29
 376 206 376 206 418 206 c 0,30,31
 473 206 473 206 514.5 228 c 128,-1,32
 556 250 556 250 583.5 288.5 c 128,-1,33
 611 327 611 327 624.5 378 c 128,-1,34
 638 429 638 429 638 486 c 0,35,36
 638 544 638 544 626 586 c 128,-1,37
 614 628 614 628 593 655 c 128,-1,38
 572 682 572 682 544 694.5 c 128,-1,39
 516 707 516 707 483 707 c 0,40,41
 430 707 430 707 389.5 684 c 128,-1,42
 349 661 349 661 317 616 c 1,43,-1
 93 616 l 1,44,-1
 259 1409 l 1,0,-1
EndSplineSet
EndChar

StartChar: six
Encoding: 54 54 25
Width: 934
GlyphClass: 2
Flags: W
LayerCount: 2
Fore
SplineSet
437 -20 m 0,0,1
 349 -20 349 -20 282.5 14.5 c 128,-1,2
 216 49 216 49 170.5 114.5 c 128,-1,3
 125 180 125 180 101.5 274 c 128,-1,4
 78 368 78 368 78 487 c 0,5,6
 78 691 78 691 117 863.5 c 128,-1,7
 156 1036 156 1036 226 1162 c 128,-1,8
 296 1288 296 1288 394.5 1359 c 128,-1,9
 493 1430 493 1430 611 1430 c 0,10,11
 668 1430 668 1430 723.5 1415 c 128,-1,12
 779 1400 779 1400 825 1363 c 128,-1,13
 871 1326 871 1326 902.5 1263.5 c 128,-1,14
 934 1201 934 1201 943 1106 c 1,15,-1
 725 1065 l 1,16,17
 714 1138 714 1138 683.5 1173 c 128,-1,18
 653 1208 653 1208 599 1208 c 0,19,20
 505 1208 505 1208 435 1093 c 128,-1,21
 365 978 365 978 333 746 c 1,22,23
 376 818 376 818 443 862.5 c 128,-1,24
 510 907 510 907 595 907 c 0,25,26
 660 907 660 907 713 882.5 c 128,-1,27
 766 858 766 858 804 810.5 c 128,-1,28
 842 763 842 763 863 693.5 c 128,-1,29
 884 624 884 624 884 533 c 0,30,31
 884 422 884 422 852.5 322 c 128,-1,32
 821 222 821 222 762.5 146 c 128,-1,33
 704 70 704 70 621.5 25 c 128,-1,34
 539 -20 539 -20 437 -20 c 0,0,1
303 429 m 0,35,36
 303 324 303 324 343 262 c 128,-1,37
 383 200 383 200 458 200 c 0,38,39
 500 200 500 200 535 220 c 128,-1,40
 570 240 570 240 595.5 278.5 c 128,-1,41
 621 317 621 317 635 372.5 c 128,-1,42
 649 428 649 428 649 499 c 0,43,44
 649 551 649 551 638 589 c 128,-1,45
 627 627 627 627 607.5 651.5 c 128,-1,46
 588 676 588 676 561.5 688 c 128,-1,47
 535 700 535 700 503 700 c 0,48,49
 466 700 466 700 430 683 c 128,-1,50
 394 666 394 666 366 632.5 c 128,-1,51
 338 599 338 599 320.5 548 c 128,-1,52
 303 497 303 497 303 429 c 0,35,36
EndSplineSet
EndChar

StartChar: seven
Encoding: 55 55 26
Width: 934
GlyphClass: 2
Flags: W
LayerCount: 2
Fore
SplineSet
154 1409 m 1,0,-1
 1000 1409 l 1,1,-1
 964 1186 l 1,2,3
 964 1186 964 1186 831 992 c 1,4,-1
 710 810 l 1,5,6
 653 721 653 721 603.5 631 c 128,-1,7
 554 541 554 541 513 443 c 128,-1,8
 472 345 472 345 440 236 c 128,-1,9
 408 127 408 127 387 0 c 1,10,-1
 143 0 l 1,11,12
 172 182 172 182 228 335.5 c 128,-1,13
 284 489 284 489 360.5 629 c 128,-1,14
 437 769 437 769 532 902 c 1,15,-1
 732 1178 l 1,16,-1
 117 1178 l 1,17,-1
 154 1409 l 1,0,-1
EndSplineSet
EndChar

StartChar: eight
Encoding: 56 56 27
Width: 934
GlyphClass: 2
Flags: W
LayerCount: 2
Fore
SplineSet
580 1429 m 0,0,1
 663 1429 663 1429 728 1405 c 128,-1,2
 793 1381 793 1381 838 1337 c 128,-1,3
 883 1293 883 1293 907.5 1230.5 c 128,-1,4
 932 1168 932 1168 932 1091 c 0,5,6
 932 1024 932 1024 914 964.5 c 128,-1,7
 896 905 896 905 863 859.5 c 128,-1,8
 830 814 830 814 781.5 783.5 c 128,-1,9
 733 753 733 753 672 743 c 1,10,-1
 672 739 l 1,11,12
 714 724 714 724 748.5 697 c 128,-1,13
 783 670 783 670 807.5 631.5 c 128,-1,14
 832 593 832 593 846 543 c 128,-1,15
 860 493 860 493 860 432 c 0,16,17
 860 335 860 335 831.5 252.5 c 128,-1,18
 803 170 803 170 746 109.5 c 128,-1,19
 689 49 689 49 603.5 14.5 c 128,-1,20
 518 -20 518 -20 404 -20 c 0,21,22
 306 -20 306 -20 234 8.5 c 128,-1,23
 162 37 162 37 115 88 c 128,-1,24
 68 139 68 139 45 208.5 c 128,-1,25
 22 278 22 278 22 360 c 0,26,27
 22 453 22 453 49.5 518.5 c 128,-1,28
 77 584 77 584 120 628.5 c 128,-1,29
 163 673 163 673 215 699 c 128,-1,30
 267 725 267 725 317 737 c 1,31,-1
 317 741 l 1,32,33
 242 782 242 782 202.5 862.5 c 128,-1,34
 163 943 163 943 163 1052 c 0,35,36
 163 1139 163 1139 191.5 1209 c 128,-1,37
 220 1279 220 1279 273.5 1327.5 c 128,-1,38
 327 1376 327 1376 404.5 1402.5 c 128,-1,39
 482 1429 482 1429 580 1429 c 0,0,1
531 840 m 0,40,41
 580 840 580 840 612.5 861.5 c 128,-1,42
 645 883 645 883 664 916 c 128,-1,43
 683 949 683 949 690.5 988.5 c 128,-1,44
 698 1028 698 1028 698 1064 c 0,45,46
 698 1144 698 1144 663.5 1188 c 128,-1,47
 629 1232 629 1232 557 1232 c 0,48,49
 522 1232 522 1232 491.5 1219.5 c 128,-1,50
 461 1207 461 1207 438.5 1181 c 128,-1,51
 416 1155 416 1155 403 1115 c 128,-1,52
 390 1075 390 1075 390 1020 c 0,53,54
 390 988 390 988 396.5 955.5 c 128,-1,55
 403 923 403 923 419 897.5 c 128,-1,56
 435 872 435 872 462 856 c 128,-1,57
 489 840 489 840 531 840 c 0,40,41
460 640 m 0,58,59
 411 640 411 640 373.5 621 c 128,-1,60
 336 602 336 602 311 567.5 c 128,-1,61
 286 533 286 533 273 484.5 c 128,-1,62
 260 436 260 436 260 377 c 0,63,64
 260 334 260 334 270 297.5 c 128,-1,65
 280 261 280 261 300.5 234.5 c 128,-1,66
 321 208 321 208 352.5 193 c 128,-1,67
 384 178 384 178 426 178 c 0,68,69
 467 178 467 178 503 195 c 128,-1,70
 539 212 539 212 565.5 245.5 c 128,-1,71
 592 279 592 279 607.5 328.5 c 128,-1,72
 623 378 623 378 623 444 c 0,73,74
 623 481 623 481 615.5 516 c 128,-1,75
 608 551 608 551 588.5 578.5 c 128,-1,76
 569 606 569 606 538 623 c 128,-1,77
 507 640 507 640 460 640 c 0,58,59
EndSplineSet
EndChar

StartChar: nine
Encoding: 57 57 28
Width: 934
GlyphClass: 2
Flags: W
LayerCount: 2
Fore
SplineSet
670 653 m 1,0,1
 645 616 645 616 617.5 588 c 128,-1,2
 590 560 590 560 558.5 541 c 128,-1,3
 527 522 527 522 490.5 512.5 c 128,-1,4
 454 503 454 503 410 503 c 0,5,6
 343 503 343 503 289 531.5 c 128,-1,7
 235 560 235 560 198 611.5 c 128,-1,8
 161 663 161 663 141 735 c 128,-1,9
 121 807 121 807 121 893 c 0,10,11
 121 1006 121 1006 154 1104 c 128,-1,12
 187 1202 187 1202 246 1274.5 c 128,-1,13
 305 1347 305 1347 387 1388.5 c 128,-1,14
 469 1430 469 1430 567 1430 c 0,15,16
 645 1430 645 1430 711 1399 c 128,-1,17
 777 1368 777 1368 824.5 1307.5 c 128,-1,18
 872 1247 872 1247 899.5 1159 c 128,-1,19
 927 1071 927 1071 927 957 c 0,20,21
 927 930 927 930 925 896 c 128,-1,22
 923 862 923 862 920.5 825.5 c 128,-1,23
 918 789 918 789 913.5 751 c 128,-1,24
 909 713 909 713 903 679 c 0,25,26
 872 491 872 491 819.5 358 c 128,-1,27
 767 225 767 225 700 141 c 128,-1,28
 633 57 633 57 554.5 18.5 c 128,-1,29
 476 -20 476 -20 393 -20 c 0,30,31
 323 -20 323 -20 263 0 c 128,-1,32
 203 20 203 20 157.5 61.5 c 128,-1,33
 112 103 112 103 81.5 165 c 128,-1,34
 51 227 51 227 39 311 c 1,35,-1
 264 359 l 1,36,37
 275 284 275 284 309.5 243 c 128,-1,38
 344 202 344 202 408 202 c 0,39,40
 444 202 444 202 481.5 221.5 c 128,-1,41
 519 241 519 241 554 291.5 c 128,-1,42
 589 342 589 342 619 429.5 c 128,-1,43
 649 517 649 517 670 653 c 1,0,1
701 1009 m 0,44,45
 701 1051 701 1051 691 1087.5 c 128,-1,46
 681 1124 681 1124 661.5 1151.5 c 128,-1,47
 642 1179 642 1179 615.5 1194.5 c 128,-1,48
 589 1210 589 1210 556 1210 c 0,49,50
 512 1210 512 1210 475 1190 c 128,-1,51
 438 1170 438 1170 411.5 1130.5 c 128,-1,52
 385 1091 385 1091 369.5 1033 c 128,-1,53
 354 975 354 975 354 900 c 0,54,55
 354 855 354 855 365 819.5 c 128,-1,56
 376 784 376 784 395.5 759.5 c 128,-1,57
 415 735 415 735 442 722.5 c 128,-1,58
 469 710 469 710 501 710 c 0,59,60
 532 710 532 710 563 720.5 c 128,-1,61
 594 731 594 731 620 756 c 128,-1,62
 646 781 646 781 666 821 c 128,-1,63
 686 861 686 861 695 920 c 0,64,65
 698 944 698 944 699.5 966 c 128,-1,66
 701 988 701 988 701 1009 c 0,44,45
EndSplineSet
EndChar

StartChar: colon
Encoding: 58 58 29
Width: 559
GlyphClass: 2
Flags: W
LayerCount: 2
Fore
SplineSet
193 752 m 1,0,-1
 238 1034 l 1,1,-1
 474 1034 l 1,2,-1
 429 752 l 1,3,-1
 193 752 l 1,0,-1
73 0 m 1,4,-1
 118 281 l 1,5,-1
 354 281 l 1,6,-1
 309 0 l 1,7,-1
 73 0 l 1,4,-1
EndSplineSet
EndChar

StartChar: semicolon
Encoding: 59 59 30
AltUni2: 00037e.ffffffff.0 00037e.ffffffff.0 00037e.ffffffff.0 00037e.ffffffff.0
Width: 559
GlyphClass: 2
Flags: W
LayerCount: 2
Fore
SplineSet
193 752 m 1,0,-1
 238 1034 l 1,1,-1
 474 1034 l 1,2,-1
 429 752 l 1,3,-1
 193 752 l 1,0,-1
320 66 m 2,4,5
 309 -1 309 -1 294.5 -56 c 128,-1,6
 280 -111 280 -111 261 -157.5 c 128,-1,7
 242 -204 242 -204 219 -243 c 128,-1,8
 196 -282 196 -282 170 -317 c 1,9,-1
 19 -317 l 1,10,11
 48 -282 48 -282 74 -243 c 128,-1,12
 100 -204 100 -204 121.5 -163 c 128,-1,13
 143 -122 143 -122 157.5 -81 c 128,-1,14
 172 -40 172 -40 179 0 c 1,15,-1
 73 0 l 1,16,-1
 118 281 l 1,17,-1
 354 281 l 1,18,-1
 320 66 l 2,4,5
EndSplineSet
EndChar

StartChar: less
Encoding: 60 60 31
Width: 981
GlyphClass: 2
Flags: W
LayerCount: 2
Fore
SplineSet
102 516 m 1,0,-1
 102 838 l 1,1,-1
 944 1229 l 1,2,-1
 944 1001 l 1,3,-1
 261 676 l 1,4,-1
 944 352 l 1,5,-1
 944 125 l 1,6,-1
 102 516 l 1,0,-1
EndSplineSet
EndChar

StartChar: equal
Encoding: 61 61 32
Width: 981
GlyphClass: 2
Flags: W
LayerCount: 2
Fore
SplineSet
101 842 m 1,0,-1
 101 1065 l 1,1,-1
 943 1065 l 1,2,-1
 943 842 l 1,3,-1
 101 842 l 1,0,-1
101 291 m 1,4,-1
 101 512 l 1,5,-1
 943 512 l 1,6,-1
 943 291 l 1,7,-1
 101 291 l 1,4,-1
EndSplineSet
EndChar

StartChar: greater
Encoding: 62 62 33
Width: 981
GlyphClass: 2
Flags: W
LayerCount: 2
Fore
SplineSet
102 125 m 1,0,-1
 102 352 l 1,1,-1
 784 676 l 1,2,-1
 102 1001 l 1,3,-1
 102 1229 l 1,4,-1
 944 838 l 1,5,-1
 944 516 l 1,6,-1
 102 125 l 1,0,-1
EndSplineSet
EndChar

StartChar: question
Encoding: 63 63 34
Width: 1026
GlyphClass: 2
Flags: W
LayerCount: 2
Fore
SplineSet
611 1430 m 0,0,1
 696 1430 696 1430 766.5 1406.5 c 128,-1,2
 837 1383 837 1383 887 1338 c 128,-1,3
 937 1293 937 1293 964.5 1227 c 128,-1,4
 992 1161 992 1161 992 1075 c 256,5,6
 992 989 992 989 965 923.5 c 128,-1,7
 938 858 938 858 895 806 c 128,-1,8
 852 754 852 754 798.5 713 c 128,-1,9
 745 672 745 672 690 635 c 1,10,11
 690 635 690 635 638 592 c 0,12,13
 613 571 613 571 594 547 c 128,-1,14
 575 523 575 523 562.5 494 c 128,-1,15
 550 465 550 465 546 426 c 1,16,-1
 327 426 l 1,17,18
 338 496 338 496 359 547.5 c 128,-1,19
 380 599 380 599 410 639.5 c 128,-1,20
 440 680 440 680 479 714 c 128,-1,21
 518 748 518 748 566 784 c 0,22,23
 623 827 623 827 660 860 c 128,-1,24
 697 893 697 893 719 923.5 c 128,-1,25
 741 954 741 954 750 985 c 128,-1,26
 759 1016 759 1016 759 1055 c 0,27,28
 759 1118 759 1118 720 1159.5 c 128,-1,29
 681 1201 681 1201 598 1201 c 0,30,31
 508 1201 508 1201 449.5 1154.5 c 128,-1,32
 391 1108 391 1108 369 1008 c 1,33,-1
 151 1048 l 1,34,35
 173 1136 173 1136 210.5 1206.5 c 128,-1,36
 248 1277 248 1277 305 1326.5 c 128,-1,37
 362 1376 362 1376 437.5 1403 c 128,-1,38
 513 1430 513 1430 611 1430 c 0,0,1
253 0 m 1,39,-1
 296 270 l 1,40,-1
 533 270 l 1,41,-1
 490 0 l 1,42,-1
 253 0 l 1,39,-1
EndSplineSet
EndChar

StartChar: at
Encoding: 64 64 35
Width: 1638
GlyphClass: 2
Flags: W
LayerCount: 2
Fore
SplineSet
1567 755 m 0,0,1
 1567 611 1567 611 1536 491.5 c 128,-1,2
 1505 372 1505 372 1451.5 286 c 128,-1,3
 1398 200 1398 200 1326 152 c 128,-1,4
 1254 104 1254 104 1173 104 c 0,5,6
 1139 104 1139 104 1109.5 114.5 c 128,-1,7
 1080 125 1080 125 1059.5 146.5 c 128,-1,8
 1039 168 1039 168 1027.5 200.5 c 128,-1,9
 1016 233 1016 233 1016 276 c 0,10,11
 1016 290 1016 290 1017.5 309 c 128,-1,12
 1019 328 1019 328 1021 343 c 1,13,-1
 1016 343 l 1,14,15
 999 299 999 299 970.5 256 c 128,-1,16
 942 213 942 213 904.5 179.5 c 128,-1,17
 867 146 867 146 822.5 125 c 128,-1,18
 778 104 778 104 729 104 c 0,19,20
 651 104 651 104 599 138 c 128,-1,21
 547 172 547 172 516 227 c 128,-1,22
 485 282 485 282 472 351 c 128,-1,23
 459 420 459 420 459 489 c 0,24,25
 459 604 459 604 486.5 714 c 128,-1,26
 514 824 514 824 566.5 910 c 128,-1,27
 619 996 619 996 695.5 1048.5 c 128,-1,28
 772 1101 772 1101 869 1101 c 0,29,30
 953 1101 953 1101 1006 1054.5 c 128,-1,31
 1059 1008 1059 1008 1085 927 c 1,32,-1
 1090 927 l 1,33,-1
 1122 1079 l 1,34,-1
 1250 1079 l 1,35,-1
 1154 573 l 2,36,37
 1140 494 1140 494 1132 432 c 128,-1,38
 1124 370 1124 370 1124 333 c 0,39,40
 1124 283 1124 283 1143 262 c 128,-1,41
 1162 241 1162 241 1188 241 c 0,42,43
 1236 241 1236 241 1281.5 279 c 128,-1,44
 1327 317 1327 317 1363 385 c 128,-1,45
 1399 453 1399 453 1421 547 c 128,-1,46
 1443 641 1443 641 1443 753 c 0,47,48
 1443 879 1443 879 1409.5 987 c 128,-1,49
 1376 1095 1376 1095 1310 1174 c 128,-1,50
 1244 1253 1244 1253 1147.5 1298 c 128,-1,51
 1051 1343 1051 1343 924 1343 c 0,52,53
 815 1343 815 1343 723.5 1311.5 c 128,-1,54
 632 1280 632 1280 557.5 1223 c 128,-1,55
 483 1166 483 1166 427 1087 c 128,-1,56
 371 1008 371 1008 332.5 913.5 c 128,-1,57
 294 819 294 819 275 712 c 128,-1,58
 256 605 256 605 256 491 c 0,59,60
 256 404 256 404 270 322.5 c 128,-1,61
 284 241 284 241 312 170 c 128,-1,62
 340 99 340 99 383.5 40 c 128,-1,63
 427 -19 427 -19 485 -61 c 128,-1,64
 543 -103 543 -103 617 -126.5 c 128,-1,65
 691 -150 691 -150 782 -150 c 0,66,67
 853 -150 853 -150 918 -138 c 128,-1,68
 983 -126 983 -126 1043.5 -105 c 128,-1,69
 1104 -84 1104 -84 1159.5 -55.5 c 128,-1,70
 1215 -27 1215 -27 1265 5 c 1,71,-1
 1316 -117 l 1,72,73
 1267 -151 1267 -151 1210 -183 c 128,-1,74
 1153 -215 1153 -215 1086.5 -239.5 c 128,-1,75
 1020 -264 1020 -264 943 -279 c 128,-1,76
 866 -294 866 -294 776 -294 c 0,77,78
 669 -294 669 -294 579 -265.5 c 128,-1,79
 489 -237 489 -237 416.5 -185.5 c 128,-1,80
 344 -134 344 -134 289 -62 c 128,-1,81
 234 10 234 10 197 97 c 128,-1,82
 160 184 160 184 141.5 284 c 128,-1,83
 123 384 123 384 123 491 c 0,84,85
 123 630 123 630 149 758 c 128,-1,86
 175 886 175 886 223.5 996 c 128,-1,87
 272 1106 272 1106 342.5 1196 c 128,-1,88
 413 1286 413 1286 502 1350 c 128,-1,89
 591 1414 591 1414 697 1449 c 128,-1,90
 803 1484 803 1484 923 1484 c 0,91,92
 1090 1484 1090 1484 1211.5 1425 c 128,-1,93
 1333 1366 1333 1366 1412 1266 c 128,-1,94
 1491 1166 1491 1166 1529 1034 c 128,-1,95
 1567 902 1567 902 1567 755 c 0,0,1
1037 751 m 0,96,97
 1037 798 1037 798 1024 837.5 c 128,-1,98
 1011 877 1011 877 988 905.5 c 128,-1,99
 965 934 965 934 933 950 c 128,-1,100
 901 966 901 966 862 966 c 0,101,102
 817 966 817 966 779 945.5 c 128,-1,103
 741 925 741 925 711.5 890 c 128,-1,104
 682 855 682 855 660 808.5 c 128,-1,105
 638 762 638 762 623.5 709 c 128,-1,106
 609 656 609 656 602 600 c 128,-1,107
 595 544 595 544 595 491 c 0,108,109
 595 377 595 377 634.5 311 c 128,-1,110
 674 245 674 245 756 245 c 0,111,112
 795 245 795 245 834.5 268 c 128,-1,113
 874 291 874 291 908 335.5 c 128,-1,114
 942 380 942 380 970.5 445.5 c 128,-1,115
 999 511 999 511 1016 595 c 0,116,117
 1020 613 1020 613 1024 634.5 c 128,-1,118
 1028 656 1028 656 1030.5 677 c 128,-1,119
 1033 698 1033 698 1035 717 c 128,-1,120
 1037 736 1037 736 1037 751 c 0,96,97
EndSplineSet
EndChar

StartChar: A
Encoding: 65 65 36
Width: 1212
GlyphClass: 2
Flags: W
LayerCount: 2
Fore
SplineSet
851 0 m 1,0,-1
 806 360 l 1,1,-1
 366 360 l 1,2,-1
 207 0 l 1,3,-1
 -34 0 l 1,4,-1
 611 1409 l 1,5,-1
 896 1409 l 1,6,-1
 1091 0 l 1,7,-1
 851 0 l 1,0,-1
733 1034 m 2,8,9
 731 1049 731 1049 728 1072 c 2,10,-1
 724 1118 l 2,11,12
 721 1141 721 1141 719.5 1161.5 c 128,-1,13
 718 1182 718 1182 718 1192 c 1,14,15
 715 1180 715 1180 706 1156 c 2,16,-1
 686 1101 l 2,17,18
 675 1071 675 1071 662 1039 c 2,19,-1
 638 980 l 1,20,-1
 464 582 l 1,21,-1
 788 582 l 1,22,-1
 733 1034 l 2,8,9
EndSplineSet
EndChar

StartChar: B
Encoding: 66 66 37
Width: 1212
GlyphClass: 2
Flags: W
LayerCount: 2
Fore
SplineSet
254 1409 m 1,0,-1
 733 1409 l 2,1,2
 840 1409 840 1409 918 1387 c 128,-1,3
 996 1365 996 1365 1048 1323 c 128,-1,4
 1100 1281 1100 1281 1125 1220.5 c 128,-1,5
 1150 1160 1150 1160 1150 1083 c 0,6,7
 1150 1010 1150 1010 1131 952.5 c 128,-1,8
 1112 895 1112 895 1077 852.5 c 128,-1,9
 1042 810 1042 810 993 781.5 c 128,-1,10
 944 753 944 753 884 738 c 1,11,12
 942 726 942 726 986.5 698 c 128,-1,13
 1031 670 1031 670 1061 629.5 c 128,-1,14
 1091 589 1091 589 1106 538.5 c 128,-1,15
 1121 488 1121 488 1121 431 c 0,16,17
 1121 306 1121 306 1079.5 223 c 128,-1,18
 1038 140 1038 140 968 90.5 c 128,-1,19
 898 41 898 41 804.5 20.5 c 128,-1,20
 711 0 711 0 607 0 c 2,21,-1
 30 0 l 1,22,-1
 254 1409 l 1,0,-1
405 841 m 1,23,-1
 646 841 l 2,24,25
 717 841 717 841 767.5 852 c 128,-1,26
 818 863 818 863 849.5 887 c 128,-1,27
 881 911 881 911 895.5 948.5 c 128,-1,28
 910 986 910 986 910 1038 c 0,29,30
 910 1082 910 1082 896.5 1111.5 c 128,-1,31
 883 1141 883 1141 857 1158.5 c 128,-1,32
 831 1176 831 1176 793 1183 c 128,-1,33
 755 1190 755 1190 706 1190 c 2,34,-1
 460 1190 l 1,35,-1
 405 841 l 1,23,-1
306 219 m 1,36,-1
 574 219 l 2,37,38
 652 219 652 219 709.5 229 c 128,-1,39
 767 239 767 239 804.5 264 c 128,-1,40
 842 289 842 289 860 331 c 128,-1,41
 878 373 878 373 878 437 c 0,42,43
 878 527 878 527 822.5 575 c 128,-1,44
 767 623 767 623 641 623 c 2,45,-1
 370 623 l 1,46,-1
 306 219 l 1,36,-1
EndSplineSet
EndChar

StartChar: C
Encoding: 67 67 38
Width: 1212
GlyphClass: 2
Flags: W
LayerCount: 2
Fore
SplineSet
329 573 m 0,0,1
 329 489 329 489 346 422 c 128,-1,2
 363 355 363 355 397 308 c 128,-1,3
 431 261 431 261 481.5 236 c 128,-1,4
 532 211 532 211 599 211 c 0,5,6
 663 211 663 211 715.5 232 c 128,-1,7
 768 253 768 253 810 289 c 128,-1,8
 852 325 852 325 884.5 371.5 c 128,-1,9
 917 418 917 418 942 469 c 1,10,-1
 1128 352 l 1,11,12
 1093 276 1093 276 1043.5 208 c 128,-1,13
 994 140 994 140 927.5 89.5 c 128,-1,14
 861 39 861 39 776 9.5 c 128,-1,15
 691 -20 691 -20 583 -20 c 0,16,17
 454 -20 454 -20 359.5 26 c 128,-1,18
 265 72 265 72 203.5 151.5 c 128,-1,19
 142 231 142 231 112 338.5 c 128,-1,20
 82 446 82 446 82 569 c 0,21,22
 82 693 82 693 103.5 805 c 128,-1,23
 125 917 125 917 165.5 1012.5 c 128,-1,24
 206 1108 206 1108 265 1185.5 c 128,-1,25
 324 1263 324 1263 399 1317 c 128,-1,26
 474 1371 474 1371 565 1400.5 c 128,-1,27
 656 1430 656 1430 760 1430 c 0,28,29
 872 1430 872 1430 953.5 1398 c 128,-1,30
 1035 1366 1035 1366 1091.5 1312 c 128,-1,31
 1148 1258 1148 1258 1181.5 1187 c 128,-1,32
 1215 1116 1215 1116 1232 1038 c 1,33,-1
 1007 967 l 1,34,35
 997 1011 997 1011 977 1052.5 c 128,-1,36
 957 1094 957 1094 926 1126.5 c 128,-1,37
 895 1159 895 1159 851.5 1178.5 c 128,-1,38
 808 1198 808 1198 752 1198 c 0,39,40
 649 1198 649 1198 570 1152.5 c 128,-1,41
 491 1107 491 1107 437.5 1024.5 c 128,-1,42
 384 942 384 942 356.5 827 c 128,-1,43
 329 712 329 712 329 573 c 0,0,1
EndSplineSet
EndChar

StartChar: D
Encoding: 68 68 39
Width: 1212
GlyphClass: 2
Flags: W
LayerCount: 2
Fore
SplineSet
601 1409 m 2,0,1
 735 1409 735 1409 839.5 1371 c 128,-1,2
 944 1333 944 1333 1016 1257.5 c 128,-1,3
 1088 1182 1088 1182 1126 1069.5 c 128,-1,4
 1164 957 1164 957 1164 807 c 0,5,6
 1164 674 1164 674 1139 562.5 c 128,-1,7
 1114 451 1114 451 1069.5 361.5 c 128,-1,8
 1025 272 1025 272 963 204.5 c 128,-1,9
 901 137 901 137 828 91.5 c 128,-1,10
 755 46 755 46 672 23 c 128,-1,11
 589 0 589 0 503 0 c 2,12,-1
 30 0 l 1,13,-1
 254 1409 l 1,14,-1
 601 1409 l 2,0,1
307 228 m 1,15,-1
 496 228 l 2,16,17
 591 228 591 228 672 265 c 128,-1,18
 753 302 753 302 812 373.5 c 128,-1,19
 871 445 871 445 904.5 550.5 c 128,-1,20
 938 656 938 656 938 794 c 0,21,22
 938 892 938 892 915 964.5 c 128,-1,23
 892 1037 892 1037 849 1085 c 128,-1,24
 806 1133 806 1133 744 1157 c 128,-1,25
 682 1181 682 1181 603 1181 c 2,26,-1
 459 1181 l 1,27,-1
 307 228 l 1,15,-1
EndSplineSet
EndChar

StartChar: E
Encoding: 69 69 40
Width: 1120
GlyphClass: 2
Flags: W
LayerCount: 2
Fore
SplineSet
30 0 m 1,0,-1
 253 1409 l 1,1,-1
 1162 1409 l 1,2,-1
 1126 1181 l 1,3,-1
 459 1181 l 1,4,-1
 403 827 l 1,5,-1
 1019 827 l 1,6,-1
 983 599 l 1,7,-1
 366 599 l 1,8,-1
 307 228 l 1,9,-1
 1008 228 l 1,10,-1
 971 0 l 1,11,-1
 30 0 l 1,0,-1
EndSplineSet
EndChar

StartChar: F
Encoding: 70 70 41
Width: 1026
GlyphClass: 2
Flags: W
LayerCount: 2
Fore
SplineSet
459 1181 m 1,0,-1
 390 745 l 1,1,-1
 937 745 l 1,2,-1
 901 517 l 1,3,-1
 353 517 l 1,4,-1
 271 0 l 1,5,-1
 30 0 l 1,6,-1
 253 1409 l 1,7,-1
 1062 1409 l 1,8,-1
 1026 1181 l 1,9,-1
 459 1181 l 1,0,-1
EndSplineSet
EndChar

StartChar: G
Encoding: 71 71 42
Width: 1307
GlyphClass: 2
Flags: W
LayerCount: 2
Fore
SplineSet
1149 175 m 1,0,1
 1094 129 1094 129 1036 92.5 c 128,-1,2
 978 56 978 56 912.5 31.5 c 128,-1,3
 847 7 847 7 772 -6 c 128,-1,4
 697 -19 697 -19 607 -19 c 0,5,6
 474 -19 474 -19 375 26.5 c 128,-1,7
 276 72 276 72 211 152 c 128,-1,8
 146 232 146 232 114 342.5 c 128,-1,9
 82 453 82 453 82 583 c 0,10,11
 82 771 82 771 130.5 927 c 128,-1,12
 179 1083 179 1083 269 1195 c 128,-1,13
 359 1307 359 1307 487 1368.5 c 128,-1,14
 615 1430 615 1430 773 1430 c 0,15,16
 880 1430 880 1430 962 1398 c 128,-1,17
 1044 1366 1044 1366 1103.5 1312 c 128,-1,18
 1163 1258 1163 1258 1200 1187.5 c 128,-1,19
 1237 1117 1237 1117 1255 1039 c 1,20,-1
 1024 961 l 1,21,22
 1014 1007 1014 1007 994 1050 c 128,-1,23
 974 1093 974 1093 942 1126 c 128,-1,24
 910 1159 910 1159 865 1178.5 c 128,-1,25
 820 1198 820 1198 760 1198 c 0,26,27
 656 1198 656 1198 575 1152 c 128,-1,28
 494 1106 494 1106 439 1025 c 128,-1,29
 384 944 384 944 355.5 833 c 128,-1,30
 327 722 327 722 327 592 c 0,31,32
 327 515 327 515 344 446 c 128,-1,33
 361 377 361 377 397 324.5 c 128,-1,34
 433 272 433 272 490 241.5 c 128,-1,35
 547 211 547 211 627 211 c 0,36,37
 678 211 678 211 724 219 c 128,-1,38
 770 227 770 227 810 240.5 c 128,-1,39
 850 254 850 254 883 271 c 128,-1,40
 916 288 916 288 942 307 c 1,41,-1
 980 535 l 1,42,-1
 699 535 l 1,43,-1
 731 743 l 1,44,-1
 1235 743 l 1,45,-1
 1149 175 l 1,0,1
EndSplineSet
EndChar

StartChar: H
Encoding: 72 72 43
Width: 1212
GlyphClass: 2
Flags: W
LayerCount: 2
Fore
SplineSet
783 0 m 1,0,-1
 880 604 l 1,1,-1
 367 604 l 1,2,-1
 270 0 l 1,3,-1
 30 0 l 1,4,-1
 253 1409 l 1,5,-1
 495 1409 l 1,6,-1
 406 848 l 1,7,-1
 919 848 l 1,8,-1
 1008 1409 l 1,9,-1
 1241 1409 l 1,10,-1
 1016 0 l 1,11,-1
 783 0 l 1,0,-1
EndSplineSet
EndChar

StartChar: I
Encoding: 73 73 44
Width: 467
GlyphClass: 2
Flags: W
LayerCount: 2
Fore
SplineSet
30 0 m 1,0,-1
 254 1409 l 1,1,-1
 496 1409 l 1,2,-1
 271 0 l 1,3,-1
 30 0 l 1,0,-1
EndSplineSet
EndChar

StartChar: J
Encoding: 74 74 45
Width: 934
GlyphClass: 2
Flags: W
LayerCount: 2
Fore
SplineSet
394 -20 m 0,0,1
 308 -20 308 -20 244 8 c 128,-1,2
 180 36 180 36 134.5 87.5 c 128,-1,3
 89 139 89 139 61.5 213 c 128,-1,4
 34 287 34 287 20 379 c 1,5,-1
 239 437 l 1,6,7
 247 388 247 388 261 346.5 c 128,-1,8
 275 305 275 305 295 275 c 128,-1,9
 315 245 315 245 343 228 c 128,-1,10
 371 211 371 211 409 211 c 0,11,12
 450 211 450 211 477 230 c 128,-1,13
 504 249 504 249 522 280.5 c 128,-1,14
 540 312 540 312 550.5 353.5 c 128,-1,15
 561 395 561 395 568 440 c 2,16,-1
 686 1178 l 1,17,-1
 455 1178 l 1,18,-1
 491 1409 l 1,19,-1
 963 1409 l 1,20,-1
 804 423 l 2,21,22
 787 314 787 314 756 231.5 c 128,-1,23
 725 149 725 149 675.5 93 c 128,-1,24
 626 37 626 37 557 8.5 c 128,-1,25
 488 -20 488 -20 394 -20 c 0,0,1
EndSplineSet
EndChar

StartChar: K
Encoding: 75 75 46
Width: 1212
GlyphClass: 2
Flags: W
LayerCount: 2
Fore
SplineSet
815 0 m 1,0,-1
 524 640 l 1,1,-1
 352 517 l 1,2,-1
 269 0 l 1,3,-1
 30 0 l 1,4,-1
 253 1409 l 1,5,-1
 495 1409 l 1,6,-1
 388 770 l 1,7,-1
 1011 1409 l 1,8,-1
 1314 1409 l 1,9,-1
 701 793 l 1,10,-1
 1083 0 l 1,11,-1
 815 0 l 1,0,-1
EndSplineSet
EndChar

StartChar: L
Encoding: 76 76 47
Width: 1026
GlyphClass: 2
Flags: W
LayerCount: 2
Fore
SplineSet
30 0 m 1,0,-1
 253 1409 l 1,1,-1
 495 1409 l 1,2,-1
 308 228 l 1,3,-1
 928 228 l 1,4,-1
 891 0 l 1,5,-1
 30 0 l 1,0,-1
EndSplineSet
EndChar

StartChar: M
Encoding: 77 77 48
Width: 1399
GlyphClass: 2
Flags: W
LayerCount: 2
Fore
SplineSet
989 0 m 1,0,-1
 1130 884 l 2,1,2
 1139 939 1139 939 1150 996 c 2,3,-1
 1169 1099 l 1,4,5
 1169 1099 1169 1099 1191 1206 c 1,6,7
 1191 1206 1191 1206 1134 1055 c 0,8,9
 1123 1024 1123 1024 1110 991 c 2,10,-1
 1085 926 l 1,11,-1
 1062 866 l 1,12,-1
 1041 816 l 1,13,-1
 703 0 l 1,14,-1
 531 0 l 1,15,-1
 453 819 l 2,16,17
 451 838 451 838 449 864.5 c 128,-1,18
 447 891 447 891 444 922 c 2,19,-1
 438 986 l 2,20,21
 435 1019 435 1019 433 1050 c 0,22,23
 427 1124 427 1124 421 1206 c 1,24,-1
 409 1086 l 2,25,26
 407 1061 407 1061 404 1034 c 2,27,-1
 398 981 l 1,28,-1
 392 931 l 2,29,30
 389 907 389 907 385 887 c 2,31,-1
 244 0 l 1,32,-1
 30 0 l 1,33,-1
 254 1409 l 1,34,-1
 578 1409 l 1,35,-1
 650 621 l 2,36,37
 653 590 653 590 656.5 543.5 c 128,-1,38
 660 497 660 497 663 452 c 0,39,40
 666 400 666 400 671 345 c 1,41,-1
 711 451 l 2,42,43
 727 495 727 495 746 540 c 2,44,-1
 777 616 l 1,45,-1
 1106 1409 l 1,46,-1
 1429 1409 l 1,47,-1
 1204 0 l 1,48,-1
 989 0 l 1,0,-1
EndSplineSet
EndChar

StartChar: N
Encoding: 78 78 49
Width: 1212
GlyphClass: 2
Flags: W
LayerCount: 2
Fore
SplineSet
724 0 m 1,0,-1
 418 1131 l 1,1,2
 418 1131 418 1131 408 1046 c 0,3,4
 404 1010 404 1010 398.5 968.5 c 128,-1,5
 393 927 393 927 387 892 c 2,6,-1
 244 0 l 1,7,-1
 30 0 l 1,8,-1
 254 1409 l 1,9,-1
 541 1409 l 1,10,-1
 850 268 l 1,11,12
 850 268 850 268 860 350 c 0,13,14
 864 387 864 387 870 432.5 c 128,-1,15
 876 478 876 478 883 524 c 2,16,-1
 1026 1409 l 1,17,-1
 1241 1409 l 1,18,-1
 1016 0 l 1,19,-1
 724 0 l 1,0,-1
EndSplineSet
EndChar

StartChar: O
Encoding: 79 79 50
Width: 1307
GlyphClass: 2
Flags: W
LayerCount: 2
Fore
SplineSet
761 1430 m 0,0,1
 882 1430 882 1430 978.5 1389.5 c 128,-1,2
 1075 1349 1075 1349 1142 1273.5 c 128,-1,3
 1209 1198 1209 1198 1244 1091 c 128,-1,4
 1279 984 1279 984 1279 851 c 0,5,6
 1279 802 1279 802 1275 749.5 c 128,-1,7
 1271 697 1271 697 1263 649 c 0,8,9
 1238 495 1238 495 1180 371.5 c 128,-1,10
 1122 248 1122 248 1036.5 161 c 128,-1,11
 951 74 951 74 840 27 c 128,-1,12
 729 -20 729 -20 596 -20 c 0,13,14
 470 -20 470 -20 374.5 23.5 c 128,-1,15
 279 67 279 67 213.5 145.5 c 128,-1,16
 148 224 148 224 115 333 c 128,-1,17
 82 442 82 442 82 573 c 0,18,19
 82 619 82 619 85.5 667 c 128,-1,20
 89 715 89 715 98 764 c 0,21,22
 123 914 123 914 179.5 1037 c 128,-1,23
 236 1160 236 1160 320.5 1247.5 c 128,-1,24
 405 1335 405 1335 516 1382.5 c 128,-1,25
 627 1430 627 1430 761 1430 c 0,0,1
750 1197 m 0,26,27
 662 1197 662 1197 593 1165 c 128,-1,28
 524 1133 524 1133 473.5 1073 c 128,-1,29
 423 1013 423 1013 389.5 925.5 c 128,-1,30
 356 838 356 838 339 727 c 0,31,32
 333 690 333 690 330.5 652.5 c 128,-1,33
 328 615 328 615 328 581 c 0,34,35
 328 397 328 397 402 304.5 c 128,-1,36
 476 212 476 212 608 212 c 0,37,38
 697 212 697 212 765.5 244.5 c 128,-1,39
 834 277 834 277 885 338 c 128,-1,40
 936 399 936 399 969.5 485.5 c 128,-1,41
 1003 572 1003 572 1020 680 c 0,42,43
 1026 716 1026 716 1028 757 c 128,-1,44
 1030 798 1030 798 1030 827 c 0,45,46
 1030 920 1030 920 1010 989 c 128,-1,47
 990 1058 990 1058 954 1104.5 c 128,-1,48
 918 1151 918 1151 866 1174 c 128,-1,49
 814 1197 814 1197 750 1197 c 0,26,27
EndSplineSet
EndChar

StartChar: P
Encoding: 80 80 51
Width: 1120
GlyphClass: 2
Flags: W
LayerCount: 2
Fore
SplineSet
697 1409 m 2,0,1
 799 1409 799 1409 878 1380 c 128,-1,2
 957 1351 957 1351 1011.5 1296 c 128,-1,3
 1066 1241 1066 1241 1094 1163 c 128,-1,4
 1122 1085 1122 1085 1122 987 c 0,5,6
 1122 873 1122 873 1089 782 c 128,-1,7
 1056 691 1056 691 995.5 627.5 c 128,-1,8
 935 564 935 564 849.5 530 c 128,-1,9
 764 496 764 496 660 496 c 2,10,-1
 351 496 l 1,11,-1
 271 0 l 1,12,-1
 30 0 l 1,13,-1
 253 1409 l 1,14,-1
 697 1409 l 2,0,1
386 723 m 1,15,-1
 623 723 l 2,16,17
 750 723 750 723 813.5 781 c 128,-1,18
 877 839 877 839 877 971 c 0,19,20
 877 1026 877 1026 862.5 1065.5 c 128,-1,21
 848 1105 848 1105 821 1130.5 c 128,-1,22
 794 1156 794 1156 756.5 1168 c 128,-1,23
 719 1180 719 1180 674 1180 c 2,24,-1
 459 1180 l 1,25,-1
 386 723 l 1,15,-1
EndSplineSet
EndChar

StartChar: Q
Encoding: 81 81 52
Width: 1307
GlyphClass: 2
Flags: W
LayerCount: 2
Fore
SplineSet
761 1430 m 0,0,1
 882 1430 882 1430 978.5 1389.5 c 128,-1,2
 1075 1349 1075 1349 1142 1273.5 c 128,-1,3
 1209 1198 1209 1198 1244 1091 c 128,-1,4
 1279 984 1279 984 1279 851 c 0,5,6
 1279 802 1279 802 1275 749.5 c 128,-1,7
 1271 697 1271 697 1263 649 c 0,8,9
 1241 514 1241 514 1193.5 402.5 c 128,-1,10
 1146 291 1146 291 1077 206.5 c 128,-1,11
 1008 122 1008 122 919 67.5 c 128,-1,12
 830 13 830 13 724 -8 c 1,13,14
 740 -106 740 -106 777 -150 c 128,-1,15
 814 -194 814 -194 887 -194 c 0,16,17
 901 -194 901 -194 917.5 -193 c 128,-1,18
 934 -192 934 -192 950.5 -190 c 128,-1,19
 967 -188 967 -188 982.5 -185.5 c 128,-1,20
 998 -183 998 -183 1010 -180 c 1,21,-1
 973 -375 l 1,22,23
 949 -385 949 -385 912 -392.5 c 128,-1,24
 875 -400 875 -400 834 -400 c 0,25,26
 743 -400 743 -400 679 -372 c 128,-1,27
 615 -344 615 -344 573.5 -292.5 c 128,-1,28
 532 -241 532 -241 509.5 -169 c 128,-1,29
 487 -97 487 -97 479 -9 c 1,30,31
 382 10 382 10 308 60.5 c 128,-1,32
 234 111 234 111 183.5 186.5 c 128,-1,33
 133 262 133 262 107.5 360 c 128,-1,34
 82 458 82 458 82 573 c 0,35,36
 82 619 82 619 85.5 667 c 128,-1,37
 89 715 89 715 98 764 c 0,38,39
 123 914 123 914 179.5 1037 c 128,-1,40
 236 1160 236 1160 320.5 1247.5 c 128,-1,41
 405 1335 405 1335 516 1382.5 c 128,-1,42
 627 1430 627 1430 761 1430 c 0,0,1
750 1197 m 0,43,44
 662 1197 662 1197 593 1165 c 128,-1,45
 524 1133 524 1133 473.5 1073 c 128,-1,46
 423 1013 423 1013 389.5 925.5 c 128,-1,47
 356 838 356 838 339 727 c 0,48,49
 333 690 333 690 330.5 652.5 c 128,-1,50
 328 615 328 615 328 581 c 0,51,52
 328 397 328 397 402 304.5 c 128,-1,53
 476 212 476 212 608 212 c 0,54,55
 697 212 697 212 765.5 244.5 c 128,-1,56
 834 277 834 277 885 338 c 128,-1,57
 936 399 936 399 969.5 485.5 c 128,-1,58
 1003 572 1003 572 1020 680 c 0,59,60
 1026 716 1026 716 1028 757 c 128,-1,61
 1030 798 1030 798 1030 827 c 0,62,63
 1030 920 1030 920 1010 989 c 128,-1,64
 990 1058 990 1058 954 1104.5 c 128,-1,65
 918 1151 918 1151 866 1174 c 128,-1,66
 814 1197 814 1197 750 1197 c 0,43,44
EndSplineSet
EndChar

StartChar: R
Encoding: 82 82 53
Width: 1212
GlyphClass: 2
Flags: W
LayerCount: 2
Fore
SplineSet
828 0 m 1,0,-1
 639 534 l 1,1,-1
 356 534 l 1,2,-1
 271 0 l 1,3,-1
 30 0 l 1,4,-1
 254 1409 l 1,5,-1
 788 1409 l 2,6,7
 899 1409 899 1409 977 1376 c 128,-1,8
 1055 1343 1055 1343 1105 1287.5 c 128,-1,9
 1155 1232 1155 1232 1178 1159 c 128,-1,10
 1201 1086 1201 1086 1201 1006 c 0,11,12
 1201 912 1201 912 1173.5 838.5 c 128,-1,13
 1146 765 1146 765 1100.5 712 c 128,-1,14
 1055 659 1055 659 995 627 c 128,-1,15
 935 595 935 595 870 583 c 1,16,-1
 1095 0 l 1,17,-1
 828 0 l 1,0,-1
715 764 m 2,18,19
 770 764 770 764 814 777 c 128,-1,20
 858 790 858 790 889.5 818 c 128,-1,21
 921 846 921 846 938.5 888.5 c 128,-1,22
 956 931 956 931 956 989 c 0,23,24
 956 1041 956 1041 940 1077.5 c 128,-1,25
 924 1114 924 1114 897 1136.5 c 128,-1,26
 870 1159 870 1159 834 1169.5 c 128,-1,27
 798 1180 798 1180 757 1180 c 2,28,-1
 459 1180 l 1,29,-1
 393 764 l 1,30,-1
 715 764 l 2,18,19
EndSplineSet
EndChar

StartChar: S
Encoding: 83 83 54
Width: 1120
GlyphClass: 2
Flags: W
LayerCount: 2
Fore
SplineSet
492 -20 m 0,0,1
 381 -20 381 -20 297.5 4 c 128,-1,2
 214 28 214 28 156 76.5 c 128,-1,3
 98 125 98 125 65 197 c 128,-1,4
 32 269 32 269 20 365 c 1,5,-1
 257 414 l 1,6,7
 265 360 265 360 283.5 320 c 128,-1,8
 302 280 302 280 332 253.5 c 128,-1,9
 362 227 362 227 405.5 214 c 128,-1,10
 449 201 449 201 508 201 c 0,11,12
 570 201 570 201 622.5 211 c 128,-1,13
 675 221 675 221 712 244.5 c 128,-1,14
 749 268 749 268 770 306 c 128,-1,15
 791 344 791 344 791 400 c 0,16,17
 791 447 791 447 775.5 480 c 128,-1,18
 760 513 760 513 729.5 537 c 128,-1,19
 699 561 699 561 653.5 580 c 128,-1,20
 608 599 608 599 547 618 c 0,21,22
 470 643 470 643 402.5 674 c 128,-1,23
 335 705 335 705 284.5 752.5 c 128,-1,24
 234 800 234 800 204.5 868.5 c 128,-1,25
 175 937 175 937 175 1037 c 0,26,27
 175 1132 175 1132 211.5 1205.5 c 128,-1,28
 248 1279 248 1279 312 1329 c 128,-1,29
 376 1379 376 1379 461.5 1404.5 c 128,-1,30
 547 1430 547 1430 644 1430 c 0,31,32
 750 1430 750 1430 830 1405.5 c 128,-1,33
 910 1381 910 1381 966.5 1336.5 c 128,-1,34
 1023 1292 1023 1292 1056.5 1229.5 c 128,-1,35
 1090 1167 1090 1167 1103 1091 c 1,36,-1
 867 1024 l 1,37,38
 849 1114 849 1114 788.5 1167.5 c 128,-1,39
 728 1221 728 1221 631 1221 c 0,40,41
 577 1221 577 1221 536.5 1208 c 128,-1,42
 496 1195 496 1195 468.5 1172 c 128,-1,43
 441 1149 441 1149 427 1117 c 128,-1,44
 413 1085 413 1085 413 1047 c 0,45,46
 413 1002 413 1002 431.5 971.5 c 128,-1,47
 450 941 450 941 482.5 919 c 128,-1,48
 515 897 515 897 560 880 c 128,-1,49
 605 863 605 863 659 845 c 0,50,51
 701 831 701 831 745 814.5 c 128,-1,52
 789 798 789 798 830 775.5 c 128,-1,53
 871 753 871 753 907 722.5 c 128,-1,54
 943 692 943 692 970 649.5 c 128,-1,55
 997 607 997 607 1012.5 551.5 c 128,-1,56
 1028 496 1028 496 1028 423 c 0,57,58
 1028 318 1028 318 995.5 236 c 128,-1,59
 963 154 963 154 896.5 97 c 128,-1,60
 830 40 830 40 729 10 c 128,-1,61
 628 -20 628 -20 492 -20 c 0,0,1
EndSplineSet
EndChar

StartChar: T
Encoding: 84 84 55
Width: 1026
GlyphClass: 2
Flags: W
LayerCount: 2
Fore
SplineSet
734 1181 m 1,0,-1
 545 0 l 1,1,-1
 303 0 l 1,2,-1
 492 1181 l 1,3,-1
 119 1181 l 1,4,-1
 155 1409 l 1,5,-1
 1144 1409 l 1,6,-1
 1108 1181 l 1,7,-1
 734 1181 l 1,0,-1
EndSplineSet
EndChar

StartChar: U
Encoding: 85 85 56
Width: 1212
GlyphClass: 2
Flags: W
LayerCount: 2
Fore
SplineSet
564 211 m 0,0,1
 629 211 629 211 679 228 c 128,-1,2
 729 245 729 245 766 284 c 128,-1,3
 803 323 803 323 827.5 386 c 128,-1,4
 852 449 852 449 867 541 c 2,5,-1
 1005 1409 l 1,6,-1
 1246 1409 l 1,7,-1
 1106 530 l 2,8,9
 1083 388 1083 388 1038 284.5 c 128,-1,10
 993 181 993 181 924.5 113.5 c 128,-1,11
 856 46 856 46 763 13 c 128,-1,12
 670 -20 670 -20 551 -20 c 0,13,14
 445 -20 445 -20 360.5 9.5 c 128,-1,15
 276 39 276 39 218 96 c 128,-1,16
 160 153 160 153 129 237.5 c 128,-1,17
 98 322 98 322 98 431 c 0,18,19
 98 452 98 452 99.5 479.5 c 128,-1,20
 101 507 101 507 104 535 c 2,21,-1
 110 590 l 2,22,23
 113 616 113 616 116 635 c 2,24,-1
 238 1409 l 1,25,-1
 479 1409 l 1,26,-1
 354 599 l 2,27,28
 348 565 348 565 343.5 517.5 c 128,-1,29
 339 470 339 470 339 427 c 0,30,31
 339 373 339 373 355.5 332.5 c 128,-1,32
 372 292 372 292 402 265 c 128,-1,33
 432 238 432 238 473.5 224.5 c 128,-1,34
 515 211 515 211 564 211 c 0,0,1
EndSplineSet
EndChar

StartChar: V
Encoding: 86 86 57
Width: 1120
GlyphClass: 2
Flags: W
LayerCount: 2
Fore
SplineSet
604 0 m 1,0,-1
 326 0 l 1,1,-1
 140 1409 l 1,2,-1
 390 1409 l 1,3,-1
 484 504 l 2,4,5
 488 459 488 459 491 412 c 128,-1,6
 494 365 494 365 497 326 c 0,7,8
 500 280 500 280 502 238 c 1,9,10
 502 238 502 238 533 324 c 1,11,12
 533 324 533 324 566 410 c 2,13,-1
 603 504 l 1,14,-1
 985 1409 l 1,15,-1
 1237 1409 l 1,16,-1
 604 0 l 1,0,-1
EndSplineSet
EndChar

StartChar: W
Encoding: 87 87 58
Width: 1585
GlyphClass: 2
Flags: W
LayerCount: 2
Fore
SplineSet
1182 0 m 1,0,-1
 895 0 l 1,1,-1
 872 812 l 2,2,3
 872 823 872 823 871.5 858.5 c 128,-1,4
 871 894 871 894 870 939 c 128,-1,5
 869 984 869 984 868.5 1032 c 128,-1,6
 868 1080 868 1080 868 1116 c 1,7,8
 868 1116 868 1116 833 1001 c 0,9,10
 826 977 826 977 818 952 c 2,11,-1
 802 902 l 2,12,13
 794 877 794 877 786.5 855 c 128,-1,14
 779 833 779 833 772 815 c 2,15,-1
 487 0 l 1,16,-1
 196 0 l 1,17,-1
 123 1409 l 1,18,-1
 353 1409 l 1,19,-1
 382 594 l 2,20,21
 384 546 384 546 385 486 c 2,22,-1
 387 373 l 2,23,24
 388 311 388 311 388 248 c 1,25,-1
 435 392 l 1,26,27
 435 392 435 392 456 454 c 1,28,-1
 476 517 l 1,29,-1
 496 576 l 1,30,-1
 514 628 l 1,31,-1
 788 1409 l 1,32,-1
 1047 1409 l 1,33,-1
 1073 514 l 2,34,35
 1075 472 1075 472 1076 426 c 128,-1,36
 1077 380 1077 380 1079 340 c 0,37,38
 1081 293 1081 293 1082 248 c 1,39,40
 1082 248 1082 248 1118 365 c 1,41,42
 1118 365 1118 365 1154 477 c 2,43,-1
 1192 595 l 1,44,-1
 1466 1409 l 1,45,-1
 1705 1409 l 1,46,-1
 1182 0 l 1,0,-1
EndSplineSet
EndChar

StartChar: X
Encoding: 88 88 59
Width: 1120
GlyphClass: 2
Flags: W
LayerCount: 2
Fore
SplineSet
180 1409 m 1,0,-1
 434 1409 l 1,1,-1
 617 938 l 1,2,-1
 947 1409 l 1,3,-1
 1204 1409 l 1,4,-1
 712 732 l 1,5,-1
 1013 0 l 1,6,-1
 761 0 l 1,7,-1
 553 532 l 1,8,-1
 180 0 l 1,9,-1
 -77 0 l 1,10,-1
 458 736 l 1,11,-1
 180 1409 l 1,0,-1
EndSplineSet
EndChar

StartChar: Y
Encoding: 89 89 60
Width: 1120
GlyphClass: 2
Flags: W
LayerCount: 2
Fore
SplineSet
685 578 m 1,0,-1
 594 0 l 1,1,-1
 353 0 l 1,2,-1
 444 578 l 1,3,-1
 141 1409 l 1,4,-1
 380 1409 l 1,5,-1
 593 804 l 1,6,-1
 981 1409 l 1,7,-1
 1246 1409 l 1,8,-1
 685 578 l 1,0,-1
EndSplineSet
EndChar

StartChar: Z
Encoding: 90 90 61
Width: 1026
GlyphClass: 2
Flags: W
LayerCount: 2
Fore
SplineSet
887 0 m 1,0,-1
 -39 0 l 1,1,-1
 -7 209 l 1,2,-1
 754 1178 l 1,3,-1
 210 1178 l 1,4,-1
 247 1409 l 1,5,-1
 1078 1409 l 1,6,-1
 1046 1204 l 1,7,-1
 283 231 l 1,8,-1
 924 231 l 1,9,-1
 887 0 l 1,0,-1
EndSplineSet
EndChar

StartChar: bracketleft
Encoding: 91 91 62
Width: 559
GlyphClass: 2
Flags: W
LayerCount: 2
Fore
SplineSet
-44 -425 m 1,0,-1
 259 1484 l 1,1,-1
 703 1484 l 1,2,-1
 673 1294 l 1,3,-1
 447 1294 l 1,4,-1
 203 -234 l 1,5,-1
 430 -234 l 1,6,-1
 399 -425 l 1,7,-1
 -44 -425 l 1,0,-1
EndSplineSet
EndChar

StartChar: backslash
Encoding: 92 92 63
Width: 467
GlyphClass: 2
Flags: W
LayerCount: 2
Fore
SplineSet
237 -41 m 1,0,-1
 91 1485 l 1,1,-1
 286 1485 l 1,2,-1
 437 -41 l 1,3,-1
 237 -41 l 1,0,-1
EndSplineSet
EndChar

StartChar: bracketright
Encoding: 93 93 64
Width: 559
GlyphClass: 2
Flags: W
LayerCount: 2
Fore
SplineSet
-143 -425 m 1,0,-1
 -112 -234 l 1,1,-1
 115 -234 l 1,2,-1
 358 1294 l 1,3,-1
 130 1294 l 1,4,-1
 161 1484 l 1,5,-1
 605 1484 l 1,6,-1
 301 -425 l 1,7,-1
 -143 -425 l 1,0,-1
EndSplineSet
EndChar

StartChar: asciicircum
Encoding: 94 94 65
Width: 981
GlyphClass: 2
Flags: W
LayerCount: 2
Fore
SplineSet
789 514 m 1,0,-1
 522 1266 l 1,1,-1
 256 514 l 1,2,-1
 70 514 l 1,3,-1
 390 1409 l 1,4,-1
 655 1409 l 1,5,-1
 977 514 l 1,6,-1
 789 514 l 1,0,-1
EndSplineSet
EndChar

StartChar: underscore
Encoding: 95 95 66
Width: 934
GlyphClass: 2
Flags: W
LayerCount: 2
Fore
SplineSet
-98 -250 m 1,0,-1
 -98 -172 l 1,1,-1
 867 -172 l 1,2,-1
 867 -250 l 1,3,-1
 -98 -250 l 1,0,-1
EndSplineSet
EndChar

StartChar: grave
Encoding: 96 96 67
Width: 559
GlyphClass: 2
Flags: W
LayerCount: 2
Fore
SplineSet
489 1183 m 1,0,-1
 237 1459 l 1,1,-1
 243 1502 l 1,2,-1
 455 1502 l 1,3,-1
 615 1214 l 1,4,-1
 610 1183 l 1,5,-1
 489 1183 l 1,0,-1
EndSplineSet
EndChar

StartChar: a
Encoding: 97 97 68
Width: 934
GlyphClass: 2
Flags: W
LayerCount: 2
Fore
SplineSet
873 12 m 1,0,1
 839 -4 839 -4 803.5 -7 c 128,-1,2
 768 -10 768 -10 731 -10 c 0,3,4
 649 -10 649 -10 605 32 c 128,-1,5
 561 74 561 74 561 143 c 0,6,7
 561 158 561 158 562 174.5 c 128,-1,8
 563 191 563 191 565 207 c 1,9,-1
 560 207 l 1,10,11
 532 154 532 154 503.5 112 c 128,-1,12
 475 70 475 70 440 40.5 c 128,-1,13
 405 11 405 11 361.5 -4.5 c 128,-1,14
 318 -20 318 -20 260 -20 c 0,15,16
 196 -20 196 -20 149 5 c 128,-1,17
 102 30 102 30 70.5 71.5 c 128,-1,18
 39 113 39 113 23.5 167 c 128,-1,19
 8 221 8 221 8 278 c 0,20,21
 8 359 8 359 26.5 418 c 128,-1,22
 45 477 45 477 77 519 c 128,-1,23
 109 561 109 561 152 587.5 c 128,-1,24
 195 614 195 614 244.5 629 c 128,-1,25
 294 644 294 644 347 650 c 128,-1,26
 400 656 400 656 452 657 c 2,27,-1
 608 660 l 1,28,-1
 615 696 l 2,29,30
 621 726 621 726 623.5 748.5 c 128,-1,31
 626 771 626 771 626 791 c 0,32,33
 626 857 626 857 598 888 c 128,-1,34
 570 919 570 919 522 919 c 0,35,36
 498 919 498 919 472.5 915 c 128,-1,37
 447 911 447 911 424.5 896.5 c 128,-1,38
 402 882 402 882 383.5 853.5 c 128,-1,39
 365 825 365 825 355 777 c 1,40,-1
 139 808 l 1,41,42
 152 875 152 875 182 929 c 128,-1,43
 212 983 212 983 259.5 1021.5 c 128,-1,44
 307 1060 307 1060 373 1081 c 128,-1,45
 439 1102 439 1102 526 1102 c 0,46,47
 696 1102 696 1102 775 1029 c 128,-1,48
 854 956 854 956 854 807 c 0,49,50
 854 776 854 776 847.5 733 c 128,-1,51
 841 690 841 690 834 650 c 2,52,-1
 776 297 l 1,53,54
 776 297 776 297 772 260 c 0,55,56
 769 241 769 241 769 225 c 0,57,58
 769 201 769 201 777.5 188 c 128,-1,59
 786 175 786 175 796.5 169 c 128,-1,60
 807 163 807 163 817.5 161.5 c 128,-1,61
 828 160 828 160 834 160 c 0,62,63
 845 160 845 160 855.5 161 c 128,-1,64
 866 162 866 162 885 167 c 1,65,-1
 873 12 l 1,0,1
583 503 m 1,66,-1
 450 503 l 1,67,68
 354 501 354 501 299 455 c 128,-1,69
 244 409 244 409 244 325 c 0,70,71
 244 286 244 286 253.5 257.5 c 128,-1,72
 263 229 263 229 279.5 211 c 128,-1,73
 296 193 296 193 317.5 184.5 c 128,-1,74
 339 176 339 176 363 176 c 256,75,76
 387 176 387 176 416 187.5 c 128,-1,77
 445 199 445 199 473.5 226 c 128,-1,78
 502 253 502 253 526.5 298.5 c 128,-1,79
 551 344 551 344 565 411 c 2,80,-1
 583 503 l 1,66,-1
EndSplineSet
EndChar

StartChar: b
Encoding: 98 98 69
Width: 1026
GlyphClass: 2
Flags: W
LayerCount: 2
Fore
SplineSet
701 1102 m 0,0,1
 767 1102 767 1102 819 1077 c 128,-1,2
 871 1052 871 1052 906 1006 c 128,-1,3
 941 960 941 960 959.5 894.5 c 128,-1,4
 978 829 978 829 978 748 c 2,5,-1
 978 734 l 2,6,7
 978 686 978 686 973.5 630 c 128,-1,8
 969 574 969 574 960 516 c 0,9,10
 937 374 937 374 901 272.5 c 128,-1,11
 865 171 865 171 814 106 c 128,-1,12
 763 41 763 41 697 10.5 c 128,-1,13
 631 -20 631 -20 549 -20 c 0,14,15
 446 -20 446 -20 382 32 c 128,-1,16
 318 84 318 84 292 178 c 1,17,-1
 290 178 l 1,18,19
 290 178 290 178 279 122 c 0,20,21
 273 93 273 93 267 67 c 2,22,-1
 257 22 l 2,23,24
 253 4 253 4 251 0 c 1,25,-1
 29 0 l 1,26,27
 31 9 31 9 35 30 c 2,28,-1
 44 82 l 1,29,-1
 56 148 l 2,30,31
 63 184 63 184 69 223 c 2,32,-1
 271 1484 l 1,33,-1
 501 1484 l 1,34,-1
 432 1057 l 1,35,-1
 414 952 l 2,36,37
 407 913 407 913 406 913 c 2,38,-1
 409 913 l 1,39,40
 455 997 455 997 528.5 1049.5 c 128,-1,41
 602 1102 602 1102 701 1102 c 0,0,1
603 907 m 0,42,43
 560 907 560 907 520.5 890.5 c 128,-1,44
 481 874 481 874 448.5 834 c 128,-1,45
 416 794 416 794 390 726 c 128,-1,46
 364 658 364 658 348 554 c 0,47,48
 341 510 341 510 337.5 472 c 128,-1,49
 334 434 334 434 334 401 c 0,50,51
 334 345 334 345 346 302.5 c 128,-1,52
 358 260 358 260 379.5 231 c 128,-1,53
 401 202 401 202 431.5 187.5 c 128,-1,54
 462 173 462 173 499 173 c 0,55,56
 541 173 541 173 574 188.5 c 128,-1,57
 607 204 607 204 633.5 242.5 c 128,-1,58
 660 281 660 281 681 347.5 c 128,-1,59
 702 414 702 414 719 516 c 0,60,61
 728 567 728 567 732.5 611.5 c 128,-1,62
 737 656 737 656 737 694 c 0,63,64
 737 799 737 799 708 853 c 128,-1,65
 679 907 679 907 603 907 c 0,42,43
EndSplineSet
EndChar

StartChar: c
Encoding: 99 99 70
Width: 934
GlyphClass: 2
Flags: W
LayerCount: 2
Fore
SplineSet
440 173 m 0,0,1
 508 173 508 173 552 225.5 c 128,-1,2
 596 278 596 278 622 381 c 1,3,-1
 845 331 l 1,4,5
 825 252 825 252 791 187 c 128,-1,6
 757 122 757 122 706.5 76 c 128,-1,7
 656 30 656 30 586.5 5 c 128,-1,8
 517 -20 517 -20 426 -20 c 0,9,10
 331 -20 331 -20 260.5 11 c 128,-1,11
 190 42 190 42 144 98.5 c 128,-1,12
 98 155 98 155 75 233 c 128,-1,13
 52 311 52 311 52 405 c 0,14,15
 52 445 52 445 54.5 492 c 128,-1,16
 57 539 57 539 66 584 c 0,17,18
 86 695 86 695 118 776.5 c 128,-1,19
 150 858 150 858 189 915.5 c 128,-1,20
 228 973 228 973 273 1009.5 c 128,-1,21
 318 1046 318 1046 365.5 1066.5 c 128,-1,22
 413 1087 413 1087 462 1094.5 c 128,-1,23
 511 1102 511 1102 558 1102 c 0,24,25
 646 1102 646 1102 709.5 1073 c 128,-1,26
 773 1044 773 1044 816 994.5 c 128,-1,27
 859 945 859 945 881.5 879.5 c 128,-1,28
 904 814 904 814 909 741 c 1,29,-1
 677 718 l 1,30,31
 673 808 673 808 639.5 858.5 c 128,-1,32
 606 909 606 909 540 909 c 0,33,34
 494 909 494 909 460 890.5 c 128,-1,35
 426 872 426 872 399.5 831.5 c 128,-1,36
 373 791 373 791 352 727.5 c 128,-1,37
 331 664 331 664 312 575 c 1,38,39
 309 555 309 555 306 532.5 c 128,-1,40
 303 510 303 510 300 487.5 c 128,-1,41
 297 465 297 465 295.5 444.5 c 128,-1,42
 294 424 294 424 294 407 c 0,43,44
 294 286 294 286 331 229.5 c 128,-1,45
 368 173 368 173 440 173 c 0,0,1
EndSplineSet
EndChar

StartChar: d
Encoding: 100 100 71
Width: 1026
GlyphClass: 2
Flags: W
LayerCount: 2
Fore
SplineSet
614 160 m 1,0,1
 584 113 584 113 553 79 c 128,-1,2
 522 45 522 45 487.5 22.5 c 128,-1,3
 453 0 453 0 412 -10 c 1,4,5
 372 -21 372 -21 322 -21 c 0,6,7
 256 -21 256 -21 204.5 7 c 128,-1,8
 153 35 153 35 118.5 85 c 128,-1,9
 84 135 84 135 66 204 c 128,-1,10
 48 273 48 273 48 354 c 0,11,12
 48 399 48 399 51.5 451 c 128,-1,13
 55 503 55 503 65 566 c 0,14,15
 88 708 88 708 127.5 809.5 c 128,-1,16
 167 911 167 911 220 976 c 128,-1,17
 273 1041 273 1041 338 1071.5 c 128,-1,18
 403 1102 403 1102 476 1102 c 0,19,20
 536 1102 536 1102 579.5 1086.5 c 128,-1,21
 623 1071 623 1071 654 1044 c 128,-1,22
 685 1017 685 1017 704 981 c 128,-1,23
 723 945 723 945 733 904 c 1,24,-1
 737 904 l 1,25,26
 739 924 739 924 744 964 c 128,-1,27
 749 1004 749 1004 759 1066 c 2,28,-1
 828 1484 l 1,29,-1
 1055 1484 l 1,30,-1
 860 231 l 2,31,32
 851 170 851 170 845 112 c 128,-1,33
 839 54 839 54 836 0 c 1,34,-1
 605 0 l 1,35,36
 605 8 605 8 605.5 24 c 128,-1,37
 606 40 606 40 607.5 62 c 128,-1,38
 609 84 609 84 611.5 109 c 128,-1,39
 614 134 614 134 618 160 c 1,40,-1
 614 160 l 1,0,1
422 172 m 0,41,42
 465 172 465 172 504.5 188.5 c 128,-1,43
 544 205 544 205 576.5 245.5 c 128,-1,44
 609 286 609 286 634.5 354.5 c 128,-1,45
 660 423 660 423 677 527 c 0,46,47
 684 571 684 571 687.5 609.5 c 128,-1,48
 691 648 691 648 691 681 c 0,49,50
 691 801 691 801 652 855.5 c 128,-1,51
 613 910 613 910 536 910 c 0,52,53
 497 910 497 910 462 894 c 128,-1,54
 427 878 427 878 397.5 838.5 c 128,-1,55
 368 799 368 799 344.5 732.5 c 128,-1,56
 321 666 321 666 306 565 c 0,57,58
 299 514 299 514 295 472.5 c 128,-1,59
 291 431 291 431 291 393 c 0,60,61
 291 287 291 287 322 229.5 c 128,-1,62
 353 172 353 172 422 172 c 0,41,42
EndSplineSet
EndChar

StartChar: e
Encoding: 101 101 72
Width: 934
GlyphClass: 2
Flags: W
LayerCount: 2
Fore
SplineSet
294 476 m 1,0,1
 291 454 291 454 289.5 432 c 128,-1,2
 288 410 288 410 288 387 c 0,3,4
 288 281 288 281 326 224.5 c 128,-1,5
 364 168 364 168 439 168 c 0,6,7
 473 168 473 168 500 181 c 128,-1,8
 527 194 527 194 548.5 216.5 c 128,-1,9
 570 239 570 239 586 270 c 128,-1,10
 602 301 602 301 613 337 c 1,11,-1
 814 263 l 1,12,13
 789 199 789 199 758 146.5 c 128,-1,14
 727 94 727 94 682 57 c 128,-1,15
 637 20 637 20 574 0 c 128,-1,16
 511 -20 511 -20 423 -20 c 0,17,18
 333 -20 333 -20 263.5 11 c 128,-1,19
 194 42 194 42 147 99 c 128,-1,20
 100 156 100 156 76 237 c 128,-1,21
 52 318 52 318 52 418 c 0,22,23
 52 582 52 582 87.5 709 c 128,-1,24
 123 836 123 836 186.5 923.5 c 128,-1,25
 250 1011 250 1011 338 1056.5 c 128,-1,26
 426 1102 426 1102 530 1102 c 0,27,28
 622 1102 622 1102 689 1072 c 128,-1,29
 756 1042 756 1042 800.5 987.5 c 128,-1,30
 845 933 845 933 866 857.5 c 128,-1,31
 887 782 887 782 887 691 c 0,32,33
 887 646 887 646 882 587.5 c 128,-1,34
 877 529 877 529 868 476 c 1,35,-1
 294 476 l 1,0,1
674 663 m 1,36,37
 676 679 676 679 676.5 692 c 128,-1,38
 677 705 677 705 677 719 c 0,39,40
 677 826 677 826 636 875 c 128,-1,41
 595 924 595 924 530 924 c 0,42,43
 502 924 502 924 471 913 c 128,-1,44
 440 902 440 902 410.5 872.5 c 128,-1,45
 381 843 381 843 358 792.5 c 128,-1,46
 335 742 335 742 321 663 c 1,47,-1
 674 663 l 1,36,37
EndSplineSet
EndChar

StartChar: f
Encoding: 102 102 73
Width: 559
GlyphClass: 2
Flags: W
LayerCount: 2
Fore
SplineSet
433 892 m 1,0,-1
 290 0 l 1,1,-1
 61 0 l 1,2,-1
 203 892 l 1,3,-1
 74 892 l 1,4,-1
 104 1082 l 1,5,-1
 234 1082 l 1,6,-1
 252 1195 l 2,7,8
 263 1263 263 1263 284.5 1317 c 128,-1,9
 306 1371 306 1371 344 1408 c 128,-1,10
 382 1445 382 1445 437.5 1464.5 c 128,-1,11
 493 1484 493 1484 572 1484 c 0,12,13
 609 1484 609 1484 642 1478.5 c 128,-1,14
 675 1473 675 1473 699 1467 c 1,15,-1
 670 1286 l 1,16,17
 663 1288 663 1288 652 1290 c 2,18,-1
 631 1292 l 2,19,20
 620 1294 620 1294 609 1295 c 128,-1,21
 598 1296 598 1296 591 1296 c 0,22,23
 536 1296 536 1296 511.5 1264 c 128,-1,24
 487 1232 487 1232 476 1167 c 1,25,-1
 463 1082 l 1,26,-1
 638 1082 l 1,27,-1
 607 892 l 1,28,-1
 433 892 l 1,0,-1
EndSplineSet
EndChar

StartChar: g
Encoding: 103 103 74
Width: 1026
GlyphClass: 2
Flags: W
LayerCount: 2
Fore
SplineSet
353 -425 m 0,0,1
 267 -425 267 -425 204 -406.5 c 128,-1,2
 141 -388 141 -388 97.5 -352 c 128,-1,3
 54 -316 54 -316 29 -263.5 c 128,-1,4
 4 -211 4 -211 -6 -142 c 1,5,-1
 226 -112 l 1,6,7
 237 -178 237 -178 276 -208.5 c 128,-1,8
 315 -239 315 -239 381 -239 c 0,9,10
 429 -239 429 -239 464 -223.5 c 128,-1,11
 499 -208 499 -208 524.5 -175.5 c 128,-1,12
 550 -143 550 -143 568 -92.5 c 128,-1,13
 586 -42 586 -42 599 27 c 0,14,15
 604 56 604 56 608 86 c 2,16,-1
 617 143 l 2,17,18
 621 173 621 173 624 201 c 1,19,-1
 622 201 l 1,20,21
 599 161 599 161 573.5 123 c 128,-1,22
 548 85 548 85 514 56 c 128,-1,23
 480 27 480 27 435.5 9.5 c 128,-1,24
 391 -8 391 -8 332 -8 c 0,25,26
 267 -8 267 -8 215 19 c 128,-1,27
 163 46 163 46 127.5 94 c 128,-1,28
 92 142 92 142 72.5 209 c 128,-1,29
 53 276 53 276 53 356 c 0,30,31
 53 405 53 405 57 461 c 128,-1,32
 61 517 61 517 71 580 c 0,33,34
 113 841 113 841 211.5 971 c 128,-1,35
 310 1101 310 1101 481 1101 c 0,36,37
 528 1101 528 1101 570 1087 c 128,-1,38
 612 1073 612 1073 645.5 1046.5 c 128,-1,39
 679 1020 679 1020 703 981.5 c 128,-1,40
 727 943 727 943 739 893 c 1,41,-1
 741 893 l 1,42,43
 745 919 745 919 751 950 c 2,44,-1
 762 1010 l 2,45,46
 768 1038 768 1038 773 1058.5 c 128,-1,47
 778 1079 778 1079 780 1082 c 1,48,-1
 997 1082 l 1,49,50
 995 1073 995 1073 991 1051 c 2,51,-1
 982 998 l 2,52,53
 976 968 976 968 970 930 c 2,54,-1
 957 853 l 1,55,-1
 822 10 l 2,56,57
 804 -98 804 -98 770 -179.5 c 128,-1,58
 736 -261 736 -261 681 -315.5 c 128,-1,59
 626 -370 626 -370 545.5 -397.5 c 128,-1,60
 465 -425 465 -425 353 -425 c 0,0,1
683 548 m 0,61,62
 689 583 689 583 691.5 621 c 128,-1,63
 694 659 694 659 694 686 c 0,64,65
 694 743 694 743 681.5 784.5 c 128,-1,66
 669 826 669 826 647.5 854 c 128,-1,67
 626 882 626 882 596 895.5 c 128,-1,68
 566 909 566 909 531 909 c 0,69,70
 489 909 489 909 455.5 893.5 c 128,-1,71
 422 878 422 878 395 840.5 c 128,-1,72
 368 803 368 803 347.5 739.5 c 128,-1,73
 327 676 327 676 312 581 c 0,74,75
 305 531 305 531 299.5 482 c 128,-1,76
 294 433 294 433 294 396 c 0,77,78
 294 293 294 293 330.5 245 c 128,-1,79
 367 197 367 197 436 197 c 0,80,81
 472 197 472 197 510 216.5 c 128,-1,82
 548 236 548 236 581.5 278.5 c 128,-1,83
 615 321 615 321 641.5 387.5 c 128,-1,84
 668 454 668 454 683 548 c 0,61,62
EndSplineSet
EndChar

StartChar: h
Encoding: 104 104 75
Width: 1026
GlyphClass: 2
Flags: W
LayerCount: 2
Fore
SplineSet
493 1484 m 1,0,-1
 428 1079 l 2,1,2
 425 1058 425 1058 421 1033.5 c 128,-1,3
 417 1009 417 1009 412 985 c 2,4,-1
 404 938 l 1,5,6
 399 915 399 915 396 897 c 1,7,-1
 399 897 l 1,8,9
 424 939 424 939 453.5 976 c 128,-1,10
 483 1013 483 1013 520 1041 c 128,-1,11
 557 1069 557 1069 602.5 1085 c 128,-1,12
 648 1101 648 1101 704 1101 c 0,13,14
 829 1101 829 1101 892 1028 c 128,-1,15
 955 955 955 955 955 817 c 0,16,17
 955 799 955 799 953 776 c 128,-1,18
 951 753 951 753 948 730 c 2,19,-1
 944 688 l 2,20,21
 941 667 941 667 938 653 c 2,22,-1
 834 0 l 1,23,-1
 605 0 l 1,24,-1
 702 595 l 2,25,26
 705 614 705 614 709 637 c 128,-1,27
 713 660 713 660 716 683 c 128,-1,28
 719 706 719 706 721 726.5 c 128,-1,29
 723 747 723 747 723 760 c 0,30,31
 723 823 723 823 691.5 856 c 128,-1,32
 660 889 660 889 599 889 c 0,33,34
 560 889 560 889 521.5 869 c 128,-1,35
 483 849 483 849 450 812 c 128,-1,36
 417 775 417 775 392 722.5 c 128,-1,37
 367 670 367 670 357 606 c 2,38,-1
 260 0 l 1,39,-1
 29 0 l 1,40,-1
 263 1484 l 1,41,-1
 493 1484 l 1,0,-1
EndSplineSet
EndChar

StartChar: i
Encoding: 105 105 76
Width: 467
GlyphClass: 2
Flags: W
LayerCount: 2
Fore
SplineSet
231 1277 m 1,0,-1
 265 1484 l 1,1,-1
 496 1484 l 1,2,-1
 462 1277 l 1,3,-1
 231 1277 l 1,0,-1
29 0 m 1,4,-1
 201 1082 l 1,5,-1
 432 1082 l 1,6,-1
 259 0 l 1,7,-1
 29 0 l 1,4,-1
EndSplineSet
EndChar

StartChar: j
Encoding: 106 106 77
Width: 467
GlyphClass: 2
Flags: W
LayerCount: 2
Fore
SplineSet
232 1277 m 1,0,-1
 265 1484 l 1,1,-1
 496 1484 l 1,2,-1
 463 1277 l 1,3,-1
 232 1277 l 1,0,-1
-44 -425 m 0,4,5
 -85 -425 -85 -425 -120.5 -419.5 c 128,-1,6
 -156 -414 -156 -414 -181 -406 c 1,7,-1
 -151 -218 l 1,8,9
 -140 -220 -140 -220 -126.5 -221 c 128,-1,10
 -113 -222 -113 -222 -103 -222 c 0,11,12
 -75 -222 -75 -222 -55.5 -214 c 128,-1,13
 -36 -206 -36 -206 -22 -187 c 128,-1,14
 -8 -168 -8 -168 1.5 -137 c 128,-1,15
 11 -106 11 -106 18 -60 c 2,16,-1
 201 1082 l 1,17,-1
 432 1082 l 1,18,-1
 238 -128 l 2,19,20
 227 -193 227 -193 205.5 -247 c 128,-1,21
 184 -301 184 -301 149.5 -341 c 128,-1,22
 115 -381 115 -381 67 -403 c 128,-1,23
 19 -425 19 -425 -44 -425 c 0,4,5
EndSplineSet
EndChar

StartChar: k
Encoding: 107 107 78
Width: 934
GlyphClass: 2
Flags: W
LayerCount: 2
Fore
SplineSet
597 0 m 1,0,-1
 443 497 l 1,1,-1
 328 422 l 1,2,-1
 258 0 l 1,3,-1
 29 0 l 1,4,-1
 265 1484 l 1,5,-1
 495 1484 l 1,6,-1
 358 634 l 1,7,-1
 740 1082 l 1,8,-1
 1004 1082 l 1,9,-1
 616 660 l 1,10,-1
 841 0 l 1,11,-1
 597 0 l 1,0,-1
EndSplineSet
EndChar

StartChar: l
Encoding: 108 108 79
Width: 467
GlyphClass: 2
Flags: W
LayerCount: 2
Fore
SplineSet
29 0 m 1,0,-1
 265 1484 l 1,1,-1
 496 1484 l 1,2,-1
 259 0 l 1,3,-1
 29 0 l 1,0,-1
EndSplineSet
EndChar

StartChar: m
Encoding: 109 109 80
Width: 1493
GlyphClass: 2
Flags: W
LayerCount: 2
Fore
SplineSet
1084 892 m 0,0,1
 1047 892 1047 892 1014 872 c 128,-1,2
 981 852 981 852 954 814.5 c 128,-1,3
 927 777 927 777 908 724.5 c 128,-1,4
 889 672 889 672 878 607 c 2,5,-1
 781 0 l 1,6,-1
 552 0 l 1,7,-1
 653 635 l 1,8,9
 653 635 653 635 658 670 c 0,10,11
 660 688 660 688 662 707 c 128,-1,12
 664 726 664 726 665.5 742.5 c 128,-1,13
 667 759 667 759 667 771 c 0,14,15
 667 892 667 892 563 892 c 0,16,17
 525 892 525 892 492.5 871.5 c 128,-1,18
 460 851 460 851 433 813.5 c 128,-1,19
 406 776 406 776 386.5 722.5 c 128,-1,20
 367 669 367 669 357 604 c 2,21,-1
 260 0 l 1,22,-1
 29 0 l 1,23,-1
 165 851 l 2,24,25
 171 885 171 885 176 922 c 2,26,-1
 186 994 l 1,27,-1
 193 1051 l 2,28,29
 196 1075 196 1075 197 1082 c 1,30,-1
 420 1082 l 1,31,32
 420 1077 420 1077 417.5 1055 c 128,-1,33
 415 1033 415 1033 411 1004.5 c 128,-1,34
 407 976 407 976 403.5 946.5 c 128,-1,35
 400 917 400 917 397 897 c 1,36,-1
 399 897 l 1,37,38
 424 944 424 944 451 982 c 128,-1,39
 478 1020 478 1020 509.5 1046.5 c 128,-1,40
 541 1073 541 1073 580 1087 c 128,-1,41
 619 1101 619 1101 668 1101 c 0,42,43
 770 1101 770 1101 829 1041.5 c 128,-1,44
 888 982 888 982 899 869 c 1,45,46
 925 919 925 919 954 961 c 128,-1,47
 983 1003 983 1003 1017.5 1034.5 c 128,-1,48
 1052 1066 1052 1066 1094 1083.5 c 128,-1,49
 1136 1101 1136 1101 1190 1101 c 0,50,51
 1303 1101 1303 1101 1363 1028 c 128,-1,52
 1423 955 1423 955 1423 817 c 0,53,54
 1423 781 1423 781 1418 736 c 128,-1,55
 1413 691 1413 691 1406 653 c 2,56,-1
 1301 0 l 1,57,-1
 1072 0 l 1,58,-1
 1172 627 l 2,59,60
 1174 642 1174 642 1177 660.5 c 128,-1,61
 1180 679 1180 679 1182.5 697.5 c 128,-1,62
 1185 716 1185 716 1186 734 c 128,-1,63
 1187 752 1187 752 1187 766 c 2,64,-1
 1187 771 l 1,65,66
 1185 892 1185 892 1084 892 c 0,0,1
EndSplineSet
EndChar

StartChar: n
Encoding: 110 110 81
Width: 1026
GlyphClass: 2
Flags: W
LayerCount: 2
Fore
SplineSet
605 0 m 1,0,-1
 702 595 l 2,1,2
 705 614 705 614 709 637 c 128,-1,3
 713 660 713 660 716 683 c 128,-1,4
 719 706 719 706 721 726.5 c 128,-1,5
 723 747 723 747 723 760 c 0,6,7
 723 823 723 823 692 856 c 128,-1,8
 661 889 661 889 599 889 c 0,9,10
 560 889 560 889 521.5 869 c 128,-1,11
 483 849 483 849 450 812 c 128,-1,12
 417 775 417 775 392 722.5 c 128,-1,13
 367 670 367 670 357 606 c 2,14,-1
 260 0 l 1,15,-1
 29 0 l 1,16,-1
 165 851 l 2,17,18
 171 885 171 885 176 922.5 c 128,-1,19
 181 960 181 960 185 994 c 2,20,-1
 192 1051 l 2,21,22
 195 1075 195 1075 196 1082 c 1,23,-1
 416 1082 l 1,24,25
 416 1077 416 1077 414 1055 c 128,-1,26
 412 1033 412 1033 409 1004.5 c 128,-1,27
 406 976 406 976 402.5 946.5 c 128,-1,28
 399 917 399 917 396 897 c 1,29,-1
 399 897 l 1,30,31
 424 939 424 939 453.5 976 c 128,-1,32
 483 1013 483 1013 520 1041 c 128,-1,33
 557 1069 557 1069 602.5 1085 c 128,-1,34
 648 1101 648 1101 704 1101 c 0,35,36
 829 1101 829 1101 892 1028 c 128,-1,37
 955 955 955 955 955 817 c 0,38,39
 955 799 955 799 953 776 c 128,-1,40
 951 753 951 753 948 730 c 2,41,-1
 944 688 l 2,42,43
 941 667 941 667 938 653 c 2,44,-1
 834 0 l 1,45,-1
 605 0 l 1,0,-1
EndSplineSet
EndChar

StartChar: o
Encoding: 111 111 82
Width: 1026
GlyphClass: 2
Flags: W
LayerCount: 2
Fore
SplineSet
972 683 m 0,0,1
 972 520 972 520 932 389.5 c 128,-1,2
 892 259 892 259 820.5 168 c 128,-1,3
 749 77 749 77 651.5 28.5 c 128,-1,4
 554 -20 554 -20 439 -20 c 0,5,6
 351 -20 351 -20 279.5 9.5 c 128,-1,7
 208 39 208 39 157.5 95.5 c 128,-1,8
 107 152 107 152 79.5 233.5 c 128,-1,9
 52 315 52 315 52 419 c 0,10,11
 52 574 52 574 90 700 c 128,-1,12
 128 826 128 826 197.5 915 c 128,-1,13
 267 1004 267 1004 364 1052.5 c 128,-1,14
 461 1101 461 1101 577 1101 c 0,15,16
 674 1101 674 1101 748 1073 c 128,-1,17
 822 1045 822 1045 871.5 991 c 128,-1,18
 921 937 921 937 946.5 859.5 c 128,-1,19
 972 782 972 782 972 683 c 0,0,1
731 662 m 1,20,21
 731 728 731 728 719 775 c 128,-1,22
 707 822 707 822 685 851.5 c 128,-1,23
 663 881 663 881 631.5 895 c 128,-1,24
 600 909 600 909 560 909 c 0,25,26
 524 909 524 909 487 898.5 c 128,-1,27
 450 888 450 888 417 855 c 128,-1,28
 384 822 384 822 356.5 761 c 128,-1,29
 329 700 329 700 310 600 c 0,30,31
 301 552 301 552 297.5 509.5 c 128,-1,32
 294 467 294 467 294 431 c 0,33,34
 294 359 294 359 306.5 310 c 128,-1,35
 319 261 319 261 342 230 c 128,-1,36
 365 199 365 199 396 185.5 c 128,-1,37
 427 172 427 172 464 172 c 256,38,39
 501 172 501 172 537 182 c 128,-1,40
 573 192 573 192 606 224.5 c 128,-1,41
 639 257 639 257 666 317.5 c 128,-1,42
 693 378 693 378 712 480 c 0,43,44
 721 532 721 532 725 575.5 c 128,-1,45
 729 619 729 619 731 662 c 1,20,21
EndSplineSet
EndChar

StartChar: p
Encoding: 112 112 83
Width: 1026
GlyphClass: 2
Flags: W
LayerCount: 2
Fore
SplineSet
597 907 m 0,0,1
 554 907 554 907 515 890.5 c 128,-1,2
 476 874 476 874 443 834 c 128,-1,3
 410 794 410 794 384 726 c 128,-1,4
 358 658 358 658 342 554 c 0,5,6
 335 510 335 510 331.5 472 c 128,-1,7
 328 434 328 434 328 401 c 0,8,9
 328 345 328 345 340 302.5 c 128,-1,10
 352 260 352 260 373.5 231 c 128,-1,11
 395 202 395 202 425.5 187.5 c 128,-1,12
 456 173 456 173 493 173 c 0,13,14
 535 173 535 173 569 189 c 128,-1,15
 603 205 603 205 630 244 c 128,-1,16
 657 283 657 283 678 349.5 c 128,-1,17
 699 416 699 416 714 516 c 0,18,19
 721 567 721 567 725 611.5 c 128,-1,20
 729 656 729 656 729 694 c 0,21,22
 729 800 729 800 697.5 853.5 c 128,-1,23
 666 907 666 907 597 907 c 0,0,1
404 913 m 1,24,25
 433 962 433 962 463.5 997.5 c 128,-1,26
 494 1033 494 1033 529 1056.5 c 128,-1,27
 564 1080 564 1080 605 1091 c 128,-1,28
 646 1102 646 1102 695 1102 c 0,29,30
 761 1102 761 1102 813 1077 c 128,-1,31
 865 1052 865 1052 900 1006 c 128,-1,32
 935 960 935 960 953.5 894.5 c 128,-1,33
 972 829 972 829 972 748 c 0,34,35
 972 689 972 689 968 631.5 c 128,-1,36
 964 574 964 574 955 516 c 0,37,38
 932 374 932 374 896 272.5 c 128,-1,39
 860 171 860 171 808.5 106 c 128,-1,40
 757 41 757 41 691 10.5 c 128,-1,41
 625 -20 625 -20 543 -20 c 0,42,43
 440 -20 440 -20 376 32 c 128,-1,44
 312 84 312 84 286 178 c 1,45,-1
 285 178 l 1,46,47
 281 136 281 136 273.5 86 c 128,-1,48
 266 36 266 36 258 -10 c 2,49,-1
 193 -425 l 1,50,-1
 -37 -425 l 1,51,-1
 162 833 l 1,52,53
 162 833 162 833 172 892 c 0,54,55
 176 917 176 917 178.5 942.5 c 128,-1,56
 181 968 181 968 185 1000 c 128,-1,57
 189 1032 189 1032 194 1082 c 1,58,-1
 420 1082 l 1,59,60
 420 1076 420 1076 418.5 1056 c 128,-1,61
 417 1036 417 1036 414.5 1010.5 c 128,-1,62
 412 985 412 985 408.5 958.5 c 128,-1,63
 405 932 405 932 401 913 c 1,64,-1
 404 913 l 1,24,25
EndSplineSet
EndChar

StartChar: q
Encoding: 113 113 84
Width: 1026
GlyphClass: 2
Flags: W
LayerCount: 2
Fore
SplineSet
736 903 m 1,0,1
 740 928 740 928 745.5 955.5 c 128,-1,2
 751 983 751 983 756.5 1007.5 c 128,-1,3
 762 1032 762 1032 767 1052 c 128,-1,4
 772 1072 772 1072 775 1082 c 1,5,-1
 996 1082 l 1,6,7
 992 1065 992 1065 980 994 c 2,8,-1
 946 795 l 1,9,-1
 753 -425 l 1,10,-1
 522 -425 l 1,11,-1
 592 7 l 1,12,13
 592 7 592 7 606 79 c 2,14,-1
 622 163 l 1,15,-1
 618 163 l 1,16,17
 588 116 588 116 557.5 81.5 c 128,-1,18
 527 47 527 47 491 24 c 128,-1,19
 455 1 455 1 413.5 -10 c 128,-1,20
 372 -21 372 -21 323 -21 c 0,21,22
 257 -21 257 -21 206 6.5 c 128,-1,23
 155 34 155 34 119.5 82.5 c 128,-1,24
 84 131 84 131 66 199 c 128,-1,25
 48 267 48 267 48 348 c 0,26,27
 48 393 48 393 52 447.5 c 128,-1,28
 56 502 56 502 66 565 c 0,29,30
 89 708 89 708 129 810 c 128,-1,31
 169 912 169 912 222.5 977 c 128,-1,32
 276 1042 276 1042 340 1072 c 128,-1,33
 404 1102 404 1102 476 1102 c 0,34,35
 530 1102 530 1102 570.5 1091 c 128,-1,36
 611 1080 611 1080 641.5 1056 c 128,-1,37
 672 1032 672 1032 694 994 c 128,-1,38
 716 956 716 956 732 903 c 1,39,-1
 736 903 l 1,0,1
425 172 m 0,40,41
 468 172 468 172 507 188.5 c 128,-1,42
 546 205 546 205 579 245.5 c 128,-1,43
 612 286 612 286 637.5 354.5 c 128,-1,44
 663 423 663 423 678 527 c 0,45,46
 685 571 685 571 688 609 c 128,-1,47
 691 647 691 647 691 680 c 0,48,49
 691 792 691 792 657 851 c 128,-1,50
 623 910 623 910 549 910 c 0,51,52
 506 910 506 910 468.5 894.5 c 128,-1,53
 431 879 431 879 400 840 c 128,-1,54
 369 801 369 801 345.5 734.5 c 128,-1,55
 322 668 322 668 307 565 c 0,56,57
 299 513 299 513 295.5 468.5 c 128,-1,58
 292 424 292 424 292 386 c 0,59,60
 292 337 292 337 300 297.5 c 128,-1,61
 308 258 308 258 324 230 c 128,-1,62
 340 202 340 202 365 187 c 128,-1,63
 390 172 390 172 425 172 c 0,40,41
EndSplineSet
EndChar

StartChar: r
Encoding: 114 114 85
Width: 653
GlyphClass: 2
Flags: W
LayerCount: 2
Fore
SplineSet
692 853 m 1,0,1
 673 858 673 858 651.5 863 c 128,-1,2
 630 868 630 868 598 868 c 0,3,4
 497 868 497 868 433.5 781 c 128,-1,5
 370 694 370 694 342 514 c 1,6,-1
 259 0 l 1,7,-1
 29 0 l 1,8,-1
 161 830 l 2,9,10
 167 865 167 865 172 900 c 2,11,-1
 180 968 l 1,12,-1
 189 1030 l 2,13,14
 193 1060 193 1060 195 1082 c 1,15,-1
 415 1082 l 1,16,17
 413 1060 413 1060 409.5 1030 c 128,-1,18
 406 1000 406 1000 403 969 c 128,-1,19
 400 938 400 938 396 909.5 c 128,-1,20
 392 881 392 881 390 861 c 1,21,-1
 393 861 l 1,22,23
 421 923 421 923 448.5 968.5 c 128,-1,24
 476 1014 476 1014 506 1043.5 c 128,-1,25
 536 1073 536 1073 570 1087.5 c 128,-1,26
 604 1102 604 1102 645 1102 c 0,27,28
 655 1102 655 1102 666.5 1100.5 c 128,-1,29
 678 1099 678 1099 690 1097 c 128,-1,30
 702 1095 702 1095 712.5 1092.5 c 128,-1,31
 723 1090 723 1090 729 1088 c 1,32,-1
 692 853 l 1,0,1
EndSplineSet
EndChar

StartChar: s
Encoding: 115 115 86
Width: 934
GlyphClass: 2
Flags: W
LayerCount: 2
Fore
SplineSet
820 334 m 0,0,1
 820 245 820 245 792.5 178.5 c 128,-1,2
 765 112 765 112 712 68 c 128,-1,3
 659 24 659 24 582.5 2 c 128,-1,4
 506 -20 506 -20 408 -20 c 0,5,6
 243 -20 243 -20 147.5 51 c 128,-1,7
 52 122 52 122 19 271 c 1,8,-1
 225 307 l 1,9,10
 233 271 233 271 247.5 244.5 c 128,-1,11
 262 218 262 218 286 200.5 c 128,-1,12
 310 183 310 183 344 174.5 c 128,-1,13
 378 166 378 166 424 166 c 0,14,15
 464 166 464 166 497.5 173.5 c 128,-1,16
 531 181 531 181 555 197.5 c 128,-1,17
 579 214 579 214 592.5 240 c 128,-1,18
 606 266 606 266 606 302 c 0,19,20
 606 334 606 334 595 354.5 c 128,-1,21
 584 375 584 375 561.5 389.5 c 128,-1,22
 539 404 539 404 504 415.5 c 128,-1,23
 469 427 469 427 422 439 c 0,24,25
 357 457 357 457 302.5 482 c 128,-1,26
 248 507 248 507 209 545.5 c 128,-1,27
 170 584 170 584 147.5 638.5 c 128,-1,28
 125 693 125 693 125 769 c 0,29,30
 125 859 125 859 156 921.5 c 128,-1,31
 187 984 187 984 240.5 1023.5 c 128,-1,32
 294 1063 294 1063 366.5 1081 c 128,-1,33
 439 1099 439 1099 522 1099 c 0,34,35
 598 1099 598 1099 659.5 1084.5 c 128,-1,36
 721 1070 721 1070 765 1036 c 128,-1,37
 809 1002 809 1002 837.5 947 c 128,-1,38
 866 892 866 892 877 811 c 1,39,-1
 671 782 l 1,40,41
 657 851 657 851 616.5 882 c 128,-1,42
 576 913 576 913 507 913 c 0,43,44
 472 913 472 913 441 907.5 c 128,-1,45
 410 902 410 902 387.5 888 c 128,-1,46
 365 874 365 874 352 851 c 128,-1,47
 339 828 339 828 339 793 c 0,48,49
 339 761 339 761 354.5 739.5 c 128,-1,50
 370 718 370 718 398 702.5 c 128,-1,51
 426 687 426 687 464 676 c 2,52,-1
 548 651 l 2,53,54
 605 635 605 635 654.5 612 c 128,-1,55
 704 589 704 589 741 552.5 c 128,-1,56
 778 516 778 516 799 463 c 128,-1,57
 820 410 820 410 820 334 c 0,0,1
EndSplineSet
EndChar

StartChar: t
Encoding: 116 116 87
Width: 559
GlyphClass: 2
Flags: W
LayerCount: 2
Fore
SplineSet
459 8 m 1,0,1
 429 -3 429 -3 390.5 -9.5 c 128,-1,2
 352 -16 352 -16 308 -16 c 0,3,4
 260 -16 260 -16 220.5 -2 c 128,-1,5
 181 12 181 12 153 40 c 128,-1,6
 125 68 125 68 110 110.5 c 128,-1,7
 95 153 95 153 95 209 c 0,8,9
 95 254 95 254 99.5 296.5 c 128,-1,10
 104 339 104 339 108 366 c 2,11,-1
 192 892 l 1,12,-1
 70 892 l 1,13,-1
 101 1082 l 1,14,-1
 234 1082 l 1,15,-1
 346 1336 l 1,16,-1
 490 1336 l 1,17,-1
 451 1082 l 1,18,-1
 616 1082 l 1,19,-1
 588 892 l 1,20,-1
 420 892 l 1,21,-1
 334 357 l 2,22,23
 331 337 331 337 328 308.5 c 128,-1,24
 325 280 325 280 325 260 c 0,25,26
 327 218 327 218 346.5 197.5 c 128,-1,27
 366 177 366 177 397 177 c 0,28,29
 417 177 417 177 437 180.5 c 128,-1,30
 457 184 457 184 485 190 c 1,31,-1
 459 8 l 1,0,1
EndSplineSet
EndChar

StartChar: u
Encoding: 117 117 88
Width: 1026
GlyphClass: 2
Flags: W
LayerCount: 2
Fore
SplineSet
420 1082 m 1,0,-1
 323 487 l 2,1,2
 320 468 320 468 316 445 c 128,-1,3
 312 422 312 422 309 399 c 128,-1,4
 306 376 306 376 304 356 c 128,-1,5
 302 336 302 336 302 322 c 0,6,7
 302 259 302 259 333 226 c 128,-1,8
 364 193 364 193 426 193 c 0,9,10
 465 193 465 193 504 213 c 128,-1,11
 543 233 543 233 576 270 c 128,-1,12
 609 307 609 307 634 359.5 c 128,-1,13
 659 412 659 412 668 476 c 1,14,-1
 765 1082 l 1,15,-1
 996 1082 l 1,16,-1
 860 231 l 2,17,18
 854 197 854 197 849 159.5 c 128,-1,19
 844 122 844 122 840 88 c 2,20,-1
 833 31 l 2,21,22
 830 7 830 7 829 0 c 1,23,-1
 609 0 l 1,24,25
 609 5 609 5 611 27 c 128,-1,26
 613 49 613 49 616 77.5 c 128,-1,27
 619 106 619 106 622.5 135.5 c 128,-1,28
 626 165 626 165 629 185 c 1,29,-1
 627 185 l 1,30,31
 602 143 602 143 572.5 106 c 128,-1,32
 543 69 543 69 506 41 c 128,-1,33
 469 13 469 13 423 -3 c 128,-1,34
 377 -19 377 -19 321 -19 c 0,35,36
 196 -19 196 -19 133 54 c 128,-1,37
 70 127 70 127 70 265 c 0,38,39
 70 283 70 283 72 306 c 128,-1,40
 74 329 74 329 76 352 c 1,41,-1
 82 395 l 2,42,43
 84 416 84 416 87 429 c 2,44,-1
 191 1082 l 1,45,-1
 420 1082 l 1,0,-1
EndSplineSet
EndChar

StartChar: v
Encoding: 118 118 89
Width: 934
GlyphClass: 2
Flags: W
LayerCount: 2
Fore
SplineSet
510 0 m 1,0,-1
 235 0 l 1,1,-1
 90 1082 l 1,2,-1
 327 1082 l 1,3,-1
 385 477 l 2,4,5
 388 447 388 447 391 411 c 128,-1,6
 394 375 394 375 396.5 339 c 128,-1,7
 399 303 399 303 401 269 c 128,-1,8
 403 235 403 235 403 208 c 1,9,10
 403 208 403 208 424 268 c 1,11,-1
 450 338 l 1,12,-1
 477 409 l 1,13,-1
 503 474 l 1,14,-1
 763 1082 l 1,15,-1
 1010 1082 l 1,16,-1
 510 0 l 1,0,-1
EndSplineSet
EndChar

StartChar: w
Encoding: 119 119 90
Width: 1307
GlyphClass: 2
Flags: W
LayerCount: 2
Fore
SplineSet
990 0 m 1,0,-1
 747 0 l 1,1,-1
 711 660 l 2,2,3
 709 691 709 691 709 731 c 128,-1,4
 709 771 709 771 708 806 c 0,5,6
 707 847 707 847 707 890 c 1,7,8
 694 847 694 847 680 806 c 1,9,10
 680 806 680 806 656 730 c 1,11,12
 642 690 642 690 629 658 c 2,13,-1
 382 0 l 1,14,-1
 138 0 l 1,15,-1
 81 1082 l 1,16,-1
 293 1082 l 1,17,-1
 304 446 l 2,18,19
 305 419 305 419 304.5 385.5 c 128,-1,20
 304 352 304 352 304 323 c 2,21,-1
 304 255 l 1,22,-1
 327 323 l 1,23,24
 327 323 327 323 348 386 c 0,25,26
 359 419 359 419 369 446 c 2,27,-1
 610 1082 l 1,28,-1
 857 1082 l 1,29,-1
 892 446 l 2,30,31
 894 420 894 420 894 387 c 128,-1,32
 894 354 894 354 895 325 c 0,33,34
 896 291 896 291 896 255 c 1,35,36
 907 291 907 291 919 325 c 2,37,-1
 940 387 l 1,38,-1
 959 446 l 1,39,-1
 1178 1082 l 1,40,-1
 1396 1082 l 1,41,-1
 990 0 l 1,0,-1
EndSplineSet
EndChar

StartChar: x
Encoding: 120 120 91
Width: 934
GlyphClass: 2
Flags: W
LayerCount: 2
Fore
SplineSet
594 0 m 1,0,-1
 441 383 l 1,1,-1
 173 0 l 1,2,-1
 -74 0 l 1,3,-1
 343 562 l 1,4,-1
 114 1082 l 1,5,-1
 353 1082 l 1,6,-1
 495 735 l 1,7,-1
 738 1082 l 1,8,-1
 991 1082 l 1,9,-1
 595 557 l 1,10,-1
 836 0 l 1,11,-1
 594 0 l 1,0,-1
EndSplineSet
EndChar

StartChar: y
Encoding: 121 121 92
Width: 934
GlyphClass: 2
Flags: W
LayerCount: 2
Fore
SplineSet
467 -57 m 1,0,1
 421 -144 421 -144 380 -212 c 128,-1,2
 339 -280 339 -280 293.5 -327.5 c 128,-1,3
 248 -375 248 -375 194.5 -400 c 128,-1,4
 141 -425 141 -425 72 -425 c 0,5,6
 29 -425 29 -425 -5 -420.5 c 128,-1,7
 -39 -416 -39 -416 -70 -407 c 1,8,-1
 -39 -211 l 1,9,10
 -24 -215 -24 -215 -4 -217.5 c 128,-1,11
 16 -220 16 -220 33 -220 c 0,12,13
 64 -220 64 -220 90.5 -210 c 128,-1,14
 117 -200 117 -200 142.5 -177 c 128,-1,15
 168 -154 168 -154 192.5 -116.5 c 128,-1,16
 217 -79 217 -79 243 -24 c 2,17,-1
 266 24 l 1,18,-1
 92 1082 l 1,19,-1
 330 1082 l 1,20,-1
 389 585 l 2,21,22
 391 574 391 574 394 548 c 2,23,-1
 399 488 l 1,24,-1
 405 418 l 1,25,-1
 410 348 l 1,26,-1
 415 288 l 2,27,28
 417 262 417 262 417 251 c 1,29,-1
 430 288 l 1,30,-1
 453 346 l 1,31,-1
 480 414 l 1,32,-1
 506 483 l 1,33,-1
 530 542 l 1,34,-1
 545 581 l 1,35,-1
 758 1082 l 1,36,-1
 1004 1082 l 1,37,-1
 467 -57 l 1,0,1
EndSplineSet
EndChar

StartChar: z
Encoding: 122 122 93
Width: 840
GlyphClass: 2
Flags: W
LayerCount: 2
Fore
SplineSet
-29 0 m 1,0,-1
 2 199 l 1,1,-1
 538 879 l 1,2,-1
 144 879 l 1,3,-1
 177 1082 l 1,4,-1
 841 1082 l 1,5,-1
 809 881 l 1,6,-1
 276 205 l 1,7,-1
 741 205 l 1,8,-1
 708 0 l 1,9,-1
 -29 0 l 1,0,-1
EndSplineSet
EndChar

StartChar: braceleft
Encoding: 123 123 94
Width: 653
GlyphClass: 2
Flags: W
LayerCount: 2
Fore
SplineSet
318 -425 m 2,0,1
 270 -425 270 -425 231 -409.5 c 128,-1,2
 192 -394 192 -394 165 -365 c 128,-1,3
 138 -336 138 -336 123 -294.5 c 128,-1,4
 108 -253 108 -253 108 -202 c 0,5,6
 108 -185 108 -185 110.5 -156 c 128,-1,7
 113 -127 113 -127 117 -101 c 2,8,-1
 167 207 l 2,9,10
 173 242 173 242 173 275 c 0,11,12
 173 317 173 317 162 347 c 128,-1,13
 151 377 151 377 130.5 395.5 c 128,-1,14
 110 414 110 414 81 423 c 128,-1,15
 52 432 52 432 16 433 c 1,16,-1
 47 625 l 1,17,18
 90 626 90 626 127 638.5 c 128,-1,19
 164 651 164 651 192.5 678 c 128,-1,20
 221 705 221 705 241 747.5 c 128,-1,21
 261 790 261 790 271 852 c 2,22,-1
 326 1190 l 2,23,24
 350 1336 350 1336 418.5 1410 c 128,-1,25
 487 1484 487 1484 613 1484 c 2,26,-1
 772 1484 l 1,27,-1
 741 1294 l 1,28,-1
 679 1294 l 2,29,30
 642 1294 642 1294 616.5 1281 c 128,-1,31
 591 1268 591 1268 573.5 1242.5 c 128,-1,32
 556 1217 556 1217 544 1178.5 c 128,-1,33
 532 1140 532 1140 524 1089 c 2,34,-1
 474 779 l 2,35,36
 466 729 466 729 446 687.5 c 128,-1,37
 426 646 426 646 398 614.5 c 128,-1,38
 370 583 370 583 335.5 562 c 128,-1,39
 301 541 301 541 265 532 c 1,40,-1
 264 528 l 1,41,42
 294 519 294 519 318 502 c 128,-1,43
 342 485 342 485 360 460.5 c 128,-1,44
 378 436 378 436 387.5 404 c 128,-1,45
 397 372 397 372 397 333 c 0,46,47
 397 320 397 320 396.5 307.5 c 128,-1,48
 396 295 396 295 393 281 c 2,49,-1
 340 -53 l 2,50,51
 338 -67 338 -67 335.5 -89.5 c 128,-1,52
 333 -112 333 -112 333 -129 c 0,53,54
 333 -182 333 -182 360 -208 c 128,-1,55
 387 -234 387 -234 433 -234 c 2,56,-1
 498 -234 l 1,57,-1
 468 -425 l 1,58,-1
 318 -425 l 2,0,1
EndSplineSet
EndChar

StartChar: bar
Encoding: 124 124 95
Width: 471
GlyphClass: 2
Flags: W
LayerCount: 2
Fore
SplineSet
157 -425 m 1,0,-1
 157 1484 l 1,1,-1
 372 1484 l 1,2,-1
 372 -425 l 1,3,-1
 157 -425 l 1,0,-1
EndSplineSet
EndChar

StartChar: braceright
Encoding: 125 125 96
Width: 653
GlyphClass: 2
Flags: W
LayerCount: 2
Fore
SplineSet
327 1485 m 2,0,1
 375 1485 375 1485 414 1469.5 c 128,-1,2
 453 1454 453 1454 480 1425 c 128,-1,3
 507 1396 507 1396 522 1354.5 c 128,-1,4
 537 1313 537 1313 537 1262 c 0,5,6
 537 1245 537 1245 534.5 1215.5 c 128,-1,7
 532 1186 532 1186 528 1161 c 2,8,-1
 478 853 l 2,9,10
 475 834 475 834 473.5 817 c 128,-1,11
 472 800 472 800 472 785 c 0,12,13
 472 742 472 742 483 712.5 c 128,-1,14
 494 683 494 683 514.5 664 c 128,-1,15
 535 645 535 645 564 636.5 c 128,-1,16
 593 628 593 628 629 627 c 1,17,-1
 598 435 l 1,18,19
 555 434 555 434 518 421.5 c 128,-1,20
 481 409 481 409 452.5 382 c 128,-1,21
 424 355 424 355 403.5 312 c 128,-1,22
 383 269 383 269 374 207 c 1,23,-1
 319 -130 l 2,24,25
 307 -204 307 -204 284 -259 c 128,-1,26
 261 -314 261 -314 226.5 -351 c 128,-1,27
 192 -388 192 -388 143.5 -406.5 c 128,-1,28
 95 -425 95 -425 32 -425 c 2,29,-1
 -127 -425 l 1,30,-1
 -97 -235 l 1,31,-1
 -34 -235 l 2,32,33
 3 -235 3 -235 28.5 -222 c 128,-1,34
 54 -209 54 -209 71.5 -183.5 c 128,-1,35
 89 -158 89 -158 101 -119.5 c 128,-1,36
 113 -81 113 -81 121 -30 c 2,37,-1
 170 280 l 2,38,39
 178 330 178 330 198.5 372 c 128,-1,40
 219 414 219 414 247 445.5 c 128,-1,41
 275 477 275 477 309.5 498 c 128,-1,42
 344 519 344 519 380 528 c 1,43,-1
 381 531 l 1,44,45
 352 540 352 540 327.5 557 c 128,-1,46
 303 574 303 574 285 599 c 128,-1,47
 267 624 267 624 257 656 c 128,-1,48
 247 688 247 688 247 727 c 0,49,50
 247 739 247 739 248 752 c 128,-1,51
 249 765 249 765 252 779 c 2,52,-1
 305 1112 l 2,53,54
 307 1127 307 1127 309.5 1149.5 c 128,-1,55
 312 1172 312 1172 312 1189 c 0,56,57
 312 1242 312 1242 285 1268 c 128,-1,58
 258 1294 258 1294 212 1294 c 2,59,-1
 147 1294 l 1,60,-1
 177 1485 l 1,61,-1
 327 1485 l 2,0,1
EndSplineSet
EndChar

StartChar: asciitilde
Encoding: 126 126 97
Width: 981
GlyphClass: 2
Flags: W
LayerCount: 2
Fore
SplineSet
729 516 m 0,0,1
 667 516 667 516 608 537 c 128,-1,2
 549 558 549 558 487 584 c 0,3,4
 433 607 433 607 388.5 619 c 128,-1,5
 344 631 344 631 306 631 c 0,6,7
 274 631 274 631 246.5 625 c 128,-1,8
 219 619 219 619 194 607.5 c 128,-1,9
 169 596 169 596 145 580 c 128,-1,10
 121 564 121 564 97 543 c 1,11,-1
 97 756 l 1,12,13
 139 794 139 794 194.5 817 c 128,-1,14
 250 840 250 840 319 840 c 0,15,16
 385 840 385 840 447.5 818 c 128,-1,17
 510 796 510 796 571 770 c 0,18,19
 615 751 615 751 660 737 c 128,-1,20
 705 723 705 723 745 723 c 0,21,22
 801 723 801 723 853.5 748 c 128,-1,23
 906 773 906 773 948 815 c 1,24,-1
 948 596 l 1,25,26
 922 574 922 574 897 558.5 c 128,-1,27
 872 543 872 543 846 533.5 c 128,-1,28
 820 524 820 524 791.5 520 c 128,-1,29
 763 516 763 516 729 516 c 0,0,1
EndSplineSet
EndChar

StartChar: exclamdown
Encoding: 161 161 98
Width: 559
GlyphClass: 2
Flags: W
LayerCount: 2
Fore
SplineSet
202 812 m 1,0,-1
 246 1082 l 1,1,-1
 482 1082 l 1,2,-1
 439 812 l 1,3,-1
 202 812 l 1,0,-1
16 -327 m 1,4,-1
 198 654 l 1,5,-1
 387 654 l 1,6,-1
 257 -327 l 1,7,-1
 16 -327 l 1,4,-1
EndSplineSet
EndChar

StartChar: cent
Encoding: 162 162 99
Width: 934
GlyphClass: 2
Flags: W
HStem: 1389 20G<545.623 681>
VStem: 62 242<374 833.485>
LayerCount: 2
Fore
SplineSet
320 -31 m 1,0,-1
 346 143 l 1,1,2
 274 157 274 157 220.5 193.5 c 128,-1,3
 167 230 167 230 132 284 c 128,-1,4
 97 338 97 338 79.5 408 c 128,-1,5
 62 478 62 478 62 560 c 0,6,7
 62 600 62 600 65 647 c 128,-1,8
 68 694 68 694 77 739 c 0,9,10
 106 892 106 892 154.5 990 c 128,-1,11
 203 1088 203 1088 263 1145.5 c 128,-1,12
 323 1203 323 1203 390.5 1227 c 128,-1,13
 458 1251 458 1251 523 1255 c 1,14,-1
 549 1409 l 1,15,-1
 681 1409 l 1,16,-1
 655.493 1247.9 l 1,17,18
 720.182 1234.88 720.182 1234.88 768 1202 c 128,-1,19
 816 1169 816 1169 848.5 1122 c 128,-1,20
 881 1075 881 1075 898.5 1017 c 128,-1,21
 916 959 916 959 920 896 c 1,22,-1
 687 873 l 1,23,24
 683 963 683 963 650 1013.5 c 0,25,26
 638.536 1031.04 638.536 1031.04 622.97 1042.49 c 1,27,-1
 511.903 341.022 l 1,28,29
 540.162 354.147 540.162 354.147 562.5 380.5 c 0,30,31
 607 433 607 433 633 536 c 1,32,-1
 855 486 l 1,33,34
 836 411 836 411 805.5 349 c 128,-1,35
 775 287 775 287 729 242 c 128,-1,36
 683 197 683 197 621 169.5 c 128,-1,37
 559.173 142.077 559.173 142.077 479.447 136.034 c 1,38,-1
 453 -31 l 1,39,-1
 320 -31 l 1,0,-1
379.946 345.955 m 1,40,-1
 492.763 1055.37 l 1,41,42
 480.779 1051.36 480.779 1051.36 470 1045.5 c 0,43,44
 436 1027 436 1027 410 986.5 c 128,-1,45
 384 946 384 946 363 882.5 c 128,-1,46
 342 819 342 819 323 730 c 1,47,-1
 316 688 l 2,48,49
 313 665 313 665 310.5 642.5 c 128,-1,50
 308 620 308 620 306 599.5 c 128,-1,51
 304 579 304 579 304 562 c 0,52,53
 304 441 304 441 341 384.5 c 0,54,55
 357.142 359.85 357.142 359.85 379.946 345.955 c 1,40,-1
EndSplineSet
EndChar

StartChar: sterling
Encoding: 163 163 100
Width: 934
GlyphClass: 2
Flags: W
LayerCount: 2
Fore
SplineSet
905 363 m 1,0,1
 871 184 871 184 777.5 92 c 128,-1,2
 684 0 684 0 544 0 c 2,3,-1
 -42 0 l 1,4,-1
 -10 205 l 1,5,6
 67 243 67 243 114 309.5 c 128,-1,7
 161 376 161 376 178 481 c 2,8,-1
 198 604 l 1,9,-1
 45 604 l 1,10,-1
 71 774 l 1,11,-1
 217 774 l 1,12,-1
 259 1034 l 2,13,14
 274 1129 274 1129 301.5 1202.5 c 128,-1,15
 329 1276 329 1276 373 1326.5 c 128,-1,16
 417 1377 417 1377 481 1403.5 c 128,-1,17
 545 1430 545 1430 633 1430 c 0,18,19
 714 1430 714 1430 773.5 1406 c 128,-1,20
 833 1382 833 1382 873.5 1340.5 c 128,-1,21
 914 1299 914 1299 935.5 1244.5 c 128,-1,22
 957 1190 957 1190 963 1130 c 1,23,-1
 762 1082 l 1,24,25
 750 1166 750 1166 715.5 1202.5 c 128,-1,26
 681 1239 681 1239 623 1239 c 0,27,28
 593 1239 593 1239 569 1229 c 128,-1,29
 545 1219 545 1219 527 1196 c 128,-1,30
 509 1173 509 1173 496 1135.5 c 128,-1,31
 483 1098 483 1098 474 1042 c 2,32,-1
 431 774 l 1,33,-1
 665 774 l 1,34,-1
 638 604 l 1,35,-1
 403 604 l 1,36,-1
 381 478 l 2,37,38
 362 371 362 371 313 307.5 c 128,-1,39
 264 244 264 244 191 210 c 1,40,-1
 526 210 l 2,41,42
 604 210 604 210 652.5 255 c 128,-1,43
 701 300 701 300 721 402 c 1,44,-1
 905 363 l 1,0,1
EndSplineSet
EndChar

StartChar: currency
Encoding: 164 164 101
Width: 934
GlyphClass: 2
Flags: W
LayerCount: 2
Fore
SplineSet
122 684 m 256,0,1
 122 744 122 744 135 800 c 128,-1,2
 148 856 148 856 171 905 c 1,3,-1
 62 1038 l 1,4,-1
 191 1194 l 1,5,-1
 298 1061 l 1,6,7
 337 1089 337 1089 383.5 1104.5 c 128,-1,8
 430 1120 430 1120 479 1120 c 256,9,10
 528 1120 528 1120 573.5 1105 c 128,-1,11
 619 1090 619 1090 658 1061 c 1,12,-1
 769 1196 l 1,13,-1
 899 1038 l 1,14,-1
 787 903 l 1,15,16
 811 855 811 855 823.5 799.5 c 128,-1,17
 836 744 836 744 836 684 c 256,18,19
 836 624 836 624 824 569.5 c 128,-1,20
 812 515 812 515 789 467 c 1,21,-1
 899 334 l 1,22,-1
 769 174 l 1,23,-1
 660 309 l 1,24,25
 578 250 578 250 479 250 c 0,26,27
 430 250 430 250 384 264.5 c 128,-1,28
 338 279 338 279 298 307 c 1,29,-1
 188 170 l 1,30,-1
 59 328 l 1,31,-1
 170 465 l 1,32,33
 147 513 147 513 134.5 568.5 c 128,-1,34
 122 624 122 624 122 684 c 256,0,1
308 686 m 256,35,36
 308 643 308 643 321.5 605 c 128,-1,37
 335 567 335 567 358 538.5 c 128,-1,38
 381 510 381 510 412.5 493.5 c 128,-1,39
 444 477 444 477 479 477 c 256,40,41
 514 477 514 477 545 493.5 c 128,-1,42
 576 510 576 510 599 538.5 c 128,-1,43
 622 567 622 567 635.5 605 c 128,-1,44
 649 643 649 643 649 686 c 256,45,46
 649 729 649 729 635.5 767 c 128,-1,47
 622 805 622 805 599 833.5 c 128,-1,48
 576 862 576 862 545 878.5 c 128,-1,49
 514 895 514 895 479 895 c 256,50,51
 444 895 444 895 412.5 878.5 c 128,-1,52
 381 862 381 862 358 833.5 c 128,-1,53
 335 805 335 805 321.5 767 c 128,-1,54
 308 729 308 729 308 686 c 256,35,36
EndSplineSet
EndChar

StartChar: yen
Encoding: 165 165 102
Width: 934
GlyphClass: 2
Flags: W
LayerCount: 2
Fore
SplineSet
654 691 m 1,0,-1
 880 691 l 1,1,-1
 857 545 l 1,2,-1
 580 545 l 1,3,-1
 554 383 l 1,4,-1
 831 383 l 1,5,-1
 808 236 l 1,6,-1
 531 236 l 1,7,-1
 493 0 l 1,8,-1
 270 0 l 1,9,-1
 308 236 l 1,10,-1
 32 236 l 1,11,-1
 55 383 l 1,12,-1
 331 383 l 1,13,-1
 358 545 l 1,14,-1
 81 545 l 1,15,-1
 104 691 l 1,16,-1
 330 691 l 1,17,-1
 147 1409 l 1,18,-1
 380 1409 l 1,19,-1
 506 813 l 1,20,-1
 826 1409 l 1,21,-1
 1067 1409 l 1,22,-1
 654 691 l 1,0,-1
EndSplineSet
EndChar

StartChar: brokenbar
Encoding: 166 166 103
Width: 471
GlyphClass: 2
Flags: W
LayerCount: 2
Fore
SplineSet
158 736 m 1,0,-1
 158 1484 l 1,1,-1
 373 1484 l 1,2,-1
 373 736 l 1,3,-1
 158 736 l 1,0,-1
158 -425 m 1,4,-1
 158 324 l 1,5,-1
 373 324 l 1,6,-1
 373 -425 l 1,7,-1
 158 -425 l 1,4,-1
EndSplineSet
EndChar

StartChar: section
Encoding: 167 167 104
Width: 934
GlyphClass: 2
Flags: W
LayerCount: 2
Fore
SplineSet
589 1427 m 0,0,1
 660 1427 660 1427 723 1412.5 c 128,-1,2
 786 1398 786 1398 833.5 1366 c 128,-1,3
 881 1334 881 1334 909.5 1281.5 c 128,-1,4
 938 1229 938 1229 941 1153 c 1,5,-1
 741 1128 l 1,6,7
 731 1196 731 1196 685.5 1226.5 c 128,-1,8
 640 1257 640 1257 572 1257 c 0,9,10
 479 1257 479 1257 432 1223 c 128,-1,11
 385 1189 385 1189 385 1124 c 0,12,13
 385 1087 385 1087 404 1060.5 c 128,-1,14
 423 1034 423 1034 453 1016 c 128,-1,15
 483 998 483 998 520 985.5 c 128,-1,16
 557 973 557 973 592 963 c 0,17,18
 645 948 645 948 697.5 925 c 128,-1,19
 750 902 750 902 791.5 867.5 c 128,-1,20
 833 833 833 833 859 784.5 c 128,-1,21
 885 736 885 736 885 668 c 0,22,23
 885 604 885 604 870.5 556 c 128,-1,24
 856 508 856 508 829.5 472 c 128,-1,25
 803 436 803 436 765 411 c 128,-1,26
 727 386 727 386 681 368 c 1,27,28
 733 333 733 333 761 275 c 128,-1,29
 789 217 789 217 789 142 c 0,30,31
 789 48 789 48 759 -21.5 c 128,-1,32
 729 -91 729 -91 672.5 -137 c 128,-1,33
 616 -183 616 -183 534.5 -206 c 128,-1,34
 453 -229 453 -229 349 -229 c 0,35,36
 265 -229 265 -229 197.5 -213.5 c 128,-1,37
 130 -198 130 -198 81 -164 c 128,-1,38
 32 -130 32 -130 3 -75 c 128,-1,39
 -26 -20 -26 -20 -34 59 c 1,40,-1
 166 96 l 1,41,42
 177 13 177 13 224.5 -23 c 128,-1,43
 272 -59 272 -59 359 -59 c 0,44,45
 401 -59 401 -59 441.5 -52 c 128,-1,46
 482 -45 482 -45 514.5 -27.5 c 128,-1,47
 547 -10 547 -10 567 20 c 128,-1,48
 587 50 587 50 587 95 c 0,49,50
 587 142 587 142 567.5 172 c 128,-1,51
 548 202 548 202 514 222 c 128,-1,52
 480 242 480 242 435 256 c 1,53,-1
 341 283 l 2,54,55
 289 297 289 297 241.5 320 c 128,-1,56
 194 343 194 343 157.5 378.5 c 128,-1,57
 121 414 121 414 99.5 464.5 c 128,-1,58
 78 515 78 515 78 585 c 0,59,60
 78 642 78 642 94 686.5 c 128,-1,61
 110 731 110 731 139 765 c 128,-1,62
 168 799 168 799 209 822.5 c 128,-1,63
 250 846 250 846 300 861 c 1,64,65
 276 877 276 877 255 899 c 128,-1,66
 234 921 234 921 217.5 950.5 c 128,-1,67
 201 980 201 980 191 1017.5 c 128,-1,68
 181 1055 181 1055 181 1100 c 0,69,70
 181 1189 181 1189 209 1251 c 128,-1,71
 237 1313 237 1313 289.5 1352 c 128,-1,72
 342 1391 342 1391 418 1409 c 128,-1,73
 494 1427 494 1427 589 1427 c 0,0,1
468 780 m 1,74,75
 384 774 384 774 334 735 c 128,-1,76
 284 696 284 696 284 626 c 0,77,78
 284 586 284 586 301 558.5 c 128,-1,79
 318 531 318 531 347 511.5 c 128,-1,80
 376 492 376 492 413.5 479 c 128,-1,81
 451 466 451 466 492 454 c 1,82,83
 524 457 524 457 557.5 465.5 c 128,-1,84
 591 474 591 474 618.5 490.5 c 128,-1,85
 646 507 646 507 663.5 533 c 128,-1,86
 681 559 681 559 681 598 c 0,87,88
 681 633 681 633 670.5 659 c 128,-1,89
 660 685 660 685 635.5 706.5 c 128,-1,90
 611 728 611 728 570 745.5 c 128,-1,91
 529 763 529 763 468 780 c 1,74,75
EndSplineSet
EndChar

StartChar: dieresis
Encoding: 168 168 105
Width: 559
GlyphClass: 2
Flags: W
LayerCount: 2
Fore
SplineSet
466 1199 m 1,0,-1
 501 1418 l 1,1,-1
 679 1418 l 1,2,-1
 643 1199 l 1,3,-1
 466 1199 l 1,0,-1
111 1199 m 1,4,-1
 145 1418 l 1,5,-1
 320 1418 l 1,6,-1
 285 1199 l 1,7,-1
 111 1199 l 1,4,-1
EndSplineSet
EndChar

StartChar: copyright
Encoding: 169 169 106
Width: 1237
GlyphClass: 2
Flags: W
LayerCount: 2
Fore
SplineSet
1236 707 m 0,0,1
 1236 607 1236 607 1215 514.5 c 128,-1,2
 1194 422 1194 422 1155 341.5 c 128,-1,3
 1116 261 1116 261 1062.5 195.5 c 128,-1,4
 1009 130 1009 130 943 83 c 128,-1,5
 877 36 877 36 801 10 c 0,6,7
 726 -16 726 -16 644 -16 c 0,8,9
 563 -16 563 -16 487 10 c 128,-1,10
 411 36 411 36 345.5 83 c 128,-1,11
 280 130 280 130 225.5 195.5 c 128,-1,12
 171 261 171 261 132 341.5 c 128,-1,13
 93 422 93 422 72 514.5 c 128,-1,14
 51 607 51 607 51 707 c 256,15,16
 51 807 51 807 72 899 c 128,-1,17
 93 991 93 991 132 1071.5 c 128,-1,18
 171 1152 171 1152 225 1218 c 128,-1,19
 279 1284 279 1284 345 1331 c 128,-1,20
 411 1378 411 1378 486.5 1404 c 128,-1,21
 562 1430 562 1430 644 1430 c 0,22,23
 767 1430 767 1430 874.5 1373 c 128,-1,24
 982 1316 982 1316 1063 1218 c 128,-1,25
 1144 1120 1144 1120 1190 988.5 c 128,-1,26
 1236 857 1236 857 1236 707 c 0,0,1
1144 707 m 0,27,28
 1144 833 1144 833 1105 943.5 c 128,-1,29
 1066 1054 1066 1054 998 1136.5 c 128,-1,30
 930 1219 930 1219 839 1267 c 128,-1,31
 748 1315 748 1315 644 1315 c 0,32,33
 575 1315 575 1315 511.5 1293 c 128,-1,34
 448 1271 448 1271 392 1231.5 c 128,-1,35
 336 1192 336 1192 291 1136.5 c 128,-1,36
 246 1081 246 1081 213 1013.5 c 128,-1,37
 180 946 180 946 162.5 868.5 c 128,-1,38
 145 791 145 791 145 707 c 0,39,40
 145 580 145 580 184.5 469 c 128,-1,41
 224 358 224 358 291.5 275 c 128,-1,42
 359 192 359 192 449.5 144 c 128,-1,43
 540 96 540 96 644 96 c 128,-1,44
 748 96 748 96 839 144 c 128,-1,45
 930 192 930 192 998 275 c 128,-1,46
 1066 358 1066 358 1105 469 c 128,-1,47
 1144 580 1144 580 1144 707 c 0,27,28
654 285 m 0,48,49
 569 285 569 285 506.5 316.5 c 128,-1,50
 444 348 444 348 403 404.5 c 128,-1,51
 362 461 362 461 342.5 539 c 128,-1,52
 323 617 323 617 323 709 c 0,53,54
 323 805 323 805 342.5 882 c 128,-1,55
 362 959 362 959 402.5 1012.5 c 128,-1,56
 443 1066 443 1066 504 1095 c 128,-1,57
 565 1124 565 1124 647 1124 c 0,58,59
 711 1124 711 1124 758.5 1105.5 c 128,-1,60
 806 1087 806 1087 840 1055.5 c 128,-1,61
 874 1024 874 1024 897.5 982.5 c 128,-1,62
 921 941 921 941 936 895 c 1,63,-1
 808 854 l 1,64,65
 800 878 800 878 787 901 c 128,-1,66
 774 924 774 924 754.5 942.5 c 128,-1,67
 735 961 735 961 709.5 972 c 128,-1,68
 684 983 684 983 651 983 c 0,69,70
 603 983 603 983 568.5 963.5 c 128,-1,71
 534 944 534 944 512.5 908 c 128,-1,72
 491 872 491 872 481 821.5 c 128,-1,73
 471 771 471 771 471 709 c 256,74,75
 471 647 471 647 482 595 c 128,-1,76
 493 543 493 543 516 505.5 c 128,-1,77
 539 468 539 468 573 447 c 128,-1,78
 607 426 607 426 654 426 c 0,79,80
 688 426 688 426 714 439 c 128,-1,81
 740 452 740 452 760 473 c 128,-1,82
 780 494 780 494 793.5 519.5 c 128,-1,83
 807 545 807 545 815 569 c 1,84,-1
 946 522 l 1,85,86
 930 479 930 479 906.5 436.5 c 128,-1,87
 883 394 883 394 848.5 360 c 128,-1,88
 814 326 814 326 766.5 305.5 c 128,-1,89
 719 285 719 285 654 285 c 0,48,49
EndSplineSet
EndChar

StartChar: ordfeminine
Encoding: 170 170 107
Width: 621
GlyphClass: 2
Flags: W
LayerCount: 2
Fore
SplineSet
647 709 m 1,0,1
 626 700 626 700 602 698.5 c 128,-1,2
 578 697 578 697 556 697 c 0,3,4
 502 697 502 697 473 723 c 128,-1,5
 444 749 444 749 444 795 c 0,6,7
 444 804 444 804 444 815 c 256,8,9
 444 826 444 826 446 836 c 1,10,-1
 444 836 l 1,11,12
 426 802 426 802 407.5 774.5 c 128,-1,13
 389 747 389 747 366.5 728 c 128,-1,14
 344 709 344 709 315.5 699 c 128,-1,15
 287 689 287 689 249 689 c 0,16,17
 208 689 208 689 177.5 705.5 c 128,-1,18
 147 722 147 722 126.5 749 c 128,-1,19
 106 776 106 776 95.5 811 c 128,-1,20
 85 846 85 846 85 884 c 0,21,22
 85 962 85 962 111.5 1009.5 c 128,-1,23
 138 1057 138 1057 179 1083 c 128,-1,24
 220 1109 220 1109 272 1118 c 128,-1,25
 324 1127 324 1127 374 1128 c 2,26,-1
 475 1130 l 1,27,-1
 479 1156 l 1,28,29
 486 1192 486 1192 487 1217 c 1,30,31
 487 1259 487 1259 469 1279 c 128,-1,32
 451 1299 451 1299 419 1299 c 0,33,34
 403 1299 403 1299 387 1296.5 c 128,-1,35
 371 1294 371 1294 356.5 1284.5 c 128,-1,36
 342 1275 342 1275 330 1257 c 128,-1,37
 318 1239 318 1239 311 1208 c 1,38,-1
 171 1227 l 1,39,40
 187 1315 187 1315 248 1366.5 c 128,-1,41
 309 1418 309 1418 422 1418 c 0,42,43
 533 1418 533 1418 584 1371.5 c 128,-1,44
 635 1325 635 1325 635 1227 c 0,45,46
 635 1207 635 1207 630 1179 c 2,47,-1
 622 1124 l 1,48,-1
 583 895 l 2,49,50
 582 884 582 884 580.5 871.5 c 128,-1,51
 579 859 579 859 579 848 c 0,52,53
 579 832 579 832 584.5 823.5 c 128,-1,54
 590 815 590 815 597 811 c 128,-1,55
 604 807 604 807 611.5 806 c 128,-1,56
 619 805 619 805 622 805 c 0,57,58
 630 805 630 805 636 806 c 128,-1,59
 642 807 642 807 655 811 c 1,60,-1
 647 709 l 1,0,1
460 1029 m 1,61,-1
 379 1027 l 2,62,63
 316 1025 316 1025 280 996.5 c 128,-1,64
 244 968 244 968 244 914 c 0,65,66
 244 863 244 863 265 839.5 c 128,-1,67
 286 816 286 816 317 816 c 0,68,69
 332 816 332 816 350.5 823.5 c 128,-1,70
 369 831 369 831 387.5 848.5 c 128,-1,71
 406 866 406 866 422 896 c 1,72,73
 436 925 436 925 446 969 c 2,74,-1
 460 1029 l 1,61,-1
EndSplineSet
EndChar

StartChar: guillemotleft
Encoding: 171 171 108
Width: 934
GlyphClass: 2
Flags: W
LayerCount: 2
Fore
SplineSet
592 139 m 1,0,-1
 435 500 l 1,1,-1
 446 571 l 1,2,-1
 711 938 l 1,3,-1
 907 938 l 1,4,-1
 902 897 l 1,5,-1
 632 531 l 1,6,-1
 786 178 l 1,7,-1
 782 139 l 1,8,-1
 592 139 l 1,0,-1
216 139 m 1,9,-1
 59 500 l 1,10,-1
 71 571 l 1,11,-1
 335 938 l 1,12,-1
 531 938 l 1,13,-1
 526 897 l 1,14,-1
 257 531 l 1,15,-1
 411 178 l 1,16,-1
 407 139 l 1,17,-1
 216 139 l 1,9,-1
EndSplineSet
EndChar

StartChar: logicalnot
Encoding: 172 172 109
Width: 981
GlyphClass: 2
Flags: W
LayerCount: 2
Fore
SplineSet
720 141 m 1,0,-1
 720 569 l 1,1,-1
 62 569 l 1,2,-1
 62 793 l 1,3,-1
 904 793 l 1,4,-1
 904 141 l 1,5,-1
 720 141 l 1,0,-1
EndSplineSet
EndChar

StartChar: registered
Encoding: 174 174 110
Width: 1237
GlyphClass: 2
Flags: W
LayerCount: 2
Fore
SplineSet
1236 707 m 0,0,1
 1236 607 1236 607 1215 514.5 c 128,-1,2
 1194 422 1194 422 1155 341.5 c 128,-1,3
 1116 261 1116 261 1062.5 195.5 c 128,-1,4
 1009 130 1009 130 943 83 c 128,-1,5
 877 36 877 36 801 10 c 0,6,7
 726 -16 726 -16 644 -16 c 0,8,9
 563 -16 563 -16 487 10 c 128,-1,10
 411 36 411 36 345.5 83 c 128,-1,11
 280 130 280 130 225.5 195.5 c 128,-1,12
 171 261 171 261 132 341.5 c 128,-1,13
 93 422 93 422 72 514.5 c 128,-1,14
 51 607 51 607 51 707 c 256,15,16
 51 807 51 807 72 899 c 128,-1,17
 93 991 93 991 132 1071.5 c 128,-1,18
 171 1152 171 1152 225 1218 c 128,-1,19
 279 1284 279 1284 345 1331 c 128,-1,20
 411 1378 411 1378 486.5 1404 c 128,-1,21
 562 1430 562 1430 644 1430 c 0,22,23
 767 1430 767 1430 874.5 1373 c 128,-1,24
 982 1316 982 1316 1063 1218 c 128,-1,25
 1144 1120 1144 1120 1190 988.5 c 128,-1,26
 1236 857 1236 857 1236 707 c 0,0,1
1144 707 m 0,27,28
 1144 833 1144 833 1105 943.5 c 128,-1,29
 1066 1054 1066 1054 998 1136.5 c 128,-1,30
 930 1219 930 1219 839 1267 c 128,-1,31
 748 1315 748 1315 644 1315 c 0,32,33
 575 1315 575 1315 511.5 1293 c 128,-1,34
 448 1271 448 1271 392 1231.5 c 128,-1,35
 336 1192 336 1192 291 1136.5 c 128,-1,36
 246 1081 246 1081 213 1013.5 c 128,-1,37
 180 946 180 946 162.5 868.5 c 128,-1,38
 145 791 145 791 145 707 c 0,39,40
 145 580 145 580 184.5 469 c 128,-1,41
 224 358 224 358 291.5 275 c 128,-1,42
 359 192 359 192 449.5 144 c 128,-1,43
 540 96 540 96 644 96 c 128,-1,44
 748 96 748 96 839 144 c 128,-1,45
 930 192 930 192 998 275 c 128,-1,46
 1066 358 1066 358 1105 469 c 128,-1,47
 1144 580 1144 580 1144 707 c 0,27,28
781 297 m 1,48,-1
 635 610 l 1,49,-1
 539 610 l 1,50,-1
 539 297 l 1,51,-1
 393 297 l 1,52,-1
 393 1112 l 1,53,-1
 664 1112 l 2,54,55
 789 1112 789 1112 851.5 1047.5 c 128,-1,56
 914 983 914 983 914 870 c 0,57,58
 914 776 914 776 874.5 717 c 128,-1,59
 835 658 835 658 771 633 c 1,60,-1
 946 297 l 1,61,-1
 781 297 l 1,48,-1
766 868 m 0,62,63
 766 925 766 925 735.5 955 c 128,-1,64
 705 985 705 985 648 985 c 2,65,-1
 539 985 l 1,66,-1
 539 739 l 1,67,-1
 657 739 l 2,68,69
 711 739 711 739 738.5 774.5 c 128,-1,70
 766 810 766 810 766 868 c 0,62,63
EndSplineSet
EndChar

StartChar: macron
Encoding: 175 175 111
Width: 559
GlyphClass: 2
Flags: W
LayerCount: 2
Fore
SplineSet
567 1452 m 1,0,-1
 -8 1452 l 1,1,-1
 -8 1546 l 1,2,-1
 567 1546 l 1,3,-1
 567 1452 l 1,0,-1
EndSplineSet
EndChar

StartChar: degree
Encoding: 176 176 112
Width: 819
GlyphClass: 2
Flags: W
LayerCount: 2
Fore
SplineSet
830 1110 m 0,0,1
 830 1044 830 1044 804.5 986.5 c 128,-1,2
 779 929 779 929 735.5 886.5 c 128,-1,3
 692 844 692 844 633.5 819.5 c 128,-1,4
 575 795 575 795 509 795 c 256,5,6
 443 795 443 795 384.5 819.5 c 128,-1,7
 326 844 326 844 282.5 886.5 c 128,-1,8
 239 929 239 929 214 986.5 c 128,-1,9
 189 1044 189 1044 189 1110 c 0,10,11
 189 1177 189 1177 214 1234.5 c 128,-1,12
 239 1292 239 1292 282.5 1334.5 c 128,-1,13
 326 1377 326 1377 384.5 1401 c 128,-1,14
 443 1425 443 1425 509 1425 c 256,15,16
 575 1425 575 1425 633.5 1401 c 128,-1,17
 692 1377 692 1377 735.5 1334.5 c 128,-1,18
 779 1292 779 1292 804.5 1234.5 c 128,-1,19
 830 1177 830 1177 830 1110 c 0,0,1
672 1110 m 0,20,21
 672 1145 672 1145 659.5 1175.5 c 128,-1,22
 647 1206 647 1206 625 1228.5 c 128,-1,23
 603 1251 603 1251 573.5 1263.5 c 128,-1,24
 544 1276 544 1276 509 1276 c 256,25,26
 474 1276 474 1276 444 1263.5 c 128,-1,27
 414 1251 414 1251 391.5 1228.5 c 128,-1,28
 369 1206 369 1206 356 1175.5 c 128,-1,29
 343 1145 343 1145 343 1110 c 0,30,31
 343 1076 343 1076 356 1045.5 c 128,-1,32
 369 1015 369 1015 391.5 992 c 128,-1,33
 414 969 414 969 444 955.5 c 128,-1,34
 474 942 474 942 509 942 c 256,35,36
 544 942 544 942 573.5 955.5 c 128,-1,37
 603 969 603 969 625 992 c 128,-1,38
 647 1015 647 1015 659.5 1045.5 c 128,-1,39
 672 1076 672 1076 672 1110 c 0,20,21
EndSplineSet
EndChar

StartChar: plusminus
Encoding: 177 177 113
Width: 1124
GlyphClass: 2
Flags: W
LayerCount: 2
Fore
SplineSet
712 707 m 1,0,-1
 712 366 l 1,1,-1
 488 366 l 1,2,-1
 488 707 l 1,3,-1
 87 707 l 1,4,-1
 87 930 l 1,5,-1
 488 930 l 1,6,-1
 488 1270 l 1,7,-1
 712 1270 l 1,8,-1
 712 930 l 1,9,-1
 1114 930 l 1,10,-1
 1114 707 l 1,11,-1
 712 707 l 1,0,-1
87 0 m 1,12,-1
 87 223 l 1,13,-1
 1114 223 l 1,14,-1
 1114 0 l 1,15,-1
 87 0 l 1,12,-1
EndSplineSet
EndChar

StartChar: uni00B2
Encoding: 178 178 114
Width: 559
GlyphClass: 2
Flags: W
LayerCount: 2
Fore
SplineSet
58 696 m 1,0,-1
 78 816 l 1,1,2
 108 873 108 873 146.5 914 c 128,-1,3
 185 955 185 955 225.5 986.5 c 128,-1,4
 266 1018 266 1018 305.5 1044.5 c 128,-1,5
 345 1071 345 1071 376 1098 c 128,-1,6
 407 1125 407 1125 425.5 1156.5 c 128,-1,7
 444 1188 444 1188 444 1231 c 0,8,9
 444 1260 444 1260 426 1279.5 c 128,-1,10
 408 1299 408 1299 380 1299 c 0,11,12
 350 1299 350 1299 324 1279 c 128,-1,13
 298 1259 298 1259 286 1202 c 1,14,-1
 153 1236 l 1,15,16
 178 1335 178 1335 235 1380.5 c 128,-1,17
 292 1426 292 1426 393 1426 c 0,18,19
 445 1426 445 1426 482.5 1411.5 c 128,-1,20
 520 1397 520 1397 545 1371.5 c 128,-1,21
 570 1346 570 1346 582.5 1312 c 128,-1,22
 595 1278 595 1278 595 1239 c 0,23,24
 595 1179 595 1179 574.5 1134.5 c 128,-1,25
 554 1090 554 1090 522.5 1055.5 c 128,-1,26
 491 1021 491 1021 452 994 c 2,27,-1
 374 942 l 2,28,29
 337 918 337 918 305 893.5 c 128,-1,30
 273 869 273 869 255 839 c 1,31,-1
 541 839 l 1,32,-1
 520 696 l 1,33,-1
 58 696 l 1,0,-1
EndSplineSet
EndChar

StartChar: uni00B3
Encoding: 179 179 115
Width: 559
GlyphClass: 2
Flags: W
LayerCount: 2
Fore
SplineSet
407 915 m 0,0,1
 407 942 407 942 398.5 958.5 c 128,-1,2
 390 975 390 975 377.5 984 c 128,-1,3
 365 993 365 993 348.5 996.5 c 128,-1,4
 332 1000 332 1000 316 1000 c 2,5,-1
 260 1000 l 1,6,-1
 280 1126 l 1,7,-1
 329 1126 l 2,8,9
 380 1126 380 1126 411 1151 c 128,-1,10
 442 1176 442 1176 442 1221 c 0,11,12
 442 1260 442 1260 425 1282 c 128,-1,13
 408 1304 408 1304 374 1304 c 256,14,15
 340 1304 340 1304 316 1283 c 256,16,17
 292 1262 292 1262 280 1210 c 1,18,-1
 146 1234 l 1,19,20
 158 1290 158 1290 180 1326.5 c 128,-1,21
 202 1363 202 1363 233.5 1385.5 c 128,-1,22
 265 1408 265 1408 304 1417 c 128,-1,23
 343 1426 343 1426 390 1426 c 0,24,25
 487 1426 487 1426 541 1381.5 c 128,-1,26
 595 1337 595 1337 595 1247 c 0,27,28
 595 1215 595 1215 585 1184 c 128,-1,29
 575 1153 575 1153 556.5 1128.5 c 128,-1,30
 538 1104 538 1104 509.5 1087.5 c 128,-1,31
 481 1071 481 1071 445 1067 c 1,32,-1
 444 1065 l 1,33,34
 496 1053 496 1053 528.5 1014.5 c 128,-1,35
 561 976 561 976 561 913 c 0,36,37
 561 862 561 862 542.5 820.5 c 128,-1,38
 524 779 524 779 490.5 749.5 c 128,-1,39
 457 720 457 720 409 704 c 128,-1,40
 361 688 361 688 302 688 c 0,41,42
 241 688 241 688 200 705 c 128,-1,43
 159 722 159 722 133 750 c 128,-1,44
 107 778 107 778 95 813.5 c 128,-1,45
 83 849 83 849 79 885 c 1,46,-1
 227 910 l 1,47,48
 234 862 234 862 254.5 836.5 c 128,-1,49
 275 811 275 811 316 811 c 0,50,51
 354 811 354 811 380.5 837.5 c 128,-1,52
 407 864 407 864 407 915 c 0,0,1
EndSplineSet
EndChar

StartChar: acute
Encoding: 180 180 116
Width: 559
GlyphClass: 2
Flags: W
LayerCount: 2
Fore
SplineSet
209 1183 m 1,0,-1
 214 1214 l 1,1,-1
 416 1502 l 1,2,-1
 643 1502 l 1,3,-1
 637 1459 l 1,4,-1
 329 1183 l 1,5,-1
 209 1183 l 1,0,-1
EndSplineSet
EndChar

StartChar: uni00B5
Encoding: 181 181 117
Width: 1022
GlyphClass: 2
Flags: W
LayerCount: 2
Fore
SplineSet
758 -20 m 0,0,1
 716 -20 716 -20 688 -10.5 c 128,-1,2
 660 -1 660 -1 644 17 c 128,-1,3
 628 35 628 35 621.5 61.5 c 128,-1,4
 615 88 615 88 615 122 c 2,5,6
 615 122 615 122 615 143 c 0,7,8
 615 153 615 153 617 164 c 1,9,-1
 613 164 l 1,10,11
 577 77 577 77 531 28.5 c 128,-1,12
 485 -20 485 -20 415 -20 c 0,13,14
 364 -20 364 -20 330.5 4.5 c 128,-1,15
 297 29 297 29 284 70 c 1,16,-1
 279 70 l 1,17,18
 276 42 276 42 274 26.5 c 128,-1,19
 272 11 272 11 271 0.5 c 128,-1,20
 270 -10 270 -10 269 -19.5 c 128,-1,21
 268 -29 268 -29 265 -45 c 2,22,-1
 202 -425 l 1,23,-1
 -41 -425 l 1,24,-1
 211 1082 l 1,25,-1
 455 1082 l 1,26,-1
 352 477 l 2,27,28
 347 444 347 444 344.5 414 c 128,-1,29
 342 384 342 384 341 358 c 1,30,31
 341 281 341 281 366 237 c 128,-1,32
 391 193 391 193 450 193 c 0,33,34
 487 193 487 193 518.5 215.5 c 128,-1,35
 550 238 550 238 575 278.5 c 128,-1,36
 600 319 600 319 618 376.5 c 128,-1,37
 636 434 636 434 646 504 c 1,38,-1
 743 1082 l 1,39,-1
 986 1082 l 1,40,-1
 859 325 l 1,41,-1
 854 290 l 2,42,43
 851 274 851 274 851 260 c 0,44,45
 851 219 851 219 865 205 c 128,-1,46
 879 191 879 191 895 191 c 0,47,48
 904 191 904 191 915 193 c 128,-1,49
 926 195 926 195 935 198 c 1,50,-1
 921 5 l 1,51,52
 888 -4 888 -4 845 -12 c 128,-1,53
 802 -20 802 -20 758 -20 c 0,0,1
EndSplineSet
EndChar

StartChar: paragraph
Encoding: 182 182 118
Width: 934
GlyphClass: 2
Flags: W
LayerCount: 2
Fore
SplineSet
800 1266 m 1,0,-1
 800 -264 l 1,1,-1
 672 -264 l 1,2,-1
 672 1266 l 1,3,-1
 512 1266 l 1,4,-1
 512 -264 l 1,5,-1
 385 -264 l 1,6,-1
 385 694 l 1,7,8
 319 694 319 694 264 716.5 c 128,-1,9
 209 739 209 739 169.5 783 c 128,-1,10
 130 827 130 827 108.5 894 c 128,-1,11
 87 961 87 961 87 1049 c 0,12,13
 87 1133 87 1133 107.5 1199.5 c 128,-1,14
 128 1266 128 1266 167 1312.5 c 128,-1,15
 206 1359 206 1359 262.5 1384 c 128,-1,16
 319 1409 319 1409 391 1409 c 2,17,-1
 907 1409 l 1,18,-1
 907 1266 l 1,19,-1
 800 1266 l 1,0,-1
EndSplineSet
EndChar

StartChar: periodcentered
Encoding: 183 183 119
AltUni2: 002219.ffffffff.0 002219.ffffffff.0 002219.ffffffff.0 002219.ffffffff.0
Width: 559
GlyphClass: 2
Flags: W
LayerCount: 2
Fore
SplineSet
124 531 m 1,0,-1
 182 836 l 1,1,-1
 465 836 l 1,2,-1
 407 531 l 1,3,-1
 124 531 l 1,0,-1
EndSplineSet
EndChar

StartChar: cedilla
Encoding: 184 184 120
Width: 559
GlyphClass: 2
Flags: W
LayerCount: 2
Fore
SplineSet
159 -425 m 0,0,1
 140 -425 140 -425 117.5 -423.5 c 128,-1,2
 95 -422 95 -422 72 -419 c 1,3,-1
 96 -302 l 1,4,5
 116 -306 116 -306 132.5 -307.5 c 128,-1,6
 149 -309 149 -309 163 -309 c 0,7,8
 229 -309 229 -309 259.5 -291.5 c 128,-1,9
 290 -274 290 -274 290 -232 c 0,10,11
 290 -201 290 -201 269 -185 c 128,-1,12
 248 -169 248 -169 200 -169 c 2,13,14
 200 -169 200 -169 179 -169 c 0,15,16
 169 -169 169 -169 157 -171 c 1,17,-1
 237 0 l 1,18,-1
 352 0 l 1,19,-1
 313 -83 l 1,20,21
 370 -84 370 -84 406 -116.5 c 128,-1,22
 442 -149 442 -149 442 -215 c 0,23,24
 442 -312 442 -312 373 -368.5 c 128,-1,25
 304 -425 304 -425 159 -425 c 0,0,1
EndSplineSet
EndChar

StartChar: uni00B9
Encoding: 185 185 121
Width: 559
GlyphClass: 2
Flags: W
LayerCount: 2
Fore
SplineSet
80 693 m 1,0,-1
 99 814 l 1,1,-1
 250 814 l 1,2,-1
 325 1282 l 1,3,-1
 166 1174 l 1,4,-1
 185 1296 l 1,5,-1
 351 1413 l 1,6,-1
 494 1413 l 1,7,-1
 399 814 l 1,8,-1
 539 814 l 1,9,-1
 520 693 l 1,10,-1
 80 693 l 1,0,-1
EndSplineSet
EndChar

StartChar: ordmasculine
Encoding: 186 186 122
Width: 612
GlyphClass: 2
Flags: W
LayerCount: 2
Fore
SplineSet
677 1142 m 0,0,1
 677 1037 677 1037 651 953 c 128,-1,2
 625 869 625 869 579 810.5 c 128,-1,3
 533 752 533 752 470.5 720.5 c 128,-1,4
 408 689 408 689 335 689 c 0,5,6
 278 689 278 689 231.5 709 c 128,-1,7
 185 729 185 729 152 766.5 c 128,-1,8
 119 804 119 804 101 858 c 128,-1,9
 83 912 83 912 83 980 c 0,10,11
 83 1080 83 1080 108 1161 c 128,-1,12
 133 1242 133 1242 178 1299 c 128,-1,13
 223 1356 223 1356 285 1387 c 128,-1,14
 347 1418 347 1418 421 1418 c 0,15,16
 546 1418 546 1418 611.5 1344.5 c 128,-1,17
 677 1271 677 1271 677 1142 c 0,0,1
511 1128 m 1,18,19
 511 1171 511 1171 503 1200 c 128,-1,20
 495 1229 495 1229 481 1247 c 128,-1,21
 467 1265 467 1265 448.5 1272.5 c 128,-1,22
 430 1280 430 1280 410 1280 c 256,23,24
 390 1280 390 1280 367 1274 c 128,-1,25
 344 1268 344 1268 324 1248.5 c 128,-1,26
 304 1229 304 1229 287 1192.5 c 128,-1,27
 270 1156 270 1156 260 1095 c 0,28,29
 256 1065 256 1065 253 1038 c 128,-1,30
 250 1011 250 1011 250 987 c 0,31,32
 250 941 250 941 258.5 910 c 128,-1,33
 267 879 267 879 281 860.5 c 128,-1,34
 295 842 295 842 313 834 c 128,-1,35
 331 826 331 826 351 826 c 128,-1,36
 371 826 371 826 391.5 830 c 128,-1,37
 412 834 412 834 432 852 c 128,-1,38
 452 870 452 870 469.5 907.5 c 128,-1,39
 487 945 487 945 499 1012 c 1,40,41
 506 1044 506 1044 507.5 1071.5 c 128,-1,42
 509 1099 509 1099 511 1128 c 1,18,19
EndSplineSet
EndChar

StartChar: guillemotright
Encoding: 187 187 123
Width: 934
GlyphClass: 2
Flags: W
LayerCount: 2
Fore
SplineSet
346 938 m 1,0,-1
 503 577 l 1,1,-1
 492 506 l 1,2,-1
 227 139 l 1,3,-1
 31 139 l 1,4,-1
 36 180 l 1,5,-1
 306 546 l 1,6,-1
 152 899 l 1,7,-1
 156 938 l 1,8,-1
 346 938 l 1,0,-1
722 938 m 1,9,-1
 879 577 l 1,10,-1
 868 506 l 1,11,-1
 603 139 l 1,12,-1
 407 139 l 1,13,-1
 412 180 l 1,14,-1
 681 546 l 1,15,-1
 527 899 l 1,16,-1
 531 938 l 1,17,-1
 722 938 l 1,9,-1
EndSplineSet
EndChar

StartChar: questiondown
Encoding: 191 191 127
Width: 1026
GlyphClass: 2
Flags: W
LayerCount: 2
Fore
SplineSet
402 -348 m 0,0,1
 317 -348 317 -348 246.5 -324.5 c 128,-1,2
 176 -301 176 -301 126 -256 c 128,-1,3
 76 -211 76 -211 48.5 -145 c 128,-1,4
 21 -79 21 -79 21 7 c 256,5,6
 21 93 21 93 48 158.5 c 128,-1,7
 75 224 75 224 118 276 c 128,-1,8
 161 328 161 328 214.5 369 c 128,-1,9
 268 410 268 410 323 447 c 1,10,11
 323 447 323 447 376 490 c 1,12,13
 400 511 400 511 419 535 c 128,-1,14
 438 559 438 559 450.5 588 c 128,-1,15
 463 617 463 617 467 656 c 1,16,-1
 686 656 l 1,17,18
 675 586 675 586 654 534.5 c 128,-1,19
 633 483 633 483 603 442.5 c 128,-1,20
 573 402 573 402 534 368 c 128,-1,21
 495 334 495 334 447 298 c 0,22,23
 390 255 390 255 353 222 c 128,-1,24
 316 189 316 189 293.5 158.5 c 128,-1,25
 271 128 271 128 262 97 c 128,-1,26
 253 66 253 66 253 27 c 0,27,28
 253 -36 253 -36 292.5 -77.5 c 128,-1,29
 332 -119 332 -119 415 -119 c 0,30,31
 505 -119 505 -119 563.5 -72.5 c 128,-1,32
 622 -26 622 -26 644 74 c 1,33,-1
 862 34 l 1,34,35
 840 -54 840 -54 802 -124.5 c 128,-1,36
 764 -195 764 -195 707.5 -244.5 c 128,-1,37
 651 -294 651 -294 575.5 -321 c 128,-1,38
 500 -348 500 -348 402 -348 c 0,0,1
759 1082 m 1,39,-1
 717 812 l 1,40,-1
 480 812 l 1,41,-1
 522 1082 l 1,42,-1
 759 1082 l 1,39,-1
EndSplineSet
EndChar

StartChar: AE
Encoding: 198 198 134
Width: 1679
GlyphClass: 2
Flags: W
LayerCount: 2
Fore
SplineSet
686 0 m 1,0,-1
 744 360 l 1,1,-1
 375 360 l 1,2,-1
 176 0 l 1,3,-1
 -80 0 l 1,4,-1
 712 1409 l 1,5,-1
 1721 1409 l 1,6,-1
 1684 1182 l 1,7,-1
 1109 1182 l 1,8,-1
 1053 827 l 1,9,-1
 1577 827 l 1,10,-1
 1541 606 l 1,11,-1
 1017 606 l 1,12,-1
 958 227 l 1,13,-1
 1566 227 l 1,14,-1
 1530 0 l 1,15,-1
 686 0 l 1,0,-1
876 1192 m 1,16,-1
 826 1192 l 1,17,18
 822 1183 822 1183 806 1155 c 1,19,-1
 774 1094 l 1,20,-1
 739 1028 l 1,21,-1
 714 983 l 1,22,-1
 494 582 l 1,23,-1
 779 582 l 1,24,-1
 876 1192 l 1,16,-1
EndSplineSet
EndChar

StartChar: Eth
Encoding: 208 208 144
Width: 1212
GlyphClass: 2
Flags: W
LayerCount: 2
Fore
SplineSet
601 1409 m 2,0,1
 735 1409 735 1409 839.5 1371 c 128,-1,2
 944 1333 944 1333 1016 1257.5 c 128,-1,3
 1088 1182 1088 1182 1126 1069.5 c 128,-1,4
 1164 957 1164 957 1164 807 c 0,5,6
 1164 674 1164 674 1139 562.5 c 128,-1,7
 1114 451 1114 451 1069.5 361.5 c 128,-1,8
 1025 272 1025 272 963 204.5 c 128,-1,9
 901 137 901 137 828 91.5 c 128,-1,10
 755 46 755 46 672 23 c 128,-1,11
 589 0 589 0 503 0 c 2,12,-1
 30 0 l 1,13,-1
 124 594 l 1,14,-1
 19 594 l 1,15,-1
 53 813 l 1,16,-1
 159 813 l 1,17,-1
 254 1409 l 1,18,-1
 601 1409 l 2,0,1
400 813 m 1,19,-1
 692 813 l 1,20,-1
 656 594 l 1,21,-1
 365 594 l 1,22,-1
 307 228 l 1,23,-1
 496 228 l 2,24,25
 591 228 591 228 672 265 c 128,-1,26
 753 302 753 302 812 373.5 c 128,-1,27
 871 445 871 445 904.5 550.5 c 128,-1,28
 938 656 938 656 938 794 c 0,29,30
 938 892 938 892 915 964.5 c 128,-1,31
 892 1037 892 1037 849 1085 c 128,-1,32
 806 1133 806 1133 744 1157 c 128,-1,33
 682 1181 682 1181 603 1181 c 2,34,-1
 459 1181 l 1,35,-1
 400 813 l 1,19,-1
EndSplineSet
EndChar

StartChar: multiply
Encoding: 215 215 151
Width: 981
GlyphClass: 2
Flags: W
LayerCount: 2
Fore
SplineSet
103 326 m 1,0,-1
 395 684 l 1,1,-1
 107 1036 l 1,2,-1
 236 1192 l 1,3,-1
 525 842 l 1,4,-1
 814 1194 l 1,5,-1
 943 1036 l 1,6,-1
 655 682 l 1,7,-1
 943 332 l 1,8,-1
 814 172 l 1,9,-1
 525 526 l 1,10,-1
 233 168 l 1,11,-1
 103 326 l 1,0,-1
EndSplineSet
EndChar

StartChar: Oslash
Encoding: 216 216 152
Width: 1307
GlyphClass: 2
Flags: W
LayerCount: 2
Fore
SplineSet
761 1430 m 0,0,1
 859 1430 859 1430 940.5 1403.5 c 128,-1,2
 1022 1377 1022 1377 1086 1326 c 1,3,-1
 1194 1466 l 1,4,-1
 1360 1466 l 1,5,-1
 1177 1227 l 1,6,7
 1227 1154 1227 1154 1253 1059.5 c 128,-1,8
 1279 965 1279 965 1279 851 c 0,9,10
 1279 802 1279 802 1275 749.5 c 128,-1,11
 1271 697 1271 697 1263 649 c 0,12,13
 1238 495 1238 495 1180 371.5 c 128,-1,14
 1122 248 1122 248 1036.5 161 c 128,-1,15
 951 74 951 74 840 27 c 128,-1,16
 729 -20 729 -20 596 -20 c 0,17,18
 504 -20 504 -20 428.5 3 c 128,-1,19
 353 26 353 26 293 71 c 1,20,-1
 199 -53 l 1,21,-1
 29 -53 l 1,22,-1
 197 167 l 1,23,24
 140 245 140 245 111 347.5 c 128,-1,25
 82 450 82 450 82 573 c 0,26,27
 82 619 82 619 85.5 667 c 128,-1,28
 89 715 89 715 98 764 c 0,29,30
 123 914 123 914 179.5 1037 c 128,-1,31
 236 1160 236 1160 320.5 1247.5 c 128,-1,32
 405 1335 405 1335 516 1382.5 c 128,-1,33
 627 1430 627 1430 761 1430 c 0,0,1
750 1197 m 0,34,35
 662 1197 662 1197 593 1165 c 128,-1,36
 524 1133 524 1133 473.5 1073 c 128,-1,37
 423 1013 423 1013 389.5 925.5 c 128,-1,38
 356 838 356 838 339 727 c 0,39,40
 333 690 333 690 330.5 652.5 c 128,-1,41
 328 615 328 615 328 581 c 0,42,43
 328 460 328 460 360 379 c 1,44,-1
 934 1127 l 1,45,46
 862 1197 862 1197 750 1197 c 0,34,35
1030 827 m 0,47,48
 1030 927 1030 927 1006 1002 c 1,49,-1
 441 264 l 1,50,51
 506 212 506 212 608 212 c 0,52,53
 697 212 697 212 765.5 244.5 c 128,-1,54
 834 277 834 277 885 338 c 128,-1,55
 936 399 936 399 969.5 485.5 c 128,-1,56
 1003 572 1003 572 1020 680 c 0,57,58
 1026 716 1026 716 1028 757 c 128,-1,59
 1030 798 1030 798 1030 827 c 0,47,48
EndSplineSet
EndChar

StartChar: Thorn
Encoding: 222 222 158
Width: 1120
GlyphClass: 2
Flags: W
LayerCount: 2
Fore
SplineSet
271 0 m 1,0,-1
 30 0 l 1,1,-1
 254 1409 l 1,2,-1
 496 1409 l 1,3,-1
 460 1184 l 1,4,-1
 662 1184 l 2,5,6
 764 1184 764 1184 843 1155 c 128,-1,7
 922 1126 922 1126 976.5 1071 c 128,-1,8
 1031 1016 1031 1016 1059 938 c 128,-1,9
 1087 860 1087 860 1087 762 c 0,10,11
 1087 648 1087 648 1054 557 c 128,-1,12
 1021 466 1021 466 960 402.5 c 128,-1,13
 899 339 899 339 814 305 c 128,-1,14
 729 271 729 271 625 271 c 2,15,-1
 315 271 l 1,16,-1
 271 0 l 1,0,-1
351 498 m 1,17,-1
 588 498 l 2,18,19
 715 498 715 498 778.5 556 c 128,-1,20
 842 614 842 614 842 746 c 0,21,22
 842 801 842 801 827.5 840.5 c 128,-1,23
 813 880 813 880 785.5 905.5 c 128,-1,24
 758 931 758 931 721 943 c 128,-1,25
 684 955 684 955 639 955 c 2,26,-1
 424 955 l 1,27,-1
 351 498 l 1,17,-1
EndSplineSet
EndChar

StartChar: germandbls
Encoding: 223 223 159
Width: 1026
GlyphClass: 2
Flags: W
LayerCount: 2
Fore
SplineSet
29 0 m 1,0,-1
 193 1027 l 1,1,2
 234 1264 234 1264 347.5 1374 c 128,-1,3
 461 1484 461 1484 654 1484 c 0,4,5
 727 1484 727 1484 786 1464.5 c 128,-1,6
 845 1445 845 1445 886.5 1408 c 128,-1,7
 928 1371 928 1371 951 1317.5 c 128,-1,8
 974 1264 974 1264 974 1196 c 0,9,10
 974 1127 974 1127 956 1076.5 c 128,-1,11
 938 1026 938 1026 912.5 989 c 128,-1,12
 887 952 887 952 856 924 c 2,13,-1
 799 870 l 2,14,15
 773 845 773 845 755.5 819 c 128,-1,16
 738 793 738 793 738 759 c 0,17,18
 738 723 738 723 753 697.5 c 128,-1,19
 768 672 768 672 791 648.5 c 128,-1,20
 814 625 814 625 841.5 600.5 c 128,-1,21
 869 576 869 576 891.5 542 c 128,-1,22
 914 508 914 508 929.5 461 c 128,-1,23
 945 414 945 414 945 345 c 0,24,25
 945 261 945 261 921 193.5 c 128,-1,26
 897 126 897 126 853 78.5 c 128,-1,27
 809 31 809 31 748.5 5.5 c 128,-1,28
 688 -20 688 -20 614 -20 c 0,29,30
 521 -20 521 -20 458 -4.5 c 128,-1,31
 395 11 395 11 351 37 c 1,32,-1
 407 223 l 1,33,-1
 447 202 l 2,34,35
 467 191 467 191 489.5 183 c 128,-1,36
 512 175 512 175 537 170.5 c 128,-1,37
 562 166 562 166 590 166 c 0,38,39
 656 166 656 166 690 208 c 128,-1,40
 724 250 724 250 724 322 c 0,41,42
 724 367 724 367 709.5 397.5 c 128,-1,43
 695 428 695 428 672.5 453 c 128,-1,44
 650 478 650 478 624 501 c 128,-1,45
 598 524 598 524 575.5 553 c 128,-1,46
 553 582 553 582 538 621.5 c 128,-1,47
 523 661 523 661 523 718 c 0,48,49
 523 776 523 776 541 817.5 c 128,-1,50
 559 859 559 859 586 892 c 128,-1,51
 613 925 613 925 643.5 953 c 128,-1,52
 674 981 674 981 701 1012 c 128,-1,53
 728 1043 728 1043 746 1080 c 128,-1,54
 764 1117 764 1117 764 1168 c 0,55,56
 764 1221 764 1221 734 1251 c 128,-1,57
 704 1281 704 1281 646 1281 c 0,58,59
 602 1281 602 1281 565.5 1267 c 128,-1,60
 529 1253 529 1253 500.5 1222 c 128,-1,61
 472 1191 472 1191 452 1141.5 c 128,-1,62
 432 1092 432 1092 421 1021 c 2,63,-1
 259 0 l 1,64,-1
 29 0 l 1,0,-1
EndSplineSet
EndChar

StartChar: ae
Encoding: 230 230 166
Width: 1493
GlyphClass: 2
Flags: W
LayerCount: 2
Fore
SplineSet
842 476 m 1,0,1
 839 454 839 454 837.5 432 c 128,-1,2
 836 410 836 410 836 387 c 0,3,4
 836 281 836 281 874.5 224.5 c 128,-1,5
 913 168 913 168 987 168 c 0,6,7
 1021 168 1021 168 1048.5 181 c 128,-1,8
 1076 194 1076 194 1097 216.5 c 128,-1,9
 1118 239 1118 239 1134 270 c 128,-1,10
 1150 301 1150 301 1162 337 c 1,11,-1
 1363 263 l 1,12,13
 1338 199 1338 199 1307 146.5 c 128,-1,14
 1276 94 1276 94 1231 57 c 128,-1,15
 1186 20 1186 20 1122.5 0 c 128,-1,16
 1059 -20 1059 -20 972 -20 c 0,17,18
 847 -20 847 -20 766.5 37.5 c 128,-1,19
 686 95 686 95 649 199 c 1,20,21
 611 127 611 127 568.5 84 c 128,-1,22
 526 41 526 41 480 17.5 c 128,-1,23
 434 -6 434 -6 385 -13 c 128,-1,24
 336 -20 336 -20 286 -20 c 0,25,26
 222 -20 222 -20 175 5 c 128,-1,27
 128 30 128 30 97 71.5 c 128,-1,28
 66 113 66 113 50 167 c 128,-1,29
 34 221 34 221 34 278 c 0,30,31
 34 359 34 359 52.5 418.5 c 128,-1,32
 71 478 71 478 103 520.5 c 128,-1,33
 135 563 135 563 178 590 c 128,-1,34
 221 617 221 617 270.5 632.5 c 128,-1,35
 320 648 320 648 373 654 c 128,-1,36
 426 660 426 660 478 660 c 2,37,-1
 635 660 l 1,38,-1
 641 696 l 2,39,40
 647 726 647 726 649.5 748.5 c 128,-1,41
 652 771 652 771 652 791 c 0,42,43
 652 857 652 857 624 888 c 128,-1,44
 596 919 596 919 548 919 c 0,45,46
 524 919 524 919 498.5 915 c 128,-1,47
 473 911 473 911 450.5 896.5 c 128,-1,48
 428 882 428 882 409.5 853.5 c 128,-1,49
 391 825 391 825 381 777 c 1,50,-1
 166 808 l 1,51,52
 179 875 179 875 208.5 929 c 128,-1,53
 238 983 238 983 285.5 1021.5 c 128,-1,54
 333 1060 333 1060 399 1081 c 128,-1,55
 465 1102 465 1102 552 1102 c 0,56,57
 645 1102 645 1102 704.5 1070.5 c 128,-1,58
 764 1039 764 1039 798 989 c 1,59,60
 913 1102 913 1102 1078 1102 c 0,61,62
 1170 1102 1170 1102 1237 1072 c 128,-1,63
 1304 1042 1304 1042 1348.5 987.5 c 128,-1,64
 1393 933 1393 933 1414.5 857.5 c 128,-1,65
 1436 782 1436 782 1436 691 c 0,66,67
 1436 646 1436 646 1430.5 587.5 c 128,-1,68
 1425 529 1425 529 1416 476 c 1,69,-1
 842 476 l 1,0,1
609 500 m 1,70,-1
 477 500 l 2,71,72
 384 500 384 500 332 454 c 128,-1,73
 280 408 280 408 280 325 c 0,74,75
 280 286 280 286 288 257.5 c 128,-1,76
 296 229 296 229 310.5 211 c 128,-1,77
 325 193 325 193 345.5 184.5 c 128,-1,78
 366 176 366 176 389 176 c 0,79,80
 413 176 413 176 442 187.5 c 128,-1,81
 471 199 471 199 499.5 226 c 128,-1,82
 528 253 528 253 552.5 298.5 c 128,-1,83
 577 344 577 344 591 411 c 2,84,-1
 609 500 l 1,70,-1
1222 663 m 1,85,86
 1224 679 1224 679 1224.5 692 c 128,-1,87
 1225 705 1225 705 1225 719 c 0,88,89
 1225 826 1225 826 1184.5 875 c 128,-1,90
 1144 924 1144 924 1078 924 c 0,91,92
 1050 924 1050 924 1019 913 c 128,-1,93
 988 902 988 902 959 872.5 c 128,-1,94
 930 843 930 843 906.5 792.5 c 128,-1,95
 883 742 883 742 869 663 c 1,96,-1
 1222 663 l 1,85,86
EndSplineSet
EndChar

StartChar: eth
Encoding: 240 240 176
Width: 1026
GlyphClass: 2
Flags: W
LayerCount: 2
Fore
SplineSet
542 1305 m 1,0,1
 503 1351 503 1351 459.5 1397.5 c 128,-1,2
 416 1444 416 1444 360 1484 c 1,3,-1
 600 1484 l 1,4,5
 630 1465 630 1465 660 1440.5 c 128,-1,6
 690 1416 690 1416 716 1390 c 1,7,-1
 958 1499 l 1,8,-1
 932 1323 l 1,9,-1
 813 1269 l 1,10,11
 849 1212 849 1212 877 1152 c 128,-1,12
 905 1092 905 1092 923.5 1026 c 128,-1,13
 942 960 942 960 951.5 886 c 128,-1,14
 961 812 961 812 961 728 c 0,15,16
 961 560 961 560 927.5 422 c 128,-1,17
 894 284 894 284 827 186 c 128,-1,18
 760 88 760 88 661.5 34 c 128,-1,19
 563 -20 563 -20 432 -20 c 0,20,21
 335 -20 335 -20 263 13 c 128,-1,22
 191 46 191 46 143 104 c 128,-1,23
 95 162 95 162 71.5 240.5 c 128,-1,24
 48 319 48 319 48 410 c 0,25,26
 48 535 48 535 80 639 c 128,-1,27
 112 743 112 743 174.5 819 c 128,-1,28
 237 895 237 895 327 937 c 128,-1,29
 417 979 417 979 532 979 c 0,30,31
 557 979 557 979 585 974 c 128,-1,32
 613 969 613 969 638.5 960.5 c 128,-1,33
 664 952 664 952 686 940.5 c 128,-1,34
 708 929 708 929 723 916 c 1,35,36
 710 987 710 987 682.5 1055 c 128,-1,37
 655 1123 655 1123 620 1180 c 1,38,-1
 393 1069 l 1,39,-1
 420 1248 l 1,40,-1
 542 1305 l 1,0,1
540 787 m 0,41,42
 482 787 482 787 435.5 758 c 128,-1,43
 389 729 389 729 356 676.5 c 128,-1,44
 323 624 323 624 306 552.5 c 128,-1,45
 289 481 289 481 289 395 c 0,46,47
 289 354 289 354 298 314 c 128,-1,48
 307 274 307 274 327 242.5 c 128,-1,49
 347 211 347 211 378.5 191.5 c 128,-1,50
 410 172 410 172 455 172 c 0,51,52
 510 172 510 172 557 205.5 c 128,-1,53
 604 239 604 239 638.5 297.5 c 128,-1,54
 673 356 673 356 692.5 435.5 c 128,-1,55
 712 515 712 515 712 606 c 0,56,57
 712 691 712 691 668.5 739 c 128,-1,58
 625 787 625 787 540 787 c 0,41,42
EndSplineSet
EndChar

StartChar: divide
Encoding: 247 247 183
Width: 1124
GlyphClass: 2
Flags: W
LayerCount: 2
Fore
SplineSet
462 961 m 1,0,-1
 462 1194 l 1,1,-1
 700 1194 l 1,2,-1
 700 961 l 1,3,-1
 462 961 l 1,0,-1
69 569 m 1,4,-1
 69 793 l 1,5,-1
 1096 793 l 1,6,-1
 1096 569 l 1,7,-1
 69 569 l 1,4,-1
462 170 m 1,8,-1
 462 403 l 1,9,-1
 700 403 l 1,10,-1
 700 170 l 1,11,-1
 462 170 l 1,8,-1
EndSplineSet
EndChar

StartChar: oslash
Encoding: 248 248 184
Width: 1026
GlyphClass: 2
Flags: W
LayerCount: 2
Fore
SplineSet
34 -38 m 1,0,-1
 142 114 l 1,1,2
 98 170 98 170 75 246 c 128,-1,3
 52 322 52 322 52 419 c 0,4,5
 52 574 52 574 90 700 c 128,-1,6
 128 826 128 826 197.5 915 c 128,-1,7
 267 1004 267 1004 364 1052.5 c 128,-1,8
 461 1101 461 1101 577 1101 c 0,9,10
 644 1101 644 1101 700 1087 c 128,-1,11
 756 1073 756 1073 801 1047 c 1,12,-1
 850 1116 l 1,13,-1
 1006 1116 l 1,14,-1
 896 960 l 1,15,16
 972 855 972 855 972 683 c 0,17,18
 972 520 972 520 932 389.5 c 128,-1,19
 892 259 892 259 820.5 168 c 128,-1,20
 749 77 749 77 651.5 28.5 c 128,-1,21
 554 -20 554 -20 439 -20 c 0,22,23
 326 -20 326 -20 239 29 c 1,24,-1
 191 -38 l 1,25,-1
 34 -38 l 1,0,-1
294 431 m 0,26,27
 294 381 294 381 300 338 c 1,28,-1
 673 865 l 1,29,30
 652 888 652 888 623.5 898.5 c 128,-1,31
 595 909 595 909 560 909 c 0,32,33
 524 909 524 909 487 898.5 c 128,-1,34
 450 888 450 888 417 855 c 128,-1,35
 384 822 384 822 356.5 761 c 128,-1,36
 329 700 329 700 310 600 c 0,37,38
 301 552 301 552 297.5 509.5 c 128,-1,39
 294 467 294 467 294 431 c 0,26,27
731 662 m 0,40,41
 731 679 731 679 730 693.5 c 128,-1,42
 729 708 729 708 727 722 c 1,43,-1
 363 206 l 1,44,45
 384 188 384 188 410 180 c 128,-1,46
 436 172 436 172 464 172 c 0,47,48
 501 172 501 172 537 182 c 128,-1,49
 573 192 573 192 606 224.5 c 128,-1,50
 639 257 639 257 666 317.5 c 128,-1,51
 693 378 693 378 712 480 c 0,52,53
 721 532 721 532 725 575.5 c 128,-1,54
 729 619 729 619 731 662 c 0,40,41
EndSplineSet
EndChar

StartChar: thorn
Encoding: 254 254 190
Width: 1026
GlyphClass: 2
Flags: W
LayerCount: 2
Fore
SplineSet
597 907 m 0,0,1
 554 907 554 907 515 890.5 c 128,-1,2
 476 874 476 874 443 834 c 128,-1,3
 410 794 410 794 384 726 c 128,-1,4
 358 658 358 658 342 554 c 0,5,6
 335 510 335 510 331.5 472 c 128,-1,7
 328 434 328 434 328 401 c 0,8,9
 328 345 328 345 340 302.5 c 128,-1,10
 352 260 352 260 373.5 231 c 128,-1,11
 395 202 395 202 425.5 187.5 c 128,-1,12
 456 173 456 173 493 173 c 0,13,14
 535 173 535 173 569 189 c 128,-1,15
 603 205 603 205 630 244 c 128,-1,16
 657 283 657 283 678 349.5 c 128,-1,17
 699 416 699 416 714 516 c 0,18,19
 721 567 721 567 725 611.5 c 128,-1,20
 729 656 729 656 729 694 c 0,21,22
 729 800 729 800 697.5 853.5 c 128,-1,23
 666 907 666 907 597 907 c 0,0,1
427 1057 m 2,24,25
 423 1031 423 1031 415.5 989.5 c 128,-1,26
 408 948 408 948 399 913 c 1,27,-1
 404 913 l 1,28,29
 433 962 433 962 463.5 997.5 c 128,-1,30
 494 1033 494 1033 529 1056.5 c 128,-1,31
 564 1080 564 1080 605 1091 c 128,-1,32
 646 1102 646 1102 695 1102 c 0,33,34
 761 1102 761 1102 813 1077 c 128,-1,35
 865 1052 865 1052 900 1006 c 128,-1,36
 935 960 935 960 953.5 894.5 c 128,-1,37
 972 829 972 829 972 748 c 0,38,39
 972 689 972 689 968 631.5 c 128,-1,40
 964 574 964 574 955 516 c 0,41,42
 932 374 932 374 896 272.5 c 128,-1,43
 860 171 860 171 808.5 106 c 128,-1,44
 757 41 757 41 691 10.5 c 128,-1,45
 625 -20 625 -20 543 -20 c 0,46,47
 440 -20 440 -20 376 32 c 128,-1,48
 312 84 312 84 286 178 c 1,49,-1
 285 178 l 1,50,51
 283 159 283 159 279.5 136 c 128,-1,52
 276 113 276 113 273 88 c 128,-1,53
 270 63 270 63 266 38 c 2,54,-1
 258 -10 l 1,55,-1
 192 -425 l 1,56,-1
 -38 -425 l 1,57,-1
 265 1484 l 1,58,-1
 495 1484 l 1,59,-1
 427 1057 l 2,24,25
EndSplineSet
EndChar

StartChar: dcroat
Encoding: 273 273 209
Width: 1026
GlyphClass: 2
Flags: W
LayerCount: 2
Fore
SplineSet
614 160 m 1,0,1
 584 113 584 113 553 79 c 128,-1,2
 522 45 522 45 487.5 22.5 c 128,-1,3
 453 0 453 0 412 -10 c 1,4,5
 372 -21 372 -21 322 -21 c 0,6,7
 256 -21 256 -21 204.5 6 c 128,-1,8
 153 33 153 33 118.5 81 c 128,-1,9
 84 129 84 129 66 195.5 c 128,-1,10
 48 262 48 262 48 340 c 0,11,12
 48 384 48 384 51.5 434 c 128,-1,13
 55 484 55 484 65 545 c 0,14,15
 88 682 88 682 127 779.5 c 128,-1,16
 166 877 166 877 218.5 939.5 c 128,-1,17
 271 1002 271 1002 335 1031.5 c 128,-1,18
 399 1061 399 1061 468 1061 c 0,19,20
 529 1061 529 1061 573 1046 c 128,-1,21
 617 1031 617 1031 648 1005 c 128,-1,22
 679 979 679 979 698.5 944.5 c 128,-1,23
 718 910 718 910 727 871 c 1,24,-1
 732 871 l 1,25,26
 734 893 734 893 739.5 938.5 c 128,-1,27
 745 984 745 984 756 1053 c 2,28,-1
 777 1175 l 1,29,-1
 540 1175 l 1,30,-1
 567 1345 l 1,31,-1
 805 1345 l 1,32,-1
 828 1484 l 1,33,-1
 1055 1484 l 1,34,-1
 1033 1345 l 1,35,-1
 1141 1345 l 1,36,-1
 1114 1175 l 1,37,-1
 1006 1175 l 1,38,-1
 860 231 l 2,39,40
 851 170 851 170 845 112 c 128,-1,41
 839 54 839 54 836 0 c 1,42,-1
 605 0 l 1,43,44
 605 8 605 8 605.5 24 c 128,-1,45
 606 40 606 40 607.5 62 c 128,-1,46
 609 84 609 84 611.5 109 c 128,-1,47
 614 134 614 134 618 160 c 1,48,-1
 614 160 l 1,0,1
422 172 m 0,49,50
 463 172 463 172 501.5 187.5 c 128,-1,51
 540 203 540 203 572 241.5 c 128,-1,52
 604 280 604 280 629.5 345.5 c 128,-1,53
 655 411 655 411 672 510 c 0,54,55
 686 595 686 595 686 656 c 0,56,57
 686 771 686 771 647.5 822.5 c 128,-1,58
 609 874 609 874 531 874 c 0,59,60
 494 874 494 874 460 859 c 128,-1,61
 426 844 426 844 396.5 806.5 c 128,-1,62
 367 769 367 769 344 705.5 c 128,-1,63
 321 642 321 642 306 546 c 0,64,65
 299 497 299 497 295 458 c 128,-1,66
 291 419 291 419 291 382 c 0,67,68
 291 281 291 281 322 226.5 c 128,-1,69
 353 172 353 172 422 172 c 0,49,50
EndSplineSet
EndChar

StartChar: Hbar
Encoding: 294 294 230
Width: 1212
GlyphClass: 2
Flags: W
LayerCount: 2
Fore
SplineSet
783 0 m 1,0,-1
 880 604 l 1,1,-1
 367 604 l 1,2,-1
 270 0 l 1,3,-1
 30 0 l 1,4,-1
 195 1045 l 1,5,-1
 94 1045 l 1,6,-1
 121 1215 l 1,7,-1
 222 1215 l 1,8,-1
 253 1409 l 1,9,-1
 495 1409 l 1,10,-1
 464 1215 l 1,11,-1
 977 1215 l 1,12,-1
 1008 1409 l 1,13,-1
 1241 1409 l 1,14,-1
 1210 1215 l 1,15,-1
 1310 1215 l 1,16,-1
 1283 1045 l 1,17,-1
 1182 1045 l 1,18,-1
 1016 0 l 1,19,-1
 783 0 l 1,0,-1
919 848 m 1,20,-1
 950 1045 l 1,21,-1
 437 1045 l 1,22,-1
 406 848 l 1,23,-1
 919 848 l 1,20,-1
EndSplineSet
EndChar

StartChar: hbar
Encoding: 295 295 231
Width: 1026
GlyphClass: 2
Flags: W
LayerCount: 2
Fore
SplineSet
493 1484 m 1,0,-1
 471 1345 l 1,1,-1
 727 1345 l 1,2,-1
 700 1175 l 1,3,-1
 443 1175 l 1,4,-1
 422 1039 l 2,5,6
 419 1018 419 1018 414 994 c 1,7,-1
 406 945 l 1,8,-1
 397 898 l 1,9,-1
 390 857 l 1,10,-1
 392 857 l 1,11,12
 417 899 417 899 446.5 936 c 128,-1,13
 476 973 476 973 513 1001 c 128,-1,14
 550 1029 550 1029 595.5 1045 c 128,-1,15
 641 1061 641 1061 698 1061 c 0,16,17
 823 1061 823 1061 886 988 c 128,-1,18
 949 915 949 915 949 777 c 0,19,20
 949 759 949 759 947 736 c 128,-1,21
 945 713 945 713 942.5 690.5 c 128,-1,22
 940 668 940 668 937 648 c 2,23,-1
 932 613 l 1,24,-1
 834 0 l 1,25,-1
 605 0 l 1,26,-1
 695 555 l 2,27,28
 698 574 698 574 702 597 c 128,-1,29
 706 620 706 620 709.5 643 c 128,-1,30
 713 666 713 666 715 686.5 c 128,-1,31
 717 707 717 707 717 720 c 0,32,33
 717 783 717 783 685.5 816 c 128,-1,34
 654 849 654 849 592 849 c 0,35,36
 553 849 553 849 514.5 829 c 128,-1,37
 476 809 476 809 443 772 c 128,-1,38
 410 735 410 735 385 682.5 c 128,-1,39
 360 630 360 630 350 566 c 2,40,-1
 260 0 l 1,41,-1
 29 0 l 1,42,-1
 214 1175 l 1,43,-1
 102 1175 l 1,44,-1
 129 1345 l 1,45,-1
 241 1345 l 1,46,-1
 263 1484 l 1,47,-1
 493 1484 l 1,0,-1
EndSplineSet
EndChar

StartChar: dotlessi
Encoding: 305 305 241
Width: 467
GlyphClass: 2
Flags: W
LayerCount: 2
Fore
SplineSet
29 0 m 1,0,-1
 201 1082 l 1,1,-1
 432 1082 l 1,2,-1
 259 0 l 1,3,-1
 29 0 l 1,0,-1
EndSplineSet
EndChar

StartChar: jcircumflex
Encoding: 309 309 245
Width: 467
GlyphClass: 2
Flags: W
LayerCount: 2
Fore
SplineSet
-44 -425 m 0,0,1
 -85 -425 -85 -425 -120.5 -419.5 c 128,-1,2
 -156 -414 -156 -414 -181 -406 c 1,3,-1
 -151 -218 l 1,4,5
 -140 -220 -140 -220 -126.5 -221 c 128,-1,6
 -113 -222 -113 -222 -103 -222 c 0,7,8
 -75 -222 -75 -222 -55.5 -214 c 128,-1,9
 -36 -206 -36 -206 -22 -187 c 128,-1,10
 -8 -168 -8 -168 1.5 -137 c 128,-1,11
 11 -106 11 -106 18 -60 c 2,12,-1
 201 1082 l 1,13,-1
 432 1082 l 1,14,-1
 238 -128 l 2,15,16
 227 -193 227 -193 205.5 -247 c 128,-1,17
 184 -301 184 -301 149.5 -341 c 128,-1,18
 115 -381 115 -381 67 -403 c 128,-1,19
 19 -425 19 -425 -44 -425 c 0,0,1
620 1211 m 1,20,-1
 616 1183 l 1,21,-1
 492 1183 l 1,22,-1
 356 1375 l 1,23,-1
 353 1375 l 1,24,-1
 149 1183 l 1,25,-1
 11 1183 l 1,26,-1
 15 1211 l 1,27,-1
 277 1529 l 1,28,-1
 465 1529 l 1,29,-1
 620 1211 l 1,20,-1
EndSplineSet
EndChar

StartChar: kgreenlandic
Encoding: 312 312 248
Width: 950
GlyphClass: 2
Flags: W
LayerCount: 2
Fore
SplineSet
607 0 m 1,0,-1
 450 497 l 1,1,-1
 334 422 l 1,2,-1
 263 0 l 1,3,-1
 29 0 l 1,4,-1
 204 1082 l 1,5,-1
 439 1082 l 1,6,-1
 365 634 l 1,7,-1
 752 1082 l 1,8,-1
 1021 1082 l 1,9,-1
 626 660 l 1,10,-1
 856 0 l 1,11,-1
 607 0 l 1,0,-1
EndSplineSet
EndChar

StartChar: Lslash
Encoding: 321 321 257
Width: 1026
GlyphClass: 2
Flags: W
LayerCount: 2
Fore
SplineSet
30 0 m 1,0,-1
 106 482 l 1,1,-1
 -16 418 l 1,2,-1
 20 643 l 1,3,-1
 142 708 l 1,4,-1
 253 1409 l 1,5,-1
 495 1409 l 1,6,-1
 406 848 l 1,7,-1
 682 997 l 1,8,-1
 646 774 l 1,9,-1
 371 625 l 1,10,-1
 308 228 l 1,11,-1
 928 228 l 1,12,-1
 891 0 l 1,13,-1
 30 0 l 1,0,-1
EndSplineSet
EndChar

StartChar: lslash
Encoding: 322 322 258
Width: 467
GlyphClass: 2
Flags: W
LayerCount: 2
Fore
SplineSet
373 717 m 1,0,-1
 259 0 l 1,1,-1
 29 0 l 1,2,-1
 117 561 l 1,3,-1
 5 492 l 1,4,-1
 39 707 l 1,5,-1
 152 776 l 1,6,-1
 265 1484 l 1,7,-1
 496 1484 l 1,8,-1
 407 932 l 1,9,-1
 525 1006 l 1,10,-1
 491 793 l 1,11,-1
 373 717 l 1,0,-1
EndSplineSet
EndChar

StartChar: Eng
Encoding: 330 330 266
Width: 1237
GlyphClass: 2
Flags: W
LayerCount: 2
Fore
SplineSet
705 -20 m 0,0,1
 643 -20 643 -20 593 -2.5 c 128,-1,2
 543 15 543 15 503.5 46.5 c 128,-1,3
 464 78 464 78 435 120.5 c 128,-1,4
 406 163 406 163 385 214 c 1,5,-1
 591 331 l 1,6,7
 603 307 603 307 617 285.5 c 128,-1,8
 631 264 631 264 647 247.5 c 128,-1,9
 663 231 663 231 683.5 221.5 c 128,-1,10
 704 212 704 212 730 212 c 0,11,12
 769 212 769 212 796 230.5 c 128,-1,13
 823 249 823 249 843 289.5 c 128,-1,14
 863 330 863 330 878 395 c 128,-1,15
 893 460 893 460 908 553 c 2,16,-1
 955 841 l 2,17,18
 958 860 958 860 962 882 c 128,-1,19
 966 904 966 904 968 928 c 1,20,-1
 974 974 l 2,21,22
 976 997 976 997 976 1018 c 0,23,24
 976 1104 976 1104 927 1152 c 128,-1,25
 878 1200 878 1200 778 1200 c 0,26,27
 715 1200 715 1200 654.5 1175 c 128,-1,28
 594 1150 594 1150 546 1107.5 c 128,-1,29
 498 1065 498 1065 464.5 1009 c 128,-1,30
 431 953 431 953 421 891 c 2,31,-1
 276 0 l 1,32,-1
 30 0 l 1,33,-1
 206 1092 l 1,34,-1
 219 1175 l 1,35,-1
 233 1266 l 1,36,-1
 246 1349 l 1,37,-1
 254 1409 l 1,38,-1
 496 1409 l 1,39,40
 496 1409 496 1409 489 1356 c 0,41,42
 485 1324 485 1324 480 1289.5 c 128,-1,43
 475 1255 475 1255 470 1220 c 2,44,-1
 461 1158 l 1,45,-1
 464 1158 l 1,46,47
 501 1220 501 1220 546 1270 c 128,-1,48
 591 1320 591 1320 642.5 1355 c 128,-1,49
 694 1390 694 1390 754 1409.5 c 128,-1,50
 814 1429 814 1429 883 1429 c 0,51,52
 1048 1429 1048 1429 1132 1338.5 c 128,-1,53
 1216 1248 1216 1248 1216 1065 c 0,54,55
 1216 1017 1216 1017 1210 968.5 c 128,-1,56
 1204 920 1204 920 1199 888 c 2,57,-1
 1143 542 l 2,58,59
 1129 453 1129 453 1112.5 376.5 c 128,-1,60
 1096 300 1096 300 1073.5 237.5 c 128,-1,61
 1051 175 1051 175 1019.5 127 c 128,-1,62
 988 79 988 79 944 46.5 c 128,-1,63
 900 14 900 14 841.5 -3 c 128,-1,64
 783 -20 783 -20 705 -20 c 0,0,1
EndSplineSet
EndChar

StartChar: eng
Encoding: 331 331 267
Width: 1026
GlyphClass: 2
Flags: W
LayerCount: 2
Fore
SplineSet
532 -425 m 0,0,1
 491 -425 491 -425 456 -419.5 c 128,-1,2
 421 -414 421 -414 396 -406 c 1,3,-1
 426 -218 l 1,4,5
 437 -220 437 -220 450 -221 c 128,-1,6
 463 -222 463 -222 473 -222 c 0,7,8
 501 -222 501 -222 520.5 -214 c 128,-1,9
 540 -206 540 -206 554 -187 c 128,-1,10
 568 -168 568 -168 577.5 -137 c 128,-1,11
 587 -106 587 -106 595 -60 c 2,12,-1
 702 595 l 2,13,14
 705 614 705 614 709 637 c 128,-1,15
 713 660 713 660 716 683 c 128,-1,16
 719 706 719 706 721 726.5 c 128,-1,17
 723 747 723 747 723 760 c 0,18,19
 723 823 723 823 692 856 c 128,-1,20
 661 889 661 889 599 889 c 0,21,22
 560 889 560 889 521.5 869 c 128,-1,23
 483 849 483 849 450 812 c 128,-1,24
 417 775 417 775 392 722.5 c 128,-1,25
 367 670 367 670 357 606 c 2,26,-1
 260 0 l 1,27,-1
 29 0 l 1,28,-1
 165 851 l 2,29,30
 171 885 171 885 176 922.5 c 128,-1,31
 181 960 181 960 185 994 c 2,32,-1
 192 1051 l 2,33,34
 195 1075 195 1075 196 1082 c 1,35,-1
 416 1082 l 1,36,37
 416 1077 416 1077 414 1055 c 128,-1,38
 412 1033 412 1033 409 1004.5 c 128,-1,39
 406 976 406 976 402.5 946.5 c 128,-1,40
 399 917 399 917 396 897 c 1,41,-1
 399 897 l 1,42,43
 424 939 424 939 453.5 976 c 128,-1,44
 483 1013 483 1013 520 1041 c 128,-1,45
 557 1069 557 1069 602.5 1085 c 128,-1,46
 648 1101 648 1101 704 1101 c 0,47,48
 829 1101 829 1101 892 1028 c 128,-1,49
 955 955 955 955 955 817 c 0,50,51
 955 799 955 799 953 776 c 128,-1,52
 951 753 951 753 948 730 c 2,53,-1
 944 688 l 2,54,55
 941 667 941 667 938 653 c 2,56,-1
 814 -128 l 2,57,58
 804 -193 804 -193 782 -247 c 128,-1,59
 760 -301 760 -301 725.5 -341 c 128,-1,60
 691 -381 691 -381 643 -403 c 128,-1,61
 595 -425 595 -425 532 -425 c 0,0,1
EndSplineSet
EndChar

StartChar: OE
Encoding: 338 338 274
Width: 1679
GlyphClass: 2
Flags: W
LayerCount: 2
Fore
SplineSet
752 0 m 1,0,1
 736 -3 736 -3 715 -4.5 c 128,-1,2
 694 -6 694 -6 670 -7.5 c 128,-1,3
 646 -9 646 -9 622 -9.5 c 128,-1,4
 598 -10 598 -10 579 -10 c 0,5,6
 455 -10 455 -10 362.5 32 c 128,-1,7
 270 74 270 74 208 150.5 c 128,-1,8
 146 227 146 227 115 334.5 c 128,-1,9
 84 442 84 442 84 573 c 0,10,11
 84 664 84 664 101 764 c 0,12,13
 126 914 126 914 186 1035.5 c 128,-1,14
 246 1157 246 1157 334 1242.5 c 128,-1,15
 422 1328 422 1328 535 1374 c 128,-1,16
 648 1420 648 1420 778 1420 c 0,17,18
 810 1420 810 1420 839.5 1418.5 c 128,-1,19
 869 1417 869 1417 891 1414 c 2,20,-1
 927 1410 l 2,21,22
 941 1409 941 1409 943 1409 c 2,23,-1
 1721 1409 l 1,24,-1
 1685 1182 l 1,25,-1
 1138 1182 l 1,26,-1
 1081 827 l 1,27,-1
 1578 827 l 1,28,-1
 1543 606 l 1,29,-1
 1046 606 l 1,30,-1
 986 231 l 1,31,-1
 1567 231 l 1,32,-1
 1530 0 l 1,33,-1
 752 0 l 1,0,1
603 222 m 0,34,35
 646 222 646 222 685.5 228.5 c 128,-1,36
 725 235 725 235 745 242 c 1,37,-1
 893 1169 l 1,38,39
 880 1174 880 1174 864 1177.5 c 128,-1,40
 848 1181 848 1181 831 1183 c 128,-1,41
 814 1185 814 1185 798 1186.5 c 128,-1,42
 782 1188 782 1188 770 1188 c 0,43,44
 595 1188 595 1188 487.5 1069.5 c 128,-1,45
 380 951 380 951 344 732 c 0,46,47
 337 689 337 689 333.5 645.5 c 128,-1,48
 330 602 330 602 330 563 c 0,49,50
 330 476 330 476 350 411.5 c 128,-1,51
 370 347 370 347 405.5 305 c 128,-1,52
 441 263 441 263 491.5 242.5 c 128,-1,53
 542 222 542 222 603 222 c 0,34,35
EndSplineSet
EndChar

StartChar: oe
Encoding: 339 339 275
Width: 1585
GlyphClass: 2
Flags: W
LayerCount: 2
Fore
SplineSet
954 476 m 1,0,1
 951 454 951 454 949.5 432 c 128,-1,2
 948 410 948 410 948 387 c 0,3,4
 948 281 948 281 986 224.5 c 128,-1,5
 1024 168 1024 168 1099 168 c 0,6,7
 1133 168 1133 168 1160 181 c 128,-1,8
 1187 194 1187 194 1208.5 216.5 c 128,-1,9
 1230 239 1230 239 1246 270 c 128,-1,10
 1262 301 1262 301 1273 337 c 1,11,-1
 1474 263 l 1,12,13
 1449 199 1449 199 1418 146.5 c 128,-1,14
 1387 94 1387 94 1342 57 c 128,-1,15
 1297 20 1297 20 1234 0 c 128,-1,16
 1171 -20 1171 -20 1083 -20 c 0,17,18
 980 -20 980 -20 905 19.5 c 128,-1,19
 830 59 830 59 783 132 c 1,20,21
 753 91 753 91 713.5 62 c 128,-1,22
 674 33 674 33 629 15 c 128,-1,23
 584 -3 584 -3 534.5 -11.5 c 128,-1,24
 485 -20 485 -20 435 -20 c 0,25,26
 347 -20 347 -20 275.5 9.5 c 128,-1,27
 204 39 204 39 153 95.5 c 128,-1,28
 102 152 102 152 75 233.5 c 128,-1,29
 48 315 48 315 48 419 c 0,30,31
 48 574 48 574 86 700 c 128,-1,32
 124 826 124 826 193.5 915 c 128,-1,33
 263 1004 263 1004 360 1052.5 c 128,-1,34
 457 1101 457 1101 573 1101 c 0,35,36
 625 1101 625 1101 669 1092.5 c 128,-1,37
 713 1084 713 1084 749.5 1066.5 c 128,-1,38
 786 1049 786 1049 817 1022.5 c 128,-1,39
 848 996 848 996 876 960 c 1,40,41
 937 1030 937 1030 1016.5 1066 c 128,-1,42
 1096 1102 1096 1102 1190 1102 c 0,43,44
 1282 1102 1282 1102 1349 1072 c 128,-1,45
 1416 1042 1416 1042 1460.5 987.5 c 128,-1,46
 1505 933 1505 933 1526 857.5 c 128,-1,47
 1547 782 1547 782 1547 691 c 0,48,49
 1547 646 1547 646 1542 587.5 c 128,-1,50
 1537 529 1537 529 1528 476 c 1,51,-1
 954 476 l 1,0,1
726 662 m 1,52,53
 726 728 726 728 714.5 775 c 128,-1,54
 703 822 703 822 680.5 851.5 c 128,-1,55
 658 881 658 881 626.5 895 c 128,-1,56
 595 909 595 909 556 909 c 0,57,58
 520 909 520 909 483 898.5 c 128,-1,59
 446 888 446 888 413 855 c 128,-1,60
 380 822 380 822 352.5 761 c 128,-1,61
 325 700 325 700 306 600 c 0,62,63
 297 552 297 552 293 509.5 c 128,-1,64
 289 467 289 467 289 431 c 0,65,66
 289 359 289 359 302.5 310 c 128,-1,67
 316 261 316 261 338.5 230 c 128,-1,68
 361 199 361 199 392.5 185.5 c 128,-1,69
 424 172 424 172 461 172 c 256,70,71
 498 172 498 172 534 182 c 128,-1,72
 570 192 570 192 602.5 224.5 c 128,-1,73
 635 257 635 257 662 317.5 c 128,-1,74
 689 378 689 378 708 480 c 0,75,76
 715 515 715 515 717 546 c 0,77,78
 718 554 718 554 719 561 c 128,-1,79
 720 568 720 568 721 575 c 0,80,81
 723 598 723 598 724 619 c 2,82,-1
 726 662 l 1,52,53
1334 663 m 1,83,84
 1336 679 1336 679 1336.5 692 c 128,-1,85
 1337 705 1337 705 1337 719 c 0,86,87
 1337 826 1337 826 1296 875 c 128,-1,88
 1255 924 1255 924 1190 924 c 0,89,90
 1162 924 1162 924 1131 913 c 128,-1,91
 1100 902 1100 902 1070.5 872.5 c 128,-1,92
 1041 843 1041 843 1018 792.5 c 128,-1,93
 995 742 995 742 981 663 c 1,94,-1
 1334 663 l 1,83,84
EndSplineSet
EndChar

StartChar: Tbar
Encoding: 358 358 294
Width: 1026
GlyphClass: 2
Flags: W
LayerCount: 2
Fore
SplineSet
734 1181 m 1,0,-1
 676 816 l 1,1,-1
 863 816 l 1,2,-1
 832 626 l 1,3,-1
 645 626 l 1,4,-1
 545 0 l 1,5,-1
 303 0 l 1,6,-1
 404 626 l 1,7,-1
 217 626 l 1,8,-1
 248 816 l 1,9,-1
 434 816 l 1,10,-1
 492 1181 l 1,11,-1
 119 1181 l 1,12,-1
 155 1409 l 1,13,-1
 1144 1409 l 1,14,-1
 1108 1181 l 1,15,-1
 734 1181 l 1,0,-1
EndSplineSet
EndChar

StartChar: tbar
Encoding: 359 359 295
Width: 559
GlyphClass: 2
Flags: W
LayerCount: 2
Fore
SplineSet
459 8 m 1,0,1
 429 -3 429 -3 390.5 -9.5 c 128,-1,2
 352 -16 352 -16 308 -16 c 0,3,4
 260 -16 260 -16 220.5 -2 c 128,-1,5
 181 12 181 12 153 40 c 128,-1,6
 125 68 125 68 110 110.5 c 128,-1,7
 95 153 95 153 95 209 c 0,8,9
 95 254 95 254 99.5 296.5 c 128,-1,10
 104 339 104 339 108 366 c 2,11,-1
 125 473 l 1,12,-1
 21 473 l 1,13,-1
 51 663 l 1,14,-1
 155 663 l 1,15,-1
 192 892 l 1,16,-1
 70 892 l 1,17,-1
 101 1082 l 1,18,-1
 234 1082 l 1,19,-1
 346 1336 l 1,20,-1
 490 1336 l 1,21,-1
 451 1082 l 1,22,-1
 616 1082 l 1,23,-1
 588 892 l 1,24,-1
 420 892 l 1,25,-1
 383 663 l 1,26,-1
 534 663 l 1,27,-1
 504 473 l 1,28,-1
 352 473 l 1,29,-1
 334 357 l 2,30,31
 331 337 331 337 328 308.5 c 128,-1,32
 325 280 325 280 325 260 c 0,33,34
 327 218 327 218 346.5 197.5 c 128,-1,35
 366 177 366 177 397 177 c 0,36,37
 417 177 417 177 437 180.5 c 128,-1,38
 457 184 457 184 485 190 c 1,39,-1
 459 8 l 1,0,1
EndSplineSet
EndChar

StartChar: longs
Encoding: 383 383 319
Width: 467
GlyphClass: 2
Flags: W
LayerCount: 2
Fore
SplineSet
220 1195 m 2,0,1
 231 1263 231 1263 252.5 1317 c 128,-1,2
 274 1371 274 1371 312 1408 c 128,-1,3
 350 1445 350 1445 406 1464.5 c 128,-1,4
 462 1484 462 1484 541 1484 c 0,5,6
 578 1484 578 1484 611 1478.5 c 128,-1,7
 644 1473 644 1473 668 1467 c 1,8,-1
 639 1286 l 1,9,10
 632 1288 632 1288 622 1290 c 1,11,-1
 600 1292 l 2,12,13
 588 1294 588 1294 577.5 1295 c 128,-1,14
 567 1296 567 1296 560 1296 c 0,15,16
 505 1296 505 1296 480.5 1264 c 128,-1,17
 456 1232 456 1232 445 1167 c 2,18,-1
 259 0 l 1,19,-1
 29 0 l 1,20,-1
 220 1195 l 2,0,1
EndSplineSet
EndChar

StartChar: florin
Encoding: 402 402 320
Width: 934
GlyphClass: 2
Flags: W
LayerCount: 2
Fore
SplineSet
620 892 m 1,0,-1
 408 -425 l 1,1,-1
 179 -425 l 1,2,-1
 390 892 l 1,3,-1
 261 892 l 1,4,-1
 291 1082 l 1,5,-1
 421 1082 l 1,6,-1
 439 1195 l 2,7,8
 450 1263 450 1263 471.5 1317 c 128,-1,9
 493 1371 493 1371 531 1408 c 128,-1,10
 569 1445 569 1445 625 1464.5 c 128,-1,11
 681 1484 681 1484 759 1484 c 0,12,13
 796 1484 796 1484 829.5 1478.5 c 128,-1,14
 863 1473 863 1473 886 1467 c 1,15,-1
 857 1286 l 1,16,17
 850 1288 850 1288 840 1290 c 1,18,-1
 818 1292 l 2,19,20
 807 1294 807 1294 796.5 1295 c 128,-1,21
 786 1296 786 1296 778 1296 c 0,22,23
 723 1296 723 1296 698.5 1264 c 128,-1,24
 674 1232 674 1232 663 1167 c 1,25,-1
 650 1082 l 1,26,-1
 825 1082 l 1,27,-1
 795 892 l 1,28,-1
 620 892 l 1,0,-1
EndSplineSet
EndChar

StartChar: circumflex
Encoding: 710 710 327
Width: 559
GlyphClass: 2
Flags: W
LayerCount: 2
Fore
SplineSet
670 1211 m 1,0,-1
 666 1183 l 1,1,-1
 543 1183 l 1,2,-1
 407 1375 l 1,3,-1
 404 1375 l 1,4,-1
 201 1183 l 1,5,-1
 62 1183 l 1,6,-1
 66 1211 l 1,7,-1
 329 1529 l 1,8,-1
 516 1529 l 1,9,-1
 670 1211 l 1,0,-1
EndSplineSet
EndChar

StartChar: caron
Encoding: 711 711 328
Width: 559
GlyphClass: 2
Flags: W
LayerCount: 2
Fore
SplineSet
470 1183 m 1,0,-1
 282 1183 l 1,1,-1
 120 1500 l 1,2,-1
 125 1529 l 1,3,-1
 248 1529 l 1,4,-1
 391 1336 l 1,5,-1
 394 1336 l 1,6,-1
 591 1529 l 1,7,-1
 729 1529 l 1,8,-1
 725 1500 l 1,9,-1
 470 1183 l 1,0,-1
EndSplineSet
EndChar

StartChar: uni02C9
Encoding: 713 713 329
Width: 1024
GlyphClass: 2
Flags: W
LayerCount: 2
Fore
SplineSet
1131 1203 m 1,0,-1
 251 1203 l 1,1,-1
 300 1371 l 1,2,-1
 1186 1371 l 1,3,-1
 1131 1203 l 1,0,-1
EndSplineSet
EndChar

StartChar: breve
Encoding: 728 728 330
Width: 559
GlyphClass: 2
Flags: W
LayerCount: 2
Fore
SplineSet
385 1183 m 0,0,1
 324 1183 324 1183 277 1205 c 128,-1,2
 230 1227 230 1227 196.5 1265.5 c 128,-1,3
 163 1304 163 1304 146 1356 c 128,-1,4
 129 1408 129 1408 129 1468 c 0,5,6
 129 1478 129 1478 129.5 1486.5 c 128,-1,7
 130 1495 130 1495 130 1506 c 1,8,-1
 264 1506 l 1,9,10
 264 1464 264 1464 275.5 1433 c 128,-1,11
 287 1402 287 1402 305.5 1381.5 c 128,-1,12
 324 1361 324 1361 348 1350.5 c 128,-1,13
 372 1340 372 1340 398 1340 c 0,14,15
 428 1340 428 1340 455.5 1350 c 128,-1,16
 483 1360 483 1360 506 1380.5 c 128,-1,17
 529 1401 529 1401 547.5 1432 c 128,-1,18
 566 1463 566 1463 576 1506 c 1,19,-1
 711 1506 l 1,20,21
 695 1433 695 1433 669 1373.5 c 128,-1,22
 643 1314 643 1314 604.5 1271.5 c 128,-1,23
 566 1229 566 1229 511.5 1206 c 128,-1,24
 457 1183 457 1183 385 1183 c 0,0,1
EndSplineSet
EndChar

StartChar: dotaccent
Encoding: 729 729 331
Width: 559
GlyphClass: 2
Flags: W
LayerCount: 2
Fore
SplineSet
270 1277 m 1,0,-1
 304 1484 l 1,1,-1
 534 1484 l 1,2,-1
 501 1277 l 1,3,-1
 270 1277 l 1,0,-1
EndSplineSet
EndChar

StartChar: ring
Encoding: 730 730 332
Width: 559
GlyphClass: 2
Flags: W
LayerCount: 2
Fore
SplineSet
602 1390 m 0,0,1
 602 1337 602 1337 586 1290.5 c 128,-1,2
 570 1244 570 1244 541.5 1209.5 c 128,-1,3
 513 1175 513 1175 475 1155.5 c 128,-1,4
 437 1136 437 1136 394 1136 c 256,5,6
 351 1136 351 1136 313 1155.5 c 128,-1,7
 275 1175 275 1175 247 1209.5 c 128,-1,8
 219 1244 219 1244 202.5 1290.5 c 128,-1,9
 186 1337 186 1337 186 1390 c 0,10,11
 186 1442 186 1442 202.5 1488.5 c 128,-1,12
 219 1535 219 1535 247 1569.5 c 128,-1,13
 275 1604 275 1604 313.5 1624 c 128,-1,14
 352 1644 352 1644 394 1644 c 0,15,16
 437 1644 437 1644 475 1624 c 128,-1,17
 513 1604 513 1604 541.5 1569.5 c 128,-1,18
 570 1535 570 1535 586 1488.5 c 128,-1,19
 602 1442 602 1442 602 1390 c 0,0,1
498 1390 m 0,20,21
 498 1416 498 1416 490 1438.5 c 128,-1,22
 482 1461 482 1461 468 1478 c 128,-1,23
 454 1495 454 1495 435 1505 c 128,-1,24
 416 1515 416 1515 394 1515 c 0,25,26
 373 1515 373 1515 354 1505 c 128,-1,27
 335 1495 335 1495 321 1478 c 128,-1,28
 307 1461 307 1461 299.5 1438.5 c 128,-1,29
 292 1416 292 1416 292 1390 c 0,30,31
 292 1363 292 1363 299.5 1339.5 c 128,-1,32
 307 1316 307 1316 321 1299 c 128,-1,33
 335 1282 335 1282 354 1272 c 128,-1,34
 373 1262 373 1262 394 1262 c 256,35,36
 415 1262 415 1262 434.5 1272 c 128,-1,37
 454 1282 454 1282 468 1299 c 128,-1,38
 482 1316 482 1316 490 1339.5 c 128,-1,39
 498 1363 498 1363 498 1390 c 0,20,21
EndSplineSet
EndChar

StartChar: ogonek
Encoding: 731 731 333
Width: 559
GlyphClass: 2
Flags: W
LayerCount: 2
Fore
SplineSet
251 -425 m 0,0,1
 218 -425 218 -425 188 -414 c 128,-1,2
 158 -403 158 -403 135.5 -381 c 128,-1,3
 113 -359 113 -359 100 -325.5 c 128,-1,4
 87 -292 87 -292 87 -246 c 0,5,6
 87 -202 87 -202 99 -164 c 128,-1,7
 111 -126 111 -126 131.5 -94 c 128,-1,8
 152 -62 152 -62 178.5 -36 c 128,-1,9
 205 -10 205 -10 234 10 c 1,10,-1
 369 10 l 1,11,12
 343 -10 343 -10 320.5 -37.5 c 128,-1,13
 298 -65 298 -65 282 -95 c 128,-1,14
 266 -125 266 -125 257.5 -155 c 128,-1,15
 249 -185 249 -185 249 -211 c 0,16,17
 249 -249 249 -249 267 -268 c 128,-1,18
 285 -287 285 -287 314 -287 c 0,19,20
 338 -287 338 -287 358.5 -280.5 c 128,-1,21
 379 -274 379 -274 398 -264 c 1,22,-1
 382 -391 l 1,23,24
 352 -407 352 -407 319.5 -416 c 128,-1,25
 287 -425 287 -425 251 -425 c 0,0,1
EndSplineSet
EndChar

StartChar: tilde
Encoding: 732 732 334
Width: 559
GlyphClass: 2
Flags: W
LayerCount: 2
Fore
SplineSet
511 1183 m 0,0,1
 475 1183 475 1183 442 1202 c 128,-1,2
 409 1221 409 1221 378.5 1244.5 c 128,-1,3
 348 1268 348 1268 320 1287 c 128,-1,4
 292 1306 292 1306 267 1306 c 0,5,6
 246 1306 246 1306 231 1297.5 c 128,-1,7
 216 1289 216 1289 204.5 1273 c 128,-1,8
 193 1257 193 1257 184 1234.5 c 128,-1,9
 175 1212 175 1212 167 1183 c 1,10,-1
 56 1183 l 1,11,12
 65 1228 65 1228 79.5 1279 c 128,-1,13
 94 1330 94 1330 120 1374 c 128,-1,14
 146 1418 146 1418 186 1447 c 128,-1,15
 226 1476 226 1476 286 1476 c 0,16,17
 323 1476 323 1476 357 1457 c 128,-1,18
 391 1438 391 1438 422 1414 c 2,19,-1
 479 1372 l 2,20,21
 506 1353 506 1353 529 1353 c 0,22,23
 549 1353 549 1353 564.5 1361.5 c 128,-1,24
 580 1370 580 1370 591.5 1386 c 128,-1,25
 603 1402 603 1402 612.5 1425 c 128,-1,26
 622 1448 622 1448 630 1476 c 1,27,-1
 741 1476 l 1,28,29
 732 1431 732 1431 717 1380 c 128,-1,30
 702 1329 702 1329 676.5 1285 c 128,-1,31
 651 1241 651 1241 611 1212 c 128,-1,32
 571 1183 571 1183 511 1183 c 0,0,1
EndSplineSet
EndChar

StartChar: hungarumlaut
Encoding: 733 733 335
Width: 559
GlyphClass: 2
Flags: W
LayerCount: 2
Fore
SplineSet
48 1183 m 1,0,-1
 56 1214 l 1,1,-1
 266 1502 l 1,2,-1
 480 1502 l 1,3,-1
 472 1459 l 1,4,-1
 167 1183 l 1,5,-1
 48 1183 l 1,0,-1
380 1183 m 1,6,-1
 388 1214 l 1,7,-1
 598 1502 l 1,8,-1
 812 1502 l 1,9,-1
 804 1459 l 1,10,-1
 499 1183 l 1,11,-1
 380 1183 l 1,6,-1
EndSplineSet
EndChar

StartChar: tonos
Encoding: 900 900 336
Width: 682
GlyphClass: 2
Flags: W
LayerCount: 2
Fore
SplineSet
153 1183 m 1,0,-1
 159 1216 l 1,1,-1
 285 1508 l 1,2,-1
 542 1508 l 1,3,-1
 535 1471 l 1,4,-1
 258 1183 l 1,5,-1
 153 1183 l 1,0,-1
EndSplineSet
EndChar

StartChar: dieresistonos
Encoding: 901 901 337
Width: 559
GlyphClass: 2
Flags: W
LayerCount: 2
Fore
SplineSet
152 1190 m 1,0,-1
 157 1223 l 1,1,-1
 268 1621 l 1,2,-1
 462 1621 l 1,3,-1
 457 1584 l 1,4,-1
 246 1190 l 1,5,-1
 152 1190 l 1,0,-1
-48 1231 m 1,6,-1
 -11 1453 l 1,7,-1
 152 1453 l 1,8,-1
 116 1231 l 1,9,-1
 -48 1231 l 1,6,-1
388 1231 m 1,10,-1
 424 1453 l 1,11,-1
 588 1453 l 1,12,-1
 552 1231 l 1,13,-1
 388 1231 l 1,10,-1
EndSplineSet
EndChar

StartChar: Gamma
Encoding: 915 915 349
Width: 1024
GlyphClass: 2
Flags: W
LayerCount: 2
Fore
SplineSet
1090 1409 m 1,0,-1
 1054 1181 l 1,1,-1
 459 1181 l 1,2,-1
 271 1 l 1,3,-1
 30 1 l 1,4,-1
 253 1409 l 1,5,-1
 1090 1409 l 1,0,-1
EndSplineSet
EndChar

StartChar: Delta
Encoding: 916 916 350
Width: 1126
GlyphClass: 2
Flags: W
LayerCount: 2
Fore
SplineSet
-16 226 m 1,0,-1
 568 1409 l 1,1,-1
 850 1408 l 1,2,-1
 1051 226 l 1,3,-1
 1015 0 l 1,4,-1
 -52 0 l 1,5,-1
 -16 226 l 1,0,-1
815 244 m 1,6,-1
 708 942 l 2,7,8
 702 983 702 983 697 1024 c 2,9,-1
 688 1098 l 2,10,11
 684 1133 684 1133 682 1157.5 c 128,-1,12
 680 1182 680 1182 680 1189 c 1,13,14
 678 1182 678 1182 668 1157 c 2,15,-1
 642 1097 l 1,16,-1
 608 1021 l 1,17,-1
 572 940 l 1,18,-1
 246 244 l 1,19,-1
 815 244 l 1,6,-1
EndSplineSet
EndChar

StartChar: Theta
Encoding: 920 920 354
Width: 1307
GlyphClass: 2
Flags: W
LayerCount: 2
Fore
SplineSet
456 827 m 1,0,-1
 938 827 l 1,1,-1
 902 599 l 1,2,-1
 420 599 l 1,3,-1
 456 827 l 1,0,-1
761 1430 m 0,4,5
 882 1430 882 1430 978.5 1389.5 c 128,-1,6
 1075 1349 1075 1349 1142 1273.5 c 128,-1,7
 1209 1198 1209 1198 1244 1091 c 128,-1,8
 1279 984 1279 984 1279 851 c 0,9,10
 1279 802 1279 802 1275 749.5 c 128,-1,11
 1271 697 1271 697 1263 649 c 0,12,13
 1238 495 1238 495 1180 371.5 c 128,-1,14
 1122 248 1122 248 1036.5 161 c 128,-1,15
 951 74 951 74 840 27 c 128,-1,16
 729 -20 729 -20 596 -20 c 0,17,18
 470 -20 470 -20 374.5 23.5 c 128,-1,19
 279 67 279 67 213.5 145.5 c 128,-1,20
 148 224 148 224 115 333 c 128,-1,21
 82 442 82 442 82 573 c 0,22,23
 82 619 82 619 85.5 667 c 128,-1,24
 89 715 89 715 98 764 c 0,25,26
 123 914 123 914 179.5 1037 c 128,-1,27
 236 1160 236 1160 320.5 1247.5 c 128,-1,28
 405 1335 405 1335 516 1382.5 c 128,-1,29
 627 1430 627 1430 761 1430 c 0,4,5
750 1197 m 0,30,31
 662 1197 662 1197 593 1165 c 128,-1,32
 524 1133 524 1133 473.5 1073 c 128,-1,33
 423 1013 423 1013 389.5 925.5 c 128,-1,34
 356 838 356 838 339 727 c 0,35,36
 333 690 333 690 330.5 652.5 c 128,-1,37
 328 615 328 615 328 581 c 0,38,39
 328 397 328 397 402 304.5 c 128,-1,40
 476 212 476 212 608 212 c 0,41,42
 697 212 697 212 765.5 244.5 c 128,-1,43
 834 277 834 277 885 338 c 128,-1,44
 936 399 936 399 969.5 485.5 c 128,-1,45
 1003 572 1003 572 1020 680 c 0,46,47
 1026 716 1026 716 1028 757 c 128,-1,48
 1030 798 1030 798 1030 827 c 0,49,50
 1030 920 1030 920 1010 989 c 128,-1,51
 990 1058 990 1058 954 1104.5 c 128,-1,52
 918 1151 918 1151 866 1174 c 128,-1,53
 814 1197 814 1197 750 1197 c 0,30,31
EndSplineSet
EndChar

StartChar: Lambda
Encoding: 923 923 357
Width: 1120
GlyphClass: 2
Flags: W
LayerCount: 2
Fore
SplineSet
1020 1 m 1,0,-1
 778 1 l 1,1,-1
 682 886 l 2,2,3
 678 930 678 930 674.5 977 c 128,-1,4
 671 1024 671 1024 669 1063 c 0,5,6
 667 1109 667 1109 666 1152 c 1,7,8
 666 1152 666 1152 633 1064 c 2,9,10
 633 1064 633 1064 600 978 c 1,11,-1
 562 886 l 1,12,-1
 184 1 l 1,13,-1
 -76 1 l 1,14,-1
 575 1410 l 1,15,-1
 820 1410 l 1,16,-1
 1020 1 l 1,0,-1
EndSplineSet
EndChar

StartChar: Xi
Encoding: 926 926 360
Width: 1104
GlyphClass: 2
Flags: W
LayerCount: 2
Fore
SplineSet
246 1409 m 1,0,-1
 1133 1409 l 1,1,-1
 1097 1181 l 1,2,-1
 210 1181 l 1,3,-1
 246 1409 l 1,0,-1
974 228 m 1,4,-1
 937 0 l 1,5,-1
 -7 0 l 1,6,-1
 30 228 l 1,7,-1
 974 228 l 1,4,-1
942 827 m 5,8,-1
 906 599 l 5,9,-1
 216 599 l 5,10,-1
 252 827 l 5,11,-1
 942 827 l 5,8,-1
EndSplineSet
EndChar

StartChar: Pi
Encoding: 928 928 362
Width: 1212
GlyphClass: 2
Flags: W
LayerCount: 2
Fore
SplineSet
779 0 m 1,0,-1
 966 1165 l 1,1,-1
 458 1165 l 1,2,-1
 271 0 l 1,3,-1
 30 0 l 1,4,-1
 255 1409 l 1,5,-1
 1240 1409 l 1,6,-1
 1014 0 l 1,7,-1
 779 0 l 1,0,-1
EndSplineSet
EndChar

StartChar: Sigma
Encoding: 931 931 364
Width: 991
GlyphClass: 2
Flags: W
LayerCount: 2
Fore
SplineSet
-39 0 m 1,0,-1
 2 251 l 1,1,-1
 449 758 l 1,2,-1
 166 1193 l 1,3,-1
 199 1409 l 1,4,-1
 1018 1409 l 1,5,-1
 982 1181 l 1,6,-1
 411 1181 l 1,7,-1
 656 808 l 1,8,-1
 634 674 l 1,9,-1
 240 228 l 1,10,-1
 880 228 l 1,11,-1
 843 0 l 1,12,-1
 -39 0 l 1,0,-1
EndSplineSet
EndChar

StartChar: Phi
Encoding: 934 934 367
Width: 1380
GlyphClass: 2
Flags: W
LayerCount: 2
Fore
SplineSet
878 1052 m 1,0,-1
 774 397 l 1,1,-1
 818 397 l 2,2,3
 885 397 885 397 940 423 c 128,-1,4
 995 449 995 449 1034.5 499.5 c 128,-1,5
 1074 550 1074 550 1095.5 623 c 128,-1,6
 1117 696 1117 696 1117 789 c 0,7,8
 1117 847 1117 847 1104.5 895.5 c 128,-1,9
 1092 944 1092 944 1068.5 978.5 c 128,-1,10
 1045 1013 1045 1013 1009.5 1032.5 c 128,-1,11
 974 1052 974 1052 928 1052 c 2,12,-1
 878 1052 l 1,0,-1
488 -11 m 1,13,-1
 519 188 l 1,14,-1
 456 188 l 2,15,16
 372 188 372 188 303 221 c 128,-1,17
 234 254 234 254 184 315 c 128,-1,18
 134 376 134 376 106.5 461 c 128,-1,19
 79 546 79 546 79 651 c 0,20,21
 79 804 79 804 118 918.5 c 128,-1,22
 157 1033 157 1033 229.5 1109 c 128,-1,23
 302 1185 302 1185 404.5 1223 c 128,-1,24
 507 1261 507 1261 633 1261 c 2,25,-1
 690 1261 l 1,26,-1
 715 1419 l 1,27,-1
 936 1419 l 1,28,-1
 911 1261 l 1,29,-1
 966 1261 l 2,30,31
 1062 1261 1062 1261 1134.5 1225 c 128,-1,32
 1207 1189 1207 1189 1256 1126 c 128,-1,33
 1305 1063 1305 1063 1330 977.5 c 128,-1,34
 1355 892 1355 892 1355 793 c 0,35,36
 1355 651 1355 651 1318.5 539 c 128,-1,37
 1282 427 1282 427 1211.5 349 c 128,-1,38
 1141 271 1141 271 1039 229.5 c 128,-1,39
 937 188 937 188 806 188 c 2,40,-1
 740 188 l 1,41,-1
 709 -11 l 1,42,-1
 488 -11 l 1,13,-1
656 1052 m 1,43,-1
 619 1052 l 2,44,45
 553 1052 553 1052 498 1029 c 128,-1,46
 443 1006 443 1006 402.5 958.5 c 128,-1,47
 362 911 362 911 339.5 837.5 c 128,-1,48
 317 764 317 764 317 662 c 0,49,50
 317 607 317 607 328 558.5 c 128,-1,51
 339 510 339 510 361.5 474 c 128,-1,52
 384 438 384 438 418 417.5 c 128,-1,53
 452 397 452 397 498 397 c 2,54,-1
 552 397 l 1,55,-1
 656 1052 l 1,43,-1
EndSplineSet
EndChar

StartChar: Psi
Encoding: 936 936 369
Width: 1391
GlyphClass: 2
Flags: W
LayerCount: 2
Fore
SplineSet
793 427 m 1,0,-1
 725 0 l 1,1,-1
 497 0 l 1,2,-1
 565 427 l 1,3,-1
 541 427 l 2,4,5
 438 427 438 427 362.5 456 c 128,-1,6
 287 485 287 485 237.5 538.5 c 128,-1,7
 188 592 188 592 163.5 668 c 128,-1,8
 139 744 139 744 139 839 c 0,9,10
 139 909 139 909 152 987 c 2,11,-1
 219 1409 l 1,12,-1
 448 1409 l 1,13,-1
 379 973 l 2,14,15
 377 960 377 960 375 944.5 c 128,-1,16
 373 929 373 929 371.5 913 c 128,-1,17
 370 897 370 897 369.5 882.5 c 128,-1,18
 369 868 369 868 369 857 c 0,19,20
 369 751 369 751 422 699.5 c 128,-1,21
 475 648 475 648 578 648 c 2,22,-1
 600 648 l 1,23,-1
 721 1409 l 1,24,-1
 950 1409 l 1,25,-1
 829 648 l 1,26,-1
 860 648 l 2,27,28
 922 648 922 648 970.5 664 c 128,-1,29
 1019 680 1019 680 1054.5 715 c 128,-1,30
 1090 750 1090 750 1114 806 c 128,-1,31
 1138 862 1138 862 1150 942 c 2,32,-1
 1224 1409 l 1,33,-1
 1452 1409 l 1,34,-1
 1379 946 l 2,35,36
 1359 819 1359 819 1322.5 722 c 128,-1,37
 1286 625 1286 625 1225 559.5 c 128,-1,38
 1164 494 1164 494 1074 460.5 c 128,-1,39
 984 427 984 427 855 427 c 2,40,-1
 793 427 l 1,0,-1
EndSplineSet
EndChar

StartChar: Omega
Encoding: 937 937 370
Width: 1311
GlyphClass: 2
Flags: W
LayerCount: 2
Fore
SplineSet
745 1430 m 0,0,1
 870 1430 870 1430 968.5 1389.5 c 128,-1,2
 1067 1349 1067 1349 1135.5 1276 c 128,-1,3
 1204 1203 1204 1203 1240 1103 c 128,-1,4
 1276 1003 1276 1003 1276 883 c 0,5,6
 1276 771 1276 771 1253.5 669.5 c 128,-1,7
 1231 568 1231 568 1179.5 482.5 c 128,-1,8
 1128 397 1128 397 1045 329.5 c 128,-1,9
 962 262 962 262 840 217 c 1,10,11
 877 220 877 220 910 223 c 0,12,13
 939 225 939 225 969 226.5 c 128,-1,14
 999 228 999 228 1018 228 c 2,15,-1
 1203 228 l 1,16,-1
 1167 0 l 1,17,-1
 649 0 l 1,18,-1
 701 322 l 1,19,20
 779 352 779 352 839.5 402 c 128,-1,21
 900 452 900 452 942 519 c 128,-1,22
 984 586 984 586 1005.5 669 c 128,-1,23
 1027 752 1027 752 1027 849 c 0,24,25
 1027 932 1027 932 1006.5 997 c 128,-1,26
 986 1062 986 1062 948.5 1107 c 128,-1,27
 911 1152 911 1152 857 1175.5 c 128,-1,28
 803 1199 803 1199 736 1199 c 0,29,30
 664 1199 664 1199 596 1170.5 c 128,-1,31
 528 1142 528 1142 475.5 1083 c 128,-1,32
 423 1024 423 1024 391.5 932.5 c 128,-1,33
 360 841 360 841 360 715 c 0,34,35
 360 639 360 639 374.5 577.5 c 128,-1,36
 389 516 389 516 414 468 c 128,-1,37
 439 420 439 420 471.5 384 c 128,-1,38
 504 348 504 348 539 322 c 1,39,-1
 486 0 l 1,40,-1
 -26 0 l 1,41,-1
 10 228 l 1,42,-1
 211 228 l 2,43,44
 230 228 230 228 259 226.5 c 128,-1,45
 288 225 288 225 316 223 c 2,46,47
 316 223 316 223 385 217 c 1,48,49
 331 252 331 252 282 305 c 128,-1,50
 233 358 233 358 195 426.5 c 128,-1,51
 157 495 157 495 135 576 c 128,-1,52
 113 657 113 657 113 747 c 0,53,54
 113 911 113 911 160.5 1038.5 c 128,-1,55
 208 1166 208 1166 292.5 1253 c 128,-1,56
 377 1340 377 1340 493 1385 c 128,-1,57
 609 1430 609 1430 745 1430 c 0,0,1
EndSplineSet
EndChar

StartChar: alpha
Encoding: 945 945 378
Width: 1032
GlyphClass: 2
Flags: W
LayerCount: 2
Fore
SplineSet
497 1101 m 0,0,1
 557 1101 557 1101 604.5 1082.5 c 128,-1,2
 652 1064 652 1064 686 1030 c 128,-1,3
 720 996 720 996 741.5 949.5 c 128,-1,4
 763 903 763 903 772 847 c 1,5,-1
 774 847 l 1,6,7
 780 868 780 868 792 901 c 128,-1,8
 804 934 804 934 818 968.5 c 128,-1,9
 832 1003 832 1003 846 1034 c 128,-1,10
 860 1065 860 1065 869 1082 c 1,11,-1
 1090 1082 l 1,12,13
 1064 1035 1064 1035 1032 965 c 128,-1,14
 1000 895 1000 895 969.5 817 c 128,-1,15
 939 739 939 739 911 659.5 c 128,-1,16
 883 580 883 580 865 514 c 1,17,18
 865 413 865 413 868.5 338 c 128,-1,19
 872 263 872 263 877 204 c 128,-1,20
 882 145 882 145 888.5 96.5 c 128,-1,21
 895 48 895 48 903 0 c 1,22,-1
 677 0 l 1,23,24
 673 24 673 24 669 54.5 c 128,-1,25
 665 85 665 85 662 116 c 128,-1,26
 659 147 659 147 657.5 176 c 128,-1,27
 656 205 656 205 656 225 c 2,28,-1
 656 240 l 1,29,-1
 653 240 l 1,30,31
 625 187 625 187 593.5 139.5 c 128,-1,32
 562 92 562 92 523.5 56.5 c 128,-1,33
 485 21 485 21 437.5 0 c 128,-1,34
 390 -21 390 -21 329 -21 c 0,35,36
 261 -21 261 -21 208 6 c 128,-1,37
 155 33 155 33 119.5 84 c 128,-1,38
 84 135 84 135 65 208.5 c 128,-1,39
 46 282 46 282 46 375 c 0,40,41
 46 421 46 421 51 478 c 128,-1,42
 56 535 56 535 65 589 c 0,43,44
 88 731 88 731 129 829 c 128,-1,45
 170 927 170 927 225.5 987.5 c 128,-1,46
 281 1048 281 1048 349.5 1074.5 c 128,-1,47
 418 1101 418 1101 497 1101 c 0,0,1
501 907 m 0,48,49
 464 907 464 907 432.5 889.5 c 128,-1,50
 401 872 401 872 375.5 831.5 c 128,-1,51
 350 791 350 791 330 724 c 128,-1,52
 310 657 310 657 297 558 c 0,53,54
 291 508 291 508 287.5 465.5 c 128,-1,55
 284 423 284 423 284 387 c 0,56,57
 284 174 284 174 402 174 c 0,58,59
 435 174 435 174 468.5 198 c 128,-1,60
 502 222 502 222 533.5 269.5 c 128,-1,61
 565 317 565 317 592.5 388 c 128,-1,62
 620 459 620 459 642 552 c 1,63,64
 643 569 643 569 643.5 585 c 128,-1,65
 644 601 644 601 644 616 c 0,66,67
 644 679 644 679 635.5 732.5 c 128,-1,68
 627 786 627 786 610 825 c 128,-1,69
 593 864 593 864 566 885.5 c 128,-1,70
 539 907 539 907 501 907 c 0,48,49
EndSplineSet
EndChar

StartChar: beta
Encoding: 946 946 379
Width: 1042
GlyphClass: 2
Flags: W
LayerCount: 2
Fore
SplineSet
193 1011 m 2,0,1
 230 1242 230 1242 341.5 1363 c 128,-1,2
 453 1484 453 1484 649 1484 c 0,3,4
 724 1484 724 1484 786 1461 c 128,-1,5
 848 1438 848 1438 892.5 1395 c 128,-1,6
 937 1352 937 1352 961.5 1292.5 c 128,-1,7
 986 1233 986 1233 986 1159 c 0,8,9
 986 1076 986 1076 966 1011 c 128,-1,10
 946 946 946 946 913 899 c 128,-1,11
 880 852 880 852 836.5 823 c 128,-1,12
 793 794 793 794 746 782 c 1,13,14
 790 769 790 769 828 741 c 128,-1,15
 866 713 866 713 894 672 c 128,-1,16
 922 631 922 631 938 578 c 128,-1,17
 954 525 954 525 954 461 c 0,18,19
 954 354 954 354 926 265.5 c 128,-1,20
 898 177 898 177 843.5 113.5 c 128,-1,21
 789 50 789 50 711.5 15 c 128,-1,22
 634 -20 634 -20 534 -20 c 0,23,24
 452 -20 452 -20 386 8 c 128,-1,25
 320 36 320 36 275 74 c 1,26,-1
 271 74 l 1,27,28
 271 74 271 74 258 -29 c 0,29,30
 253 -75 253 -75 243 -128 c 1,31,-1
 195 -425 l 1,32,-1
 -36 -425 l 1,33,-1
 193 1011 l 2,0,1
630 1281 m 0,34,35
 550 1281 550 1281 498 1214 c 128,-1,36
 446 1147 446 1147 424 1009 c 2,37,-1
 303 255 l 1,38,39
 319 241 319 241 340.5 226 c 128,-1,40
 362 211 362 211 387 199 c 128,-1,41
 412 187 412 187 440 179.5 c 128,-1,42
 468 172 468 172 496 172 c 0,43,44
 546 172 546 172 588 189.5 c 128,-1,45
 630 207 630 207 661 242.5 c 128,-1,46
 692 278 692 278 709 331.5 c 128,-1,47
 726 385 726 385 726 457 c 0,48,49
 726 504 726 504 711 544.5 c 128,-1,50
 696 585 696 585 666.5 614 c 128,-1,51
 637 643 637 643 594 659.5 c 128,-1,52
 551 676 551 676 495 676 c 1,53,-1
 528 874 l 1,54,55
 584 882 584 882 627.5 900.5 c 128,-1,56
 671 919 671 919 701.5 949 c 128,-1,57
 732 979 732 979 748 1022.5 c 128,-1,58
 764 1066 764 1066 764 1123 c 0,59,60
 764 1193 764 1193 730.5 1237 c 128,-1,61
 697 1281 697 1281 630 1281 c 0,34,35
EndSplineSet
EndChar

StartChar: gamma
Encoding: 947 947 380
Width: 934
GlyphClass: 2
Flags: W
LayerCount: 2
Fore
SplineSet
89 1082 m 1,0,-1
 325 1082 l 1,1,-1
 389 507 l 2,2,3
 391 484 391 484 394 442 c 128,-1,4
 397 400 397 400 399 353.5 c 128,-1,5
 401 307 401 307 402.5 262.5 c 128,-1,6
 404 218 404 218 404 188 c 1,7,8
 412 219 412 219 424 256 c 2,9,-1
 448 328 l 1,10,-1
 473 394 l 1,11,-1
 493 447 l 1,12,-1
 759 1082 l 1,13,-1
 1009 1082 l 1,14,-1
 522 54 l 1,15,16
 522 54 522 54 472 -56 c 1,17,18
 448 -112 448 -112 425.5 -170.5 c 128,-1,19
 403 -229 403 -229 383 -292 c 128,-1,20
 363 -355 363 -355 344 -425 c 1,21,-1
 107 -425 l 1,22,23
 145 -291 145 -291 183.5 -184 c 128,-1,24
 222 -77 222 -77 259 11 c 1,25,-1
 89 1082 l 1,0,-1
EndSplineSet
EndChar

StartChar: delta
Encoding: 948 948 381
Width: 1026
GlyphClass: 2
Flags: W
LayerCount: 2
Fore
SplineSet
457 177 m 0,0,1
 518 177 518 177 563.5 206.5 c 128,-1,2
 609 236 609 236 640 287.5 c 128,-1,3
 671 339 671 339 686.5 408.5 c 128,-1,4
 702 478 702 478 702 558 c 0,5,6
 702 616 702 616 693.5 664.5 c 128,-1,7
 685 713 685 713 670 754 c 128,-1,8
 655 795 655 795 634.5 831 c 128,-1,9
 614 867 614 867 590 900 c 1,10,11
 590 900 590 900 526 868 c 0,12,13
 491 851 491 851 457 825.5 c 128,-1,14
 423 800 423 800 391.5 765 c 128,-1,15
 360 730 360 730 336 682.5 c 128,-1,16
 312 635 312 635 297.5 572.5 c 128,-1,17
 283 510 283 510 283 430 c 0,18,19
 283 369 283 369 296 322 c 128,-1,20
 309 275 309 275 332 242.5 c 128,-1,21
 355 210 355 210 387 193.5 c 128,-1,22
 419 177 419 177 457 177 c 0,0,1
702 1294 m 2,23,24
 691 1294 691 1294 674 1295 c 128,-1,25
 657 1296 657 1296 639 1297.5 c 128,-1,26
 621 1299 621 1299 604 1300 c 128,-1,27
 587 1301 587 1301 577 1302 c 1,28,-1
 788 992 l 1,29,30
 822 938 822 938 849.5 886.5 c 128,-1,31
 877 835 877 835 897.5 780 c 128,-1,32
 918 725 918 725 929.5 665.5 c 128,-1,33
 941 606 941 606 941 537 c 0,34,35
 941 405 941 405 904 302 c 128,-1,36
 867 199 867 199 800 127.5 c 128,-1,37
 733 56 733 56 640.5 18.5 c 128,-1,38
 548 -19 548 -19 437 -19 c 0,39,40
 344 -19 344 -19 271.5 14 c 128,-1,41
 199 47 199 47 148.5 105.5 c 128,-1,42
 98 164 98 164 71.5 243.5 c 128,-1,43
 45 323 45 323 45 415 c 0,44,45
 45 549 45 549 83 647.5 c 128,-1,46
 121 746 121 746 185.5 817 c 128,-1,47
 250 888 250 888 334.5 935.5 c 128,-1,48
 419 983 419 983 513 1013 c 1,49,-1
 310 1325 l 1,50,-1
 340 1484 l 1,51,-1
 1028 1484 l 1,52,-1
 1005 1294 l 1,53,-1
 702 1294 l 2,23,24
EndSplineSet
EndChar

StartChar: epsilon
Encoding: 949 949 382
Width: 807
GlyphClass: 2
Flags: W
LayerCount: 2
Fore
SplineSet
380 170 m 0,0,1
 453 170 453 170 514.5 209.5 c 128,-1,2
 576 249 576 249 633 310 c 1,3,-1
 739 159 l 1,4,5
 701 116 701 116 660.5 83 c 128,-1,6
 620 50 620 50 573 27 c 128,-1,7
 526 4 526 4 470 -8 c 128,-1,8
 414 -20 414 -20 346 -20 c 0,9,10
 270 -20 270 -20 210 4 c 128,-1,11
 150 28 150 28 108 70 c 128,-1,12
 66 112 66 112 43.5 169 c 128,-1,13
 21 226 21 226 21 292 c 0,14,15
 21 359 21 359 41 409.5 c 128,-1,16
 61 460 61 460 96 495.5 c 128,-1,17
 131 531 131 531 180 551.5 c 128,-1,18
 229 572 229 572 287 579 c 1,19,-1
 288 581 l 1,20,21
 256 592 256 592 228 611.5 c 128,-1,22
 200 631 200 631 178.5 659.5 c 128,-1,23
 157 688 157 688 145 725 c 128,-1,24
 133 762 133 762 133 806 c 0,25,26
 133 879 133 879 158.5 934.5 c 128,-1,27
 184 990 184 990 231.5 1027 c 128,-1,28
 279 1064 279 1064 346 1082.5 c 128,-1,29
 413 1101 413 1101 496 1101 c 0,30,31
 553 1101 553 1101 601 1089.5 c 128,-1,32
 649 1078 649 1078 689.5 1052.5 c 128,-1,33
 730 1027 730 1027 763.5 986.5 c 128,-1,34
 797 946 797 946 823 888 c 1,35,-1
 665 804 l 1,36,37
 636 867 636 867 593.5 895 c 128,-1,38
 551 923 551 923 497 923 c 0,39,40
 469 923 469 923 442 916 c 128,-1,41
 415 909 415 909 395 894 c 128,-1,42
 375 879 375 879 362.5 854.5 c 128,-1,43
 350 830 350 830 350 794 c 0,44,45
 350 755 350 755 369 728 c 128,-1,46
 388 701 388 701 421.5 684 c 128,-1,47
 455 667 455 667 499 659.5 c 128,-1,48
 543 652 543 652 595 652 c 1,49,-1
 576 477 l 1,50,51
 519 477 519 477 462.5 473.5 c 128,-1,52
 406 470 406 470 361 453.5 c 128,-1,53
 316 437 316 437 288.5 402 c 128,-1,54
 261 367 261 367 261 304 c 0,55,56
 261 245 261 245 293.5 207.5 c 128,-1,57
 326 170 326 170 380 170 c 0,0,1
EndSplineSet
EndChar

StartChar: zeta
Encoding: 950 950 383
Width: 825
GlyphClass: 2
Flags: W
LayerCount: 2
Fore
SplineSet
891 1484 m 1,0,-1
 864 1295 l 1,1,2
 864 1295 864 1295 736 1158 c 1,3,-1
 602 1008 l 1,4,5
 536 930 536 930 475.5 848.5 c 128,-1,6
 415 767 415 767 369.5 686 c 128,-1,7
 324 605 324 605 296.5 526 c 128,-1,8
 269 447 269 447 269 373 c 0,9,10
 269 334 269 334 281 308.5 c 128,-1,11
 293 283 293 283 317.5 264 c 128,-1,12
 342 245 342 245 377.5 230 c 128,-1,13
 413 215 413 215 460 198 c 0,14,15
 505 182 505 182 547 162 c 128,-1,16
 589 142 589 142 622 113 c 128,-1,17
 655 84 655 84 674.5 43.5 c 128,-1,18
 694 3 694 3 694 -56 c 0,19,20
 694 -105 694 -105 683.5 -153.5 c 128,-1,21
 673 -202 673 -202 655 -246.5 c 128,-1,22
 637 -291 637 -291 612.5 -330.5 c 128,-1,23
 588 -370 588 -370 560 -402 c 1,24,-1
 434 -305 l 1,25,-1
 456 -272 l 2,26,27
 468 -253 468 -253 477.5 -232.5 c 128,-1,28
 487 -212 487 -212 494 -189.5 c 128,-1,29
 501 -167 501 -167 501 -145 c 0,30,31
 501 -117 501 -117 485 -96.5 c 128,-1,32
 469 -76 469 -76 440 -59.5 c 128,-1,33
 411 -43 411 -43 372 -29 c 128,-1,34
 333 -15 333 -15 288 -1 c 0,35,36
 237 15 237 15 192 37 c 128,-1,37
 147 59 147 59 113 94 c 128,-1,38
 79 129 79 129 59.5 179.5 c 128,-1,39
 40 230 40 230 40 303 c 0,40,41
 40 393 40 393 65.5 483 c 128,-1,42
 91 573 91 573 135 661 c 128,-1,43
 179 749 179 749 238 834 c 128,-1,44
 297 919 297 919 363.5 999 c 128,-1,45
 430 1079 430 1079 502 1154 c 1,46,-1
 642 1295 l 1,47,-1
 643 1301 l 1,48,49
 633 1300 633 1300 620 1299 c 2,50,-1
 592 1297 l 2,51,52
 578 1296 578 1296 564.5 1295.5 c 128,-1,53
 551 1295 551 1295 542 1295 c 2,54,-1
 287 1295 l 1,55,-1
 317 1484 l 1,56,-1
 891 1484 l 1,0,-1
EndSplineSet
EndChar

StartChar: eta
Encoding: 951 951 384
Width: 1026
GlyphClass: 2
Flags: W
LayerCount: 2
Fore
SplineSet
955 817 m 0,0,1
 955 799 955 799 953 776 c 128,-1,2
 951 753 951 753 948 730 c 2,3,-1
 944 688 l 2,4,5
 941 667 941 667 938 653 c 2,6,-1
 767 -425 l 1,7,-1
 538 -425 l 1,8,-1
 702 595 l 2,9,10
 705 614 705 614 709 637 c 128,-1,11
 713 660 713 660 716 683 c 128,-1,12
 719 706 719 706 721 726.5 c 128,-1,13
 723 747 723 747 723 760 c 0,14,15
 723 823 723 823 692 856 c 128,-1,16
 661 889 661 889 599 889 c 0,17,18
 560 889 560 889 521.5 869 c 128,-1,19
 483 849 483 849 450 812 c 128,-1,20
 417 775 417 775 392 722.5 c 128,-1,21
 367 670 367 670 357 606 c 2,22,-1
 262 0 l 1,23,-1
 30 0 l 1,24,-1
 166 851 l 2,25,26
 177 919 177 919 177 979.5 c 128,-1,27
 177 1040 177 1040 173 1082 c 1,28,-1
 394 1082 l 1,29,30
 398 1061 398 1061 399.5 1037 c 128,-1,31
 401 1013 401 1013 401 988.5 c 128,-1,32
 401 964 401 964 400 940.5 c 128,-1,33
 399 917 399 917 395 897 c 1,34,-1
 399 897 l 1,35,36
 424 939 424 939 453.5 976 c 128,-1,37
 483 1013 483 1013 520 1041 c 128,-1,38
 557 1069 557 1069 602.5 1085 c 128,-1,39
 648 1101 648 1101 704 1101 c 0,40,41
 829 1101 829 1101 892 1028 c 128,-1,42
 955 955 955 955 955 817 c 0,0,1
EndSplineSet
EndChar

StartChar: theta
Encoding: 952 952 385
Width: 924
GlyphClass: 2
Flags: W
LayerCount: 2
Fore
SplineSet
595 1484 m 0,0,1
 745 1484 745 1484 817.5 1367.5 c 128,-1,2
 890 1251 890 1251 890 1028 c 0,3,4
 890 964 890 964 882.5 882 c 128,-1,5
 875 800 875 800 862 709 c 1,6,7
 832 519 832 519 787 381 c 128,-1,8
 742 243 742 243 682 154 c 128,-1,9
 622 65 622 65 546 22.5 c 128,-1,10
 470 -20 470 -20 378 -20 c 0,11,12
 312 -20 312 -20 258.5 9.5 c 128,-1,13
 205 39 205 39 167 99 c 128,-1,14
 129 159 129 159 108 248.5 c 128,-1,15
 87 338 87 338 87 458 c 0,16,17
 87 516 87 516 93 589.5 c 128,-1,18
 99 663 99 663 112 743 c 0,19,20
 171 1117 171 1117 289 1300.5 c 128,-1,21
 407 1484 407 1484 595 1484 c 0,0,1
406 163 m 0,22,23
 440 163 440 163 471 185.5 c 128,-1,24
 502 208 502 208 529.5 262.5 c 128,-1,25
 557 317 557 317 581 410 c 128,-1,26
 605 503 605 503 625 644 c 1,27,-1
 318 644 l 1,28,29
 308 579 308 579 302 512.5 c 128,-1,30
 296 446 296 446 296 399 c 0,31,32
 296 332 296 332 304 287 c 128,-1,33
 312 242 312 242 326.5 214.5 c 128,-1,34
 341 187 341 187 361.5 175 c 128,-1,35
 382 163 382 163 406 163 c 0,22,23
565 1299 m 0,36,37
 531 1299 531 1299 500 1277.5 c 128,-1,38
 469 1256 469 1256 441.5 1202.5 c 128,-1,39
 414 1149 414 1149 391 1059.5 c 128,-1,40
 368 970 368 970 349 834 c 1,41,-1
 655 834 l 1,42,43
 666 893 666 893 673 954.5 c 128,-1,44
 680 1016 680 1016 680 1062 c 0,45,46
 680 1188 680 1188 649 1243.5 c 128,-1,47
 618 1299 618 1299 565 1299 c 0,36,37
EndSplineSet
EndChar

StartChar: iota
Encoding: 953 953 386
Width: 467
GlyphClass: 2
Flags: W
LayerCount: 2
Fore
SplineSet
289 145 m 0,0,1
 289 59 289 59 323 0 c 1,2,-1
 77 0 l 1,3,4
 69 16 69 16 62 50.5 c 128,-1,5
 55 85 55 85 55 124 c 0,6,7
 55 152 55 152 57.5 183 c 128,-1,8
 60 214 60 214 64 236 c 2,9,-1
 199 1082 l 1,10,-1
 431 1082 l 1,11,-1
 294 227 l 2,12,13
 292 210 292 210 290.5 186 c 128,-1,14
 289 162 289 162 289 145 c 0,0,1
EndSplineSet
EndChar

StartChar: kappa
Encoding: 954 954 387
Width: 950
GlyphClass: 2
Flags: W
LayerCount: 2
Fore
SplineSet
617 0 m 1,0,-1
 461 439 l 1,1,-1
 317 326 l 1,2,-1
 261 0 l 1,3,-1
 30 0 l 1,4,-1
 203 1082 l 1,5,-1
 434 1082 l 1,6,-1
 350 561 l 1,7,-1
 764 1082 l 1,8,-1
 1011 1082 l 1,9,-1
 626 620 l 1,10,-1
 853 0 l 1,11,-1
 617 0 l 1,0,-1
EndSplineSet
EndChar

StartChar: lambda
Encoding: 955 955 388
Width: 934
GlyphClass: 2
Flags: W
LayerCount: 2
Fore
SplineSet
825 0 m 1,0,-1
 592 0 l 1,1,-1
 554 462 l 1,2,3
 554 462 554 462 548 522 c 0,4,5
 545 560 545 560 542 601 c 2,6,-1
 538 680 l 1,7,8
 535 718 535 718 535 741 c 1,9,10
 525 714 525 714 508 674 c 2,11,-1
 470 589 l 1,12,-1
 428 502 l 1,13,-1
 393 429 l 1,14,-1
 175 0 l 1,15,-1
 -75 0 l 1,16,-1
 481 1020 l 1,17,-1
 471 1093 l 1,18,19
 460 1162 460 1162 448.5 1208 c 128,-1,20
 437 1254 437 1254 422.5 1281.5 c 128,-1,21
 408 1309 408 1309 389.5 1320.5 c 128,-1,22
 371 1332 371 1332 344 1332 c 0,23,24
 328 1332 328 1332 307.5 1327.5 c 128,-1,25
 287 1323 287 1323 271 1315 c 1,26,-1
 249 1507 l 1,27,28
 276 1518 276 1518 318 1527.5 c 128,-1,29
 360 1537 360 1537 407 1537 c 0,30,31
 473 1537 473 1537 518.5 1515.5 c 128,-1,32
 564 1494 564 1494 595 1448 c 128,-1,33
 626 1402 626 1402 644.5 1331 c 128,-1,34
 663 1260 663 1260 676 1162 c 2,35,-1
 825 0 l 1,0,-1
EndSplineSet
EndChar

StartChar: mu
Encoding: 956 956 389
Width: 1022
GlyphClass: 2
Flags: W
LayerCount: 2
Fore
SplineSet
612 0 m 1,0,1
 613 12 613 12 614.5 34 c 128,-1,2
 616 56 616 56 618.5 82.5 c 128,-1,3
 621 109 621 109 624 136 c 128,-1,4
 627 163 627 163 631 184 c 1,5,-1
 628 184 l 1,6,7
 581 85 581 85 524.5 32.5 c 128,-1,8
 468 -20 468 -20 396 -20 c 0,9,10
 349 -20 349 -20 316.5 4 c 128,-1,11
 284 28 284 28 271 70 c 1,12,-1
 266 70 l 1,13,14
 263 42 263 42 262 26 c 2,15,-1
 259 0 l 2,16,17
 258 -10 258 -10 257 -19.5 c 128,-1,18
 256 -29 256 -29 253 -45 c 2,19,-1
 193 -424 l 1,20,-1
 -39 -424 l 1,21,-1
 202 1082 l 1,22,-1
 434 1082 l 1,23,-1
 337 477 l 2,24,25
 332 444 332 444 329 414 c 128,-1,26
 326 384 326 384 326 358 c 0,27,28
 326 282 326 282 353 237.5 c 128,-1,29
 380 193 380 193 444 193 c 0,30,31
 485 193 485 193 522 215.5 c 128,-1,32
 559 238 559 238 589 278.5 c 128,-1,33
 619 319 619 319 641.5 376.5 c 128,-1,34
 664 434 664 434 675 504 c 2,35,-1
 768 1082 l 1,36,-1
 1000 1082 l 1,37,-1
 866 242 l 2,38,39
 860 208 860 208 854.5 171.5 c 128,-1,40
 849 135 849 135 845 102 c 2,41,-1
 838 41 l 2,42,43
 834 14 834 14 833 0 c 1,44,-1
 612 0 l 1,0,1
EndSplineSet
EndChar

StartChar: nu
Encoding: 957 957 390
Width: 934
GlyphClass: 2
Flags: W
LayerCount: 2
Fore
SplineSet
401 239 m 1,0,1
 465 334 465 334 516 420 c 128,-1,2
 567 506 567 506 603 592 c 128,-1,3
 639 678 639 678 658 768.5 c 128,-1,4
 677 859 677 859 677 962 c 0,5,6
 677 997 677 997 673.5 1026 c 128,-1,7
 670 1055 670 1055 666 1082 c 1,8,-1
 904 1082 l 1,9,10
 911 1057 911 1057 914.5 1029 c 128,-1,11
 918 1001 918 1001 918 967 c 0,12,13
 918 883 918 883 899.5 799.5 c 128,-1,14
 881 716 881 716 848.5 633 c 128,-1,15
 816 550 816 550 771.5 468.5 c 128,-1,16
 727 387 727 387 675 308 c 128,-1,17
 623 229 623 229 566 152 c 2,18,-1
 452 0 l 1,19,-1
 233 0 l 1,20,-1
 86 1082 l 1,21,-1
 321 1082 l 1,22,-1
 401 239 l 1,0,1
EndSplineSet
EndChar

StartChar: xi
Encoding: 958 958 391
Width: 756
GlyphClass: 2
Flags: W
LayerCount: 2
Fore
SplineSet
833 1484 m 1,0,-1
 804 1299 l 1,1,2
 738 1290 738 1290 678 1275 c 128,-1,3
 618 1260 618 1260 573 1233.5 c 128,-1,4
 528 1207 528 1207 501 1167 c 128,-1,5
 474 1127 474 1127 474 1069 c 0,6,7
 474 1023 474 1023 493.5 994 c 128,-1,8
 513 965 513 965 545 947 c 128,-1,9
 577 929 577 929 618.5 920.5 c 128,-1,10
 660 912 660 912 705 907 c 1,11,-1
 675 716 l 1,12,13
 590 704 590 704 516 683.5 c 128,-1,14
 442 663 442 663 387 626 c 128,-1,15
 332 589 332 589 300 531.5 c 128,-1,16
 268 474 268 474 268 389 c 0,17,18
 268 350 268 350 277 322.5 c 128,-1,19
 286 295 286 295 308 274.5 c 128,-1,20
 330 254 330 254 365 237 c 128,-1,21
 400 220 400 220 451 202 c 0,22,23
 492 187 492 187 532 168.5 c 128,-1,24
 572 150 572 150 603.5 121 c 128,-1,25
 635 92 635 92 655 49.5 c 128,-1,26
 675 7 675 7 675 -56 c 0,27,28
 675 -104 675 -104 664 -151 c 128,-1,29
 653 -198 653 -198 634.5 -242 c 128,-1,30
 616 -286 616 -286 592 -326 c 128,-1,31
 568 -366 568 -366 543 -400 c 1,32,-1
 418 -304 l 1,33,34
 443 -263 443 -263 461.5 -229 c 128,-1,35
 480 -195 480 -195 480 -154 c 0,36,37
 480 -121 480 -121 466.5 -98.5 c 128,-1,38
 453 -76 453 -76 429 -59 c 128,-1,39
 405 -42 405 -42 371 -29 c 128,-1,40
 337 -16 337 -16 296 -4 c 0,41,42
 249 10 249 10 203.5 31.5 c 128,-1,43
 158 53 158 53 121.5 88 c 128,-1,44
 85 123 85 123 62.5 175.5 c 128,-1,45
 40 228 40 228 40 304 c 0,46,47
 40 392 40 392 68 475 c 128,-1,48
 96 558 96 558 153.5 626.5 c 128,-1,49
 211 695 211 695 297.5 745 c 128,-1,50
 384 795 384 795 502 816 c 1,51,-1
 502 818 l 1,52,53
 454 822 454 822 411.5 838.5 c 128,-1,54
 369 855 369 855 339 883 c 128,-1,55
 309 911 309 911 291.5 950.5 c 128,-1,56
 274 990 274 990 274 1040 c 0,57,58
 274 1100 274 1100 296 1143 c 128,-1,59
 318 1186 318 1186 355 1216 c 128,-1,60
 392 1246 392 1246 439.5 1264.5 c 128,-1,61
 487 1283 487 1283 536 1293 c 1,62,-1
 538 1301 l 1,63,64
 528 1300 528 1300 499.5 1299 c 128,-1,65
 471 1298 471 1298 438 1297 c 128,-1,66
 405 1296 405 1296 373.5 1295.5 c 128,-1,67
 342 1295 342 1295 328 1295 c 2,68,-1
 265 1295 l 1,69,-1
 296 1484 l 1,70,-1
 833 1484 l 1,0,-1
EndSplineSet
EndChar

StartChar: pi
Encoding: 960 960 393
Width: 1196
GlyphClass: 2
Flags: W
LayerCount: 2
Fore
SplineSet
514 892 m 1,0,-1
 494 768 l 2,1,2
 473 638 473 638 449 529 c 128,-1,3
 425 420 425 420 399 327 c 128,-1,4
 373 234 373 234 346 154 c 1,5,-1
 290 0 l 1,6,-1
 55 0 l 1,7,8
 55 0 55 0 112 158 c 0,9,10
 141 239 141 239 169 331 c 128,-1,11
 197 423 197 423 222.5 529 c 128,-1,12
 248 635 248 635 267 760 c 1,13,-1
 289 892 l 1,14,15
 257 892 257 892 226 889 c 128,-1,16
 195 886 195 886 169.5 880.5 c 128,-1,17
 144 875 144 875 123.5 868.5 c 128,-1,18
 103 862 103 862 92 855 c 1,19,-1
 124 1053 l 1,20,21
 135 1059 135 1059 153 1064.5 c 128,-1,22
 171 1070 171 1070 193 1074 c 128,-1,23
 215 1078 215 1078 237 1080 c 128,-1,24
 259 1082 259 1082 278 1082 c 2,25,-1
 1212 1082 l 1,26,-1
 1182 892 l 1,27,-1
 991 892 l 1,28,-1
 900 329 l 2,29,30
 895 296 895 296 895 271 c 0,31,32
 895 221 895 221 914 199 c 128,-1,33
 933 177 933 177 970 177 c 0,34,35
 977 177 977 177 988.5 178.5 c 128,-1,36
 1000 180 1000 180 1012.5 182 c 128,-1,37
 1025 184 1025 184 1036.5 186.5 c 128,-1,38
 1048 189 1048 189 1055 190 c 1,39,-1
 1029 7 l 1,40,41
 1014 2 1014 2 992.5 -3 c 128,-1,42
 971 -8 971 -8 947.5 -12 c 128,-1,43
 924 -16 924 -16 902 -18 c 0,44,45
 878 -20 878 -20 860 -20 c 0,46,47
 809 -20 809 -20 772 -2.5 c 128,-1,48
 735 15 735 15 711 46.5 c 128,-1,49
 687 78 687 78 675.5 122 c 128,-1,50
 664 166 664 166 664 219 c 0,51,52
 664 245 664 245 666.5 277.5 c 128,-1,53
 669 310 669 310 673 339 c 2,54,-1
 761 892 l 1,55,-1
 514 892 l 1,0,-1
EndSplineSet
EndChar

StartChar: rho
Encoding: 961 961 394
Width: 1034
GlyphClass: 2
Flags: W
LayerCount: 2
Fore
SplineSet
598 1103 m 0,0,1
 684 1103 684 1103 755 1072 c 128,-1,2
 826 1041 826 1041 876 981.5 c 128,-1,3
 926 922 926 922 953.5 834 c 128,-1,4
 981 746 981 746 981 632 c 0,5,6
 981 495 981 495 950 376 c 128,-1,7
 919 257 919 257 860.5 169 c 128,-1,8
 802 81 802 81 719.5 30.5 c 128,-1,9
 637 -20 637 -20 535 -20 c 0,10,11
 447 -20 447 -20 390 15.5 c 128,-1,12
 333 51 333 51 294 117 c 1,13,-1
 290 117 l 1,14,15
 287 87 287 87 283.5 59.5 c 128,-1,16
 280 32 280 32 275 0 c 2,17,-1
 206 -425 l 1,18,-1
 -39 -425 l 1,19,-1
 123 581 l 2,20,21
 142 699 142 699 177.5 795 c 128,-1,22
 213 891 213 891 270 959.5 c 128,-1,23
 327 1028 327 1028 407.5 1065.5 c 128,-1,24
 488 1103 488 1103 598 1103 c 0,0,1
584 909 m 0,25,26
 539 909 539 909 503 886 c 128,-1,27
 467 863 467 863 440.5 819.5 c 128,-1,28
 414 776 414 776 395 713.5 c 128,-1,29
 376 651 376 651 364 572 c 2,30,-1
 323 290 l 1,31,32
 355 236 355 236 402.5 205 c 128,-1,33
 450 174 450 174 505 174 c 0,34,35
 561 174 561 174 604.5 212 c 128,-1,36
 648 250 648 250 678 314 c 128,-1,37
 708 378 708 378 723.5 462 c 128,-1,38
 739 546 739 546 739 637 c 0,39,40
 739 708 739 708 727 759.5 c 128,-1,41
 715 811 715 811 694.5 844 c 128,-1,42
 674 877 674 877 645.5 893 c 128,-1,43
 617 909 617 909 584 909 c 0,25,26
EndSplineSet
EndChar

StartChar: sigma1
Encoding: 962 962 395
Width: 895
GlyphClass: 2
Flags: W
LayerCount: 2
Fore
SplineSet
610 1103 m 0,0,1
 712 1103 712 1103 781 1060 c 128,-1,2
 850 1017 850 1017 891 946 c 1,3,-1
 758 804 l 1,4,5
 746 823 746 823 730.5 842.5 c 128,-1,6
 715 862 715 862 695.5 877.5 c 128,-1,7
 676 893 676 893 652 903 c 128,-1,8
 628 913 628 913 600 913 c 0,9,10
 552 913 552 913 510.5 887 c 128,-1,11
 469 861 469 861 434.5 818.5 c 128,-1,12
 400 776 400 776 373 723 c 128,-1,13
 346 670 346 670 327.5 615.5 c 128,-1,14
 309 561 309 561 299 510.5 c 128,-1,15
 289 460 289 460 289 424 c 0,16,17
 289 381 289 381 298.5 350 c 128,-1,18
 308 319 308 319 331 295 c 128,-1,19
 354 271 354 271 392.5 251 c 128,-1,20
 431 231 431 231 489 210 c 1,21,22
 489 210 489 210 583 174 c 1,23,24
 631 154 631 154 670 123 c 128,-1,25
 709 92 709 92 734 47 c 128,-1,26
 759 2 759 2 759 -66 c 0,27,28
 759 -117 759 -117 748 -164 c 128,-1,29
 737 -211 737 -211 718.5 -253.5 c 128,-1,30
 700 -296 700 -296 675 -333 c 128,-1,31
 650 -370 650 -370 623 -402 c 1,32,-1
 498 -305 l 1,33,-1
 518 -275 l 2,34,35
 530 -258 530 -258 540 -237.5 c 128,-1,36
 550 -217 550 -217 557 -193.5 c 128,-1,37
 564 -170 564 -170 564 -143 c 0,38,39
 564 -115 564 -115 550.5 -95 c 128,-1,40
 537 -75 537 -75 509 -58.5 c 128,-1,41
 481 -42 481 -42 438.5 -26.5 c 128,-1,42
 396 -11 396 -11 337 8 c 0,43,44
 271 29 271 29 219.5 56 c 128,-1,45
 168 83 168 83 133.5 121.5 c 128,-1,46
 99 160 99 160 80.5 211.5 c 128,-1,47
 62 263 62 263 62 334 c 0,48,49
 62 403 62 403 78 486.5 c 128,-1,50
 94 570 94 570 125 655.5 c 128,-1,51
 156 741 156 741 202 821.5 c 128,-1,52
 248 902 248 902 309 964.5 c 128,-1,53
 370 1027 370 1027 445 1065 c 128,-1,54
 520 1103 520 1103 610 1103 c 0,0,1
EndSplineSet
EndChar

StartChar: sigma
Encoding: 963 963 396
Width: 1106
GlyphClass: 2
Flags: W
LayerCount: 2
Fore
SplineSet
433 -20 m 0,0,1
 339 -20 339 -20 268 11 c 128,-1,2
 197 42 197 42 149 98 c 128,-1,3
 101 154 101 154 76.5 234 c 128,-1,4
 52 314 52 314 52 411 c 0,5,6
 52 447 52 447 55.5 489 c 128,-1,7
 59 531 59 531 66 571 c 0,8,9
 92 715 92 715 151 813 c 128,-1,10
 210 911 210 911 292 970.5 c 128,-1,11
 374 1030 374 1030 474 1056 c 128,-1,12
 574 1082 574 1082 682 1082 c 2,13,-1
 1159 1082 l 1,14,-1
 1129 892 l 1,15,-1
 1020 892 l 2,16,17
 1011 892 1011 892 992.5 892.5 c 128,-1,18
 974 893 974 893 952 894 c 2,19,-1
 908 896 l 2,20,21
 885 897 885 897 868 898 c 1,22,-1
 867 894 l 1,23,24
 882 866 882 866 895.5 832 c 128,-1,25
 909 798 909 798 920 760 c 128,-1,26
 931 722 931 722 937.5 680 c 128,-1,27
 944 638 944 638 944 592 c 0,28,29
 944 466 944 466 913 354.5 c 128,-1,30
 882 243 882 243 818.5 160 c 128,-1,31
 755 77 755 77 659 28.5 c 128,-1,32
 563 -20 563 -20 433 -20 c 0,0,1
459 172 m 0,33,34
 531 172 531 172 580.5 208 c 128,-1,35
 630 244 630 244 660 308.5 c 128,-1,36
 690 373 690 373 703 462.5 c 128,-1,37
 716 552 716 552 716 660 c 0,38,39
 716 730 716 730 708.5 787.5 c 128,-1,40
 701 845 701 845 689 892 c 1,41,-1
 632 892 l 2,42,43
 575 892 575 892 521.5 874.5 c 128,-1,44
 468 857 468 857 424 817.5 c 128,-1,45
 380 778 380 778 348 713.5 c 128,-1,46
 316 649 316 649 301 554 c 0,47,48
 295 519 295 519 292.5 487.5 c 128,-1,49
 290 456 290 456 290 426 c 0,50,51
 290 306 290 306 333.5 239 c 128,-1,52
 377 172 377 172 459 172 c 0,33,34
EndSplineSet
EndChar

StartChar: tau
Encoding: 964 964 397
Width: 686
GlyphClass: 2
Flags: W
LayerCount: 2
Fore
SplineSet
255 892 m 2,0,1
 223 892 223 892 190.5 889 c 128,-1,2
 158 886 158 886 130 880.5 c 128,-1,3
 102 875 102 875 80 868.5 c 128,-1,4
 58 862 58 862 47 855 c 1,5,-1
 79 1053 l 1,6,7
 90 1059 90 1059 107.5 1064.5 c 128,-1,8
 125 1070 125 1070 145.5 1074 c 128,-1,9
 166 1078 166 1078 188 1080 c 128,-1,10
 210 1082 210 1082 229 1082 c 2,11,-1
 757 1082 l 1,12,-1
 727 892 l 1,13,-1
 502 892 l 1,14,-1
 412 329 l 2,15,16
 407 296 407 296 407 271 c 0,17,18
 407 221 407 221 426 199 c 128,-1,19
 445 177 445 177 482 177 c 0,20,21
 489 177 489 177 500.5 178.5 c 128,-1,22
 512 180 512 180 525 182 c 128,-1,23
 538 184 538 184 549.5 186.5 c 128,-1,24
 561 189 561 189 567 190 c 1,25,-1
 541 7 l 1,26,27
 526 2 526 2 505 -3 c 128,-1,28
 484 -8 484 -8 460.5 -12 c 128,-1,29
 437 -16 437 -16 414 -18 c 128,-1,30
 391 -20 391 -20 373 -20 c 0,31,32
 322 -20 322 -20 285 -2.5 c 128,-1,33
 248 15 248 15 223.5 46.5 c 128,-1,34
 199 78 199 78 187.5 122 c 128,-1,35
 176 166 176 166 176 219 c 0,36,37
 176 245 176 245 178.5 277.5 c 128,-1,38
 181 310 181 310 186 339 c 2,39,-1
 274 892 l 1,40,-1
 255 892 l 2,0,1
EndSplineSet
EndChar

StartChar: upsilon
Encoding: 965 965 398
Width: 1024
GlyphClass: 2
Flags: W
LayerCount: 2
Fore
SplineSet
434 1082 m 1,0,-1
 336 505 l 2,1,2
 330 472 330 472 326.5 431 c 128,-1,3
 323 390 323 390 323 359 c 0,4,5
 323 281 323 281 357.5 234 c 128,-1,6
 392 187 392 187 465 187 c 0,7,8
 517 187 517 187 556 212 c 128,-1,9
 595 237 595 237 623 280.5 c 128,-1,10
 651 324 651 324 668.5 382 c 128,-1,11
 686 440 686 440 696 506 c 128,-1,12
 706 572 706 572 710 642 c 128,-1,13
 714 712 714 712 714 779 c 0,14,15
 714 887 714 887 701 962 c 128,-1,16
 688 1037 688 1037 676 1082 c 1,17,-1
 918 1082 l 1,18,19
 931 1032 931 1032 940.5 959.5 c 128,-1,20
 950 887 950 887 950 799 c 0,21,22
 950 696 950 696 938 595 c 128,-1,23
 926 494 926 494 900 403 c 128,-1,24
 874 312 874 312 833.5 234.5 c 128,-1,25
 793 157 793 157 737 100.5 c 128,-1,26
 681 44 681 44 607.5 12 c 128,-1,27
 534 -20 534 -20 443 -20 c 0,28,29
 359 -20 359 -20 293 1.5 c 128,-1,30
 227 23 227 23 181 67 c 128,-1,31
 135 111 135 111 110.5 178 c 128,-1,32
 86 245 86 245 86 337 c 0,33,34
 86 354 86 354 87 374.5 c 128,-1,35
 88 395 88 395 89.5 415.5 c 128,-1,36
 91 436 91 436 93.5 454.5 c 128,-1,37
 96 473 96 473 97 485 c 2,38,-1
 197 1082 l 1,39,-1
 434 1082 l 1,0,-1
EndSplineSet
EndChar

